<svg width="212" height="28" viewBox="0 0 212 28" fill="none" xmlns="http://www.w3.org/2000/svg">
<g clip-path="url(#clip0_2450_4630)">
<path d="M11.4977 27.9999C8.42018 27.9999 5.87243 27.26 3.86282 25.7717C1.85321 24.2918 0.894653 22.1645 0.894653 19.5159C0.894653 18.9861 1.00396 18.2462 1.10486 17.3969C1.42438 15.4882 1.95411 13.26 2.59315 10.6113C4.39255 3.49783 8.95832 -0.109375 16.3829 -0.109375C18.401 -0.109375 20.2004 0.210145 21.7895 0.950085C23.3787 1.58912 24.6568 2.53927 25.607 3.91825C26.5655 5.18792 26.9859 6.78552 26.9859 8.58492C26.9859 9.11465 26.8766 9.85459 26.7757 10.6029C26.3553 12.9321 25.9265 15.1603 25.3968 17.3885C24.4382 20.9957 22.849 23.6444 20.6208 25.3429C18.3926 27.0414 15.3151 27.9999 11.607 27.9999H11.4977ZM12.0274 22.3747C13.5157 22.3747 14.7853 21.9543 15.7355 21.105C16.795 20.2558 17.5349 18.9861 17.9637 17.1783C18.6028 14.7399 19.0232 12.621 19.3427 10.8131C19.452 10.2834 19.452 9.75369 19.452 9.11465C19.452 6.78552 18.1823 5.61675 15.7439 5.61675C14.2556 5.61675 12.9859 6.03717 11.9265 6.88642C10.867 7.73567 10.1271 9.00534 9.69826 10.8131C9.27784 12.5116 8.7397 14.6306 8.31928 17.1783C8.20997 17.708 8.20997 18.2462 8.20997 18.7759C8.20997 21.2143 9.48805 22.3747 12.0274 22.3747Z" fill="#151515"/>
<path d="M30.9126 27.6802C30.5931 27.6802 30.3829 27.5709 30.2736 27.3607C30.1643 27.1505 30.0634 26.9403 30.1643 26.6208L35.5709 1.26942C35.6802 0.949901 35.7811 0.739691 35.9913 0.52948C36.2015 0.31927 36.521 0.209961 36.7312 0.209961H47.2333C50.1006 0.209961 52.4297 0.849 54.2291 2.00936C56.0285 3.16972 56.8946 4.98594 56.8946 7.21417C56.8946 7.8532 56.7853 8.48384 56.6844 9.23218C56.0453 12.2004 54.6664 14.4286 52.7577 15.8076C50.7396 17.1865 48.091 17.9265 44.694 17.9265H39.3883L37.5889 26.4106C37.5889 26.7301 37.3787 26.9403 37.1685 27.1505C36.9583 27.3607 36.6387 27.47 36.4285 27.47H31.1228L30.9126 27.6802ZM44.8033 12.831C45.8628 12.831 46.8213 12.5115 47.6706 11.9817C48.5198 11.3427 49.0496 10.4934 49.3691 9.43398C49.4784 9.01356 49.4784 8.58474 49.4784 8.26522C49.4784 7.52528 49.2682 6.99555 48.8393 6.56672C48.4105 6.13789 47.6706 5.92768 46.5102 5.92768H41.8435L40.3553 12.9235H44.9126L44.8033 12.831Z" fill="#151515"/>
<path d="M65.6983 27.6802C65.3788 27.6802 65.1686 27.5709 65.0592 27.3607C64.9499 27.1505 64.849 26.9403 64.9499 26.6208L69.2971 6.46582H62.3013C61.9818 6.46582 61.7716 6.35651 61.6622 6.1463C61.5529 5.93609 61.452 5.72588 61.5529 5.40636L62.5115 1.26942C62.6208 0.949901 62.7217 0.739691 62.9319 0.52948C63.1421 0.31927 63.4616 0.209961 63.6719 0.209961H84.777C85.0965 0.209961 85.3067 0.31927 85.416 0.52948C85.5253 0.63879 85.5253 0.849 85.5253 0.949901C85.5253 1.0508 85.5253 1.05921 85.5253 1.16011L84.5667 5.29705C84.5667 5.61657 84.3565 5.82678 84.1463 6.03699C83.9361 6.2472 83.7259 6.35651 83.4064 6.35651H76.4106L72.0634 26.5115C71.9541 26.831 71.8532 27.0412 71.643 27.2514C71.4328 27.4616 71.1133 27.5709 70.9031 27.5709H65.7067V27.6802H65.6983Z" fill="#151515"/>
<path d="M86.4839 27.6802C86.1644 27.6802 85.9542 27.5709 85.8449 27.3607C85.7356 27.1505 85.6347 26.9403 85.7356 26.6208L91.2515 1.26942C91.2515 0.949901 91.4617 0.739691 91.6719 0.52948C91.8821 0.31927 92.2016 0.209961 92.4118 0.209961H97.7175C98.0371 0.209961 98.2473 0.31927 98.3566 0.52948C98.4659 0.63879 98.4659 0.849 98.4659 0.949901C98.4659 1.0508 98.4659 1.05921 98.4659 1.16011L93.0593 26.5115C93.0593 26.831 92.8491 27.0412 92.6389 27.2514C92.4286 27.4616 92.1091 27.5709 91.8989 27.5709H86.5932L86.4839 27.6802Z" fill="#151515"/>
<path d="M101.543 27.6807C101.224 27.6807 101.014 27.5713 100.904 27.3611C100.795 27.1509 100.694 26.9407 100.795 26.6212L106.202 1.26984C106.202 0.950324 106.412 0.740113 106.622 0.529903C106.832 0.319693 107.152 0.210384 107.362 0.210384H111.608C112.247 0.210384 112.668 0.529903 112.777 1.05963L117.023 13.3611L126.567 1.05963C126.676 0.849423 126.886 0.639212 127.097 0.420594C127.307 0.201975 127.626 0.101074 128.055 0.101074H132.301C132.621 0.101074 132.831 0.210384 132.94 0.420594C133.05 0.529903 133.05 0.740113 133.05 0.841014C133.05 0.941915 133.05 0.950324 133.05 1.05122L127.643 26.4026C127.643 26.7221 127.433 26.9323 127.223 27.1425C127.012 27.3527 126.693 27.462 126.483 27.462H121.707C121.387 27.462 121.177 27.3527 121.068 27.1425C120.958 26.9323 120.857 26.7221 120.958 26.4026L124.036 12.0831L117.99 20.0374C117.78 20.3569 117.46 20.5671 117.25 20.6765C117.04 20.7858 116.721 20.8867 116.401 20.8867H114.383C113.853 20.8867 113.424 20.5671 113.214 20.0374L110.456 11.7719L107.278 26.5119C107.169 26.8314 107.068 27.0416 106.857 27.2518C106.647 27.462 106.328 27.5713 106.118 27.5713H101.451L101.543 27.6807Z" fill="#151515"/>
<path d="M136.228 27.6802C135.908 27.6802 135.698 27.5709 135.589 27.3607C135.48 27.1505 135.379 26.9403 135.48 26.6208L140.995 1.26942C141.105 0.949901 141.206 0.739691 141.416 0.52948C141.626 0.31927 141.946 0.209961 142.156 0.209961H147.462C147.781 0.209961 147.991 0.31927 148.101 0.52948C148.21 0.63879 148.21 0.849 148.21 0.949901C148.21 1.0508 148.21 1.05921 148.21 1.16011L142.803 26.5115C142.803 26.831 142.593 27.0412 142.383 27.2514C142.173 27.4616 141.853 27.5709 141.643 27.5709H136.337L136.228 27.6802Z" fill="#151515"/>
<path d="M160.831 27.9998C158.502 27.9998 156.585 27.6803 154.895 27.0413C153.305 26.4022 152.027 25.553 151.187 24.6028C150.337 23.5434 149.917 22.3746 149.917 21.1049C149.917 20.8947 149.917 20.5752 150.026 20.1464C150.135 19.9362 150.236 19.726 150.346 19.5073C150.556 19.398 150.766 19.2971 150.985 19.2971H155.971C156.29 19.2971 156.501 19.2971 156.711 19.4064C156.921 19.5157 157.03 19.726 157.241 19.9362C157.451 20.5752 157.88 21.2058 158.51 21.6347C159.141 22.0635 160.099 22.2737 161.268 22.2737C162.757 22.2737 163.917 22.0635 164.875 21.5338C165.834 21.1133 166.364 20.4743 166.574 19.625C166.574 19.5157 166.574 19.4148 166.574 19.2046C166.574 18.5656 166.154 18.0359 165.405 17.7163C164.556 17.2959 163.076 16.8671 160.949 16.3374C158.401 15.8076 156.492 14.9584 155.223 13.8989C153.953 12.7302 153.205 11.3512 153.205 9.55178C153.205 8.91274 153.314 8.28211 153.415 7.64307C153.944 5.20463 155.214 3.29592 157.341 1.91694C159.469 0.537965 162.117 -0.101074 165.405 -0.101074C167.423 -0.101074 169.113 0.218445 170.711 0.958385C172.308 1.69833 173.469 2.54757 174.318 3.60703C175.167 4.66649 175.588 5.72595 175.588 6.78541C175.588 7.10493 175.588 7.31514 175.588 7.42445C175.588 7.63466 175.378 7.84487 175.268 8.06349C175.159 8.1728 174.949 8.2737 174.629 8.2737H169.315C168.785 8.2737 168.357 8.06349 168.146 7.63466C168.146 6.99562 167.827 6.5752 167.188 6.14637C166.549 5.71754 165.809 5.50733 164.859 5.50733C163.69 5.50733 162.74 5.71754 161.991 6.14637C161.243 6.5752 160.823 7.20583 160.612 7.94577C160.612 8.05508 160.612 8.26529 160.612 8.4755C160.612 9.11454 160.932 9.64427 161.672 10.0647C162.412 10.4851 163.791 10.8046 165.599 11.2335C168.567 11.7632 170.686 12.6124 171.964 13.6719C173.343 14.7314 173.982 16.1103 173.982 17.9181C173.982 18.5572 173.872 19.1878 173.772 19.8269C173.242 22.4755 171.754 24.4935 169.525 25.8725C167.297 27.2515 164.329 27.8905 160.722 27.8905L160.831 27.9998Z" fill="#151515"/>
<path d="M179.397 27.6807C179.077 27.6807 178.867 27.5713 178.758 27.3611C178.648 27.1509 178.547 26.9407 178.648 26.6212L184.055 1.26984C184.055 0.950324 184.265 0.740113 184.475 0.529903C184.686 0.319693 185.005 0.210384 185.215 0.210384H189.462C190.101 0.210384 190.521 0.529903 190.63 1.05963L194.877 13.3611L204.42 1.05963C204.529 0.849423 204.74 0.639212 204.95 0.420594C205.16 0.201975 205.48 0.101074 205.908 0.101074H210.155C210.474 0.101074 210.684 0.210384 210.794 0.420594C210.903 0.529903 210.903 0.740113 210.903 0.841014C210.903 0.941915 210.903 0.950324 210.903 1.05122L205.496 26.4026C205.387 26.7221 205.286 26.9323 205.076 27.1425C204.866 27.3527 204.546 27.462 204.336 27.462H199.56C199.241 27.462 199.03 27.3527 198.921 27.1425C198.812 26.9323 198.711 26.7221 198.812 26.4026L201.889 12.0831L195.844 20.0374C195.633 20.3569 195.314 20.5671 195.104 20.6765C194.893 20.7858 194.574 20.8867 194.254 20.8867H192.236C191.707 20.8867 191.278 20.5671 191.068 20.0374L188.31 11.7635L185.123 26.5119C185.014 26.8314 184.913 27.0416 184.702 27.2518C184.492 27.462 184.173 27.5713 183.963 27.5713H179.296L179.397 27.6807Z" fill="#151515"/>
</g>
<defs>
<clipPath id="clip0_2450_4630">
<rect width="210.21" height="28" fill="white" transform="translate(0.895508)"/>
</clipPath>
</defs>
</svg>
