<svg width="123" height="36" viewBox="0 0 123 36" fill="none" xmlns="http://www.w3.org/2000/svg">
<g clip-path="url(#clip0_2450_4580)">
<path d="M93.6042 31.851L96.8991 30.8137V3.66113L93.6042 4.69842V31.851ZM55.7432 15.3764C57.8178 15.3764 59.7093 16.2916 60.9296 17.8171L62.272 14.7357C60.5025 13.0577 58.1839 12.2645 55.7432 12.2645C50.0991 12.2645 46.194 16.7188 46.2245 21.6611C46.2551 27.0001 50.4652 31.3628 55.7432 31.3628C58.4279 31.3628 60.4415 30.5696 61.9669 29.4408V25.6272C60.35 27.2442 58.0313 28.1899 56.0178 28.1899C52.9669 28.1899 49.5195 25.7188 49.5195 21.6306C49.5195 17.8476 52.4788 15.3764 55.7432 15.3764ZM77.5873 12.234C71.9432 12.234 68.6483 16.6882 68.6483 21.6306C68.6483 26.9696 72.889 31.3323 78.1669 31.3323C80.8517 31.3323 82.8652 30.5391 84.3906 29.4103V25.6272C82.7737 27.2442 80.4551 28.1899 78.4415 28.1899C75.7262 28.1899 72.7669 26.512 72.1568 22.973H86.5567V21.7221C86.4957 16.4442 83.0483 12.234 77.5873 12.234ZM113.038 12.234C107.76 12.234 103.489 16.5052 103.489 21.7832C103.489 27.0611 107.76 31.3323 113.038 31.3323C118.316 31.3323 122.587 27.0611 122.587 21.7832C122.587 16.5052 118.316 12.234 113.038 12.234ZM77.6178 15.3764C80.1805 15.3764 82.8957 16.9933 83.1093 20.0747H72.1262C72.3398 16.9628 75.0551 15.3764 77.6178 15.3764ZM113.038 28.1899C109.499 28.1899 106.631 25.3221 106.631 21.7832C106.631 18.2442 109.499 15.3764 113.038 15.3764C116.577 15.3764 119.445 18.2442 119.445 21.7832C119.445 25.3221 116.608 28.1899 113.038 28.1899Z" fill="#151515"/>
<path d="M22.3668 24.651C28.1634 24.651 32.8617 19.9527 32.8617 14.1561C32.8617 8.35952 28.1634 3.66122 22.3668 3.66122C16.5702 3.66122 11.8719 8.35952 11.8719 14.1561C11.8719 19.9527 16.5702 24.651 22.3668 24.651ZM22.3668 28.4646C14.4651 28.4646 8.05835 22.0578 8.05835 14.1561C8.05835 6.25443 14.4651 -0.152344 22.3668 -0.152344C30.2685 -0.152344 36.6753 6.25443 36.6753 14.1561C36.6753 22.0578 30.2685 28.4646 22.3668 28.4646Z" fill="#151515"/>
<path opacity="0.5" d="M14.7396 32.278C20.5362 32.278 25.2345 27.5797 25.2345 21.7831C25.2345 15.9865 20.5362 11.2882 14.7396 11.2882C8.94302 11.2882 4.24471 15.9865 4.24471 21.7831C4.24471 27.5797 8.94302 32.278 14.7396 32.278ZM14.7396 36.0916C6.83793 36.0916 0.431152 29.6848 0.431152 21.7831C0.431152 13.8814 6.83793 7.47461 14.7396 7.47461C22.6413 7.47461 29.0481 13.8814 29.0481 21.7831C29.0481 29.6848 22.6413 36.0916 14.7396 36.0916Z" fill="#151515"/>
<path d="M22.8245 28.4644C23.8312 27.2746 24.5329 25.8407 24.899 24.3458C26.4245 23.9797 27.8278 23.2475 29.0177 22.2712C28.9567 24.0102 28.5906 25.7492 27.9194 27.3661C26.3024 28.0373 24.5939 28.4034 22.8245 28.4644ZM12.177 11.5933C10.6516 11.9594 9.24818 12.6916 8.05835 13.6678C8.11937 11.9288 8.48547 10.1899 9.15665 8.57292C10.7736 7.90173 12.4821 7.50512 14.2516 7.47461C13.2753 8.66444 12.5736 10.0983 12.177 11.5933Z" fill="#151515"/>
</g>
<defs>
<clipPath id="clip0_2450_4580">
<rect width="122.034" height="36" fill="white" transform="translate(0.553711)"/>
</clipPath>
</defs>
</svg>
