<svg width="201" height="36" viewBox="0 0 201 36" fill="none" xmlns="http://www.w3.org/2000/svg">
<g clip-path="url(#clip0_2450_4585)">
<path d="M58.3891 0C54.1211 0 49.4732 2.18526 44.5593 6.49263C42.229 8.52631 40.2153 10.7116 38.7083 12.4674C38.7083 12.4674 38.7083 12.4674 38.7083 12.48C38.7083 12.48 38.7083 12.48 38.7209 12.4674C38.7209 12.4674 41.1019 15.0695 43.7361 17.8484C45.1545 16.1684 47.1935 13.8821 49.5492 11.8232C53.9185 7.99579 56.768 7.2 58.3891 7.2C64.5187 7.2 69.4959 12.0505 69.4959 18.0253C69.4959 23.9621 64.5061 28.8126 58.3764 28.8505C58.0978 28.8505 57.7432 28.8126 57.2999 28.7242C59.0856 29.4947 61.0106 30.0505 62.8343 30.0505C74.0679 30.0505 76.2588 22.7242 76.4108 22.2063C76.7528 20.8421 76.9174 19.44 76.9174 18.0379C76.9174 8.07158 68.5967 0 58.3891 0Z" fill="url(#paint0_linear_2450_4585)"/>
<path d="M19.1541 35.9999C23.4094 35.9999 28.07 33.8147 32.9838 29.5199C35.3141 27.4862 37.3278 25.301 38.8349 23.5452C38.8349 23.5452 38.8349 23.5452 38.8349 23.5326L38.8222 23.5452C38.8222 23.5452 36.4413 20.9431 33.807 18.1641C32.3886 19.8441 30.3496 22.1305 27.994 24.1894C23.6247 28.0168 20.7751 28.8252 19.1541 28.8252C13.0244 28.8252 8.0472 23.962 8.0472 17.9999C8.0472 12.0631 13.0371 7.21257 19.1667 7.17467C19.4453 7.17467 19.8 7.21257 20.2432 7.31362C18.4575 6.54309 16.5325 5.9873 14.7088 5.9873C3.47527 5.9873 1.28429 13.3136 1.13232 13.8315C0.790372 15.1957 0.625732 16.5978 0.625732 17.9999C0.625732 17.9999 0.625732 17.9999 0.625732 18.0126C0.625732 27.9284 8.93372 35.9999 19.1541 35.9999Z" fill="url(#paint1_linear_2450_4585)"/>
<path d="M62.809 29.8358C57.0593 29.6968 51.0816 25.1621 49.8658 24.0379C46.7123 21.1326 39.4428 13.2505 38.8729 12.6316C33.5537 6.66947 26.3349 0 19.1541 0H19.1414C10.4155 0.0378947 3.08267 5.94947 1.13232 13.8189C1.2843 13.3011 4.1465 5.83579 14.6961 6.10105C20.4459 6.24 26.4489 10.8379 27.6647 11.9621C30.8182 14.8674 38.0877 22.7495 38.6576 23.3684C43.9894 29.3305 51.2082 36 58.3764 36H58.389C67.115 35.9621 74.4351 30.0505 76.3855 22.1811C76.2588 22.6989 73.3586 30.1011 62.809 29.8358Z" fill="#151515"/>
<path d="M89.9138 14.5994C90.243 14.5994 90.5217 14.3341 90.5217 13.9931V3.8499C90.5217 3.52148 90.2557 3.24359 89.9138 3.24359H88.8753C88.546 3.24359 88.28 3.50885 88.28 3.83727V13.9804C88.28 14.3089 88.546 14.5867 88.8879 14.5867H89.9138V14.5994ZM105.972 14.5994C106.302 14.5994 106.58 14.3341 106.58 13.9931V3.8499C106.58 3.52148 106.314 3.24359 105.972 3.24359H104.959C104.63 3.24359 104.364 3.50885 104.364 3.83727V10.7341L99.8682 3.6099C99.7162 3.3699 99.4629 3.23096 99.1843 3.23096H97.4619C97.1326 3.23096 96.8666 3.49622 96.8666 3.82464V13.9678C96.8666 14.2962 97.1326 14.5741 97.4745 14.5741H98.4877C98.817 14.5741 99.0956 14.3089 99.0956 13.9678V6.55306L104.022 14.2331C104.174 14.4604 104.427 14.5994 104.693 14.5994H105.972ZM120.663 5.35306C120.993 5.35306 121.271 5.0878 121.271 4.75938V3.86254C121.271 3.53411 121.005 3.25622 120.663 3.25622H112.457C112.127 3.25622 111.862 3.52148 111.862 3.8499V4.74675C111.862 5.07517 112.127 5.35306 112.457 5.35306H115.446V14.0057C115.446 14.3341 115.712 14.5994 116.054 14.5994H117.079C117.409 14.5994 117.675 14.3341 117.675 13.9931V5.35306H120.663ZM133.062 14.5994C133.391 14.5994 133.67 14.3341 133.67 13.9931V13.1089C133.67 12.7804 133.404 12.5152 133.062 12.5152H128.756V9.8878H132.594C132.923 9.8878 133.201 9.62254 133.201 9.28148V8.51096C133.201 8.18254 132.935 7.91727 132.606 7.91727H128.769V5.3278H133.075C133.404 5.3278 133.683 5.06254 133.683 4.72148V3.83727C133.683 3.50885 133.417 3.23096 133.075 3.23096H127.16C126.831 3.23096 126.565 3.49622 126.565 3.82464V13.9678C126.565 14.2962 126.831 14.5741 127.16 14.5741H133.062V14.5994ZM144.967 14.271C145.068 14.4731 145.283 14.5994 145.499 14.5994H146.601C146.93 14.5994 147.196 14.3341 147.196 13.9931C147.196 13.892 147.17 13.8036 147.132 13.7152L145.157 9.95096C146.651 9.52148 147.576 8.32148 147.576 6.7299C147.576 4.75938 146.17 3.24359 143.954 3.24359H140.116C139.787 3.24359 139.521 3.50885 139.521 3.83727V13.9804C139.521 14.3089 139.787 14.5867 140.116 14.5867H141.142C141.471 14.5867 141.737 14.3215 141.737 13.9804V10.2162H142.89L144.967 14.271ZM141.611 8.42254V5.26464H143.409C144.536 5.26464 145.195 5.88359 145.195 6.84359C145.195 7.76569 144.536 8.4099 143.409 8.4099H141.611V8.42254ZM162.419 14.5994C162.748 14.5994 163.014 14.3341 163.014 13.9931V3.8499C163.014 3.52148 162.748 3.24359 162.419 3.24359H161.406C161.076 3.24359 160.798 3.50885 160.798 3.83727V10.7341L156.302 3.6099C156.15 3.38254 155.896 3.23096 155.618 3.23096H153.908C153.579 3.23096 153.3 3.49622 153.3 3.82464V13.9678C153.3 14.2962 153.566 14.5741 153.908 14.5741H154.921C155.251 14.5741 155.516 14.3089 155.516 13.9678V6.55306L160.443 14.2331C160.595 14.4604 160.848 14.5994 161.114 14.5994H162.419ZM175.894 14.5994C176.223 14.5994 176.489 14.3341 176.489 13.9931V13.1089C176.489 12.7804 176.223 12.5152 175.894 12.5152H171.588V9.8878H175.425C175.755 9.8878 176.02 9.62254 176.02 9.28148V8.51096C176.02 8.18254 175.755 7.91727 175.425 7.91727H171.588V5.3278H175.894C176.223 5.3278 176.489 5.06254 176.489 4.72148V3.83727C176.489 3.50885 176.223 3.23096 175.894 3.23096H169.979C169.65 3.23096 169.372 3.49622 169.372 3.82464V13.9678C169.372 14.2962 169.638 14.5741 169.979 14.5741H175.894V14.5994ZM190.091 5.35306C190.42 5.35306 190.686 5.0878 190.686 4.75938V3.86254C190.686 3.53411 190.42 3.25622 190.091 3.25622H181.884C181.555 3.25622 181.276 3.52148 181.276 3.8499V4.74675C181.276 5.07517 181.542 5.35306 181.884 5.35306H184.873V14.0057C184.873 14.3341 185.139 14.5994 185.468 14.5994H186.494C186.823 14.5994 187.102 14.3341 187.102 13.9931V5.35306H190.091Z" fill="#151515"/>
<path d="M94.1058 32.8968C96.968 32.8968 98.589 31.1916 99.1969 29.5874C99.3109 29.2842 99.1209 28.9684 98.817 28.88L97.8798 28.6021C97.5632 28.501 97.2212 28.6905 97.0819 28.9937C96.6387 29.8905 95.7142 30.7495 94.1058 30.7495C92.282 30.7495 90.585 29.4231 90.585 27.0105C90.585 24.4337 92.3834 23.221 94.0804 23.221C95.6888 23.221 96.5754 24.0168 96.9933 24.9137C97.1453 25.2295 97.4872 25.4316 97.8165 25.3179L98.7537 25.0147C99.0576 24.9263 99.2349 24.6105 99.1209 24.3074C98.513 22.6526 96.9173 21.0863 94.0678 21.0863C91.0156 21.0863 88.28 23.3852 88.28 27.0105C88.28 30.6105 90.9269 32.8968 94.1058 32.8968ZM105.327 26.9726C105.327 24.4084 107.125 23.1958 108.873 23.1958C110.633 23.1958 112.431 24.4084 112.431 26.9726C112.431 29.5368 110.633 30.7495 108.873 30.7495C107.125 30.7495 105.327 29.5368 105.327 26.9726ZM103.034 26.9852C103.034 30.6358 105.795 32.8842 108.873 32.8842C111.963 32.8842 114.724 30.6231 114.724 26.9852C114.724 23.3221 111.963 21.061 108.873 21.061C105.795 21.0737 103.034 23.3347 103.034 26.9852ZM132.518 32.6568C132.847 32.6568 133.113 32.3916 133.113 32.0631V22.1221C133.113 21.68 132.758 21.3263 132.315 21.3263H130.643C130.314 21.3263 130.023 21.5284 129.909 21.8189L126.768 29.5116L123.564 21.8189C123.437 21.5158 123.146 21.3263 122.829 21.3263H121.246C120.803 21.3263 120.448 21.68 120.448 22.1221V32.0631C120.448 32.3916 120.714 32.6568 121.043 32.6568H121.955C122.285 32.6568 122.601 32.5305 122.601 32.2021L122.563 24.7747L125.679 32.2905C125.767 32.5179 125.995 32.6568 126.236 32.6568H127.274C127.515 32.6568 127.743 32.5052 127.832 32.2905L130.947 24.7116V32.0631C130.947 32.3916 131.213 32.6568 131.542 32.6568H132.518ZM141.18 26.48V23.2337H142.928C144.03 23.2337 144.714 23.8526 144.714 24.8631C144.714 25.8358 144.042 26.48 142.928 26.48H141.18ZM143.206 28.3874C145.448 28.3874 146.943 26.9221 146.943 24.8505C146.943 22.8042 145.448 21.3137 143.206 21.3137H139.559C139.23 21.3137 138.951 21.5789 138.951 21.9074V32.0505C138.951 32.3789 139.217 32.6442 139.559 32.6442H140.572C140.902 32.6442 141.18 32.3789 141.18 32.0505V28.3747H143.206V28.3874ZM156.644 32.9095C159.088 32.9095 161.026 31.4189 161.026 28.64V21.92C161.026 21.5916 160.747 21.3137 160.43 21.3137H159.417C159.088 21.3137 158.822 21.5789 158.822 21.9074V28.4758C158.822 29.9663 157.999 30.7495 156.656 30.7495C155.339 30.7495 154.503 29.9663 154.503 28.4758V21.9074C154.503 21.5789 154.225 21.301 153.895 21.301H152.882C152.553 21.301 152.274 21.5663 152.274 21.8947V28.6147C152.287 31.4189 154.225 32.9095 156.644 32.9095ZM175.045 23.4105C175.375 23.4105 175.641 23.1452 175.641 22.8042V21.9074C175.641 21.5789 175.362 21.301 175.045 21.301H166.839C166.509 21.301 166.231 21.5789 166.231 21.8947V22.7916C166.231 23.12 166.497 23.3979 166.839 23.3979H169.827V32.0379C169.827 32.3663 170.093 32.6316 170.423 32.6316H171.449C171.778 32.6316 172.056 32.3663 172.056 32.0379V23.3979L175.045 23.4105ZM186.937 32.6568C187.267 32.6568 187.533 32.3916 187.533 32.0631V31.1789C187.533 30.8505 187.254 30.5726 186.937 30.5726H182.631V27.9452H186.469C186.798 27.9452 187.064 27.68 187.064 27.3389V26.5684C187.064 26.24 186.785 25.9747 186.469 25.9747H182.631V23.3852H186.937C187.267 23.3852 187.533 23.12 187.533 22.7916V21.9074C187.533 21.5789 187.254 21.301 186.937 21.301H181.023C180.694 21.301 180.428 21.5789 180.428 21.8947V32.0379C180.428 32.3663 180.694 32.6316 181.023 32.6316H186.937V32.6568ZM198.323 32.3284C198.424 32.5305 198.627 32.6568 198.855 32.6568H199.957C200.286 32.6568 200.552 32.3916 200.552 32.0631C200.552 31.9621 200.527 31.8737 200.489 31.7852L198.513 28.021C200.007 27.5916 200.932 26.3916 200.932 24.8126C200.932 22.8421 199.526 21.3263 197.31 21.3263H192.864V32.0631C192.864 32.3916 193.13 32.6568 193.46 32.6568H194.485C194.815 32.6568 195.093 32.3916 195.093 32.0631V28.2989H196.246L198.323 32.3284ZM194.967 26.48V23.3347H196.765C197.892 23.3347 198.551 23.9537 198.551 24.9137C198.551 25.8358 197.892 26.48 196.765 26.48H194.967Z" fill="#151515"/>
</g>
<defs>
<linearGradient id="paint0_linear_2450_4585" x1="48.5921" y1="2.33078" x2="73.7057" y2="28.1733" gradientUnits="userSpaceOnUse">
<stop stop-color="#6C6C6C"/>
<stop offset="1" stop-color="#C7C7C7"/>
</linearGradient>
<linearGradient id="paint1_linear_2450_4585" x1="28.6913" y1="33.4147" x2="3.57564" y2="7.57218" gradientUnits="userSpaceOnUse">
<stop stop-color="white"/>
<stop offset="1" stop-color="#616161"/>
</linearGradient>
<clipPath id="clip0_2450_4585">
<rect width="200.308" height="36" fill="white" transform="translate(0.587646)"/>
</clipPath>
</defs>
</svg>
