<svg width="165" height="36" viewBox="0 0 165 36" fill="none" xmlns="http://www.w3.org/2000/svg">
<path d="M51.3247 33.6789V10.991H54.7137L55.0104 12.8306H55.1884C56.1379 11.5844 57.7994 10.6943 60.061 10.6943C64.2214 10.6943 67.6038 14.0833 67.6038 19.1273C67.6038 24.1713 64.2742 27.5603 60.0544 27.5603C57.7994 27.5603 56.25 26.6108 55.4192 25.5427H55.2412V33.6196H51.3181V33.6789H51.3247ZM63.6808 19.1273C63.6808 16.1603 61.7819 14.3141 59.461 14.3141C57.1401 14.3141 55.2412 16.1537 55.2412 19.1273C55.2412 22.1009 57.1401 23.9405 59.461 23.9405C61.7819 23.9405 63.6808 22.1009 63.6808 19.1273Z" fill="#151515"/>
<path d="M69.562 19.1273C69.562 14.1954 73.129 10.6943 77.817 10.6943C82.5708 10.6943 86.0719 14.2614 86.0719 19.1273C86.0719 24.0592 82.5049 27.5603 77.817 27.5603C73.0631 27.5603 69.562 23.9998 69.562 19.1273ZM82.1488 19.1273C82.1488 16.2196 80.2499 14.3141 77.8104 14.3141C75.4367 14.3141 73.4719 16.213 73.4719 19.1273C73.4719 22.0416 75.4301 23.9405 77.8104 23.9405C80.1906 23.9405 82.1488 22.0416 82.1488 19.1273Z" fill="#151515"/>
<path d="M88.9204 27.2638V4.75391H92.8435V27.2638H88.9204Z" fill="#151515"/>
<path d="M107.454 10.9915H111.615L104.547 30.7717C103.835 32.7299 102.885 33.6794 100.327 33.6794H96.5291V30.053H99.7334C100.327 30.053 100.624 29.7563 100.802 29.2816L101.158 28.2134L94.5049 10.9849H98.6653L102.885 22.2728H103.538L107.342 10.9849H107.454V10.9915Z" fill="#151515"/>
<path d="M112.386 28.1009H116.369C116.547 29.1691 117.615 30.5932 120.114 30.5932C122.487 30.5932 124.037 29.1097 124.037 26.8482V24.5932H123.859C122.969 25.5427 121.366 26.3735 119.342 26.3735C115.182 26.3735 111.918 23.1691 111.918 18.5339C111.918 13.8987 115.122 10.6943 119.342 10.6943C121.478 10.6943 123.087 11.5844 124.096 12.7713H124.274L124.571 10.991H127.96V26.8482C127.96 31.1866 125.052 34.035 120.12 34.035C114.582 34.035 112.505 30.4152 112.386 28.1009ZM123.971 18.5339C123.971 15.9822 122.19 14.1954 119.87 14.1954C117.615 14.1954 115.828 15.9757 115.828 18.5339C115.828 21.0921 117.608 22.8724 119.87 22.8724C122.131 22.8724 123.971 21.0855 123.971 18.5339Z" fill="#151515"/>
<path d="M130.624 19.1273C130.624 14.1954 134.191 10.6943 138.878 10.6943C143.632 10.6943 147.133 14.2614 147.133 19.1273C147.133 24.0592 143.566 27.5603 138.878 27.5603C134.125 27.5603 130.624 23.9998 130.624 19.1273ZM143.217 19.1273C143.217 16.2196 141.259 14.3141 138.878 14.3141C136.505 14.3141 134.54 16.213 134.54 19.1273C134.54 22.0416 136.498 23.9405 138.878 23.9405C141.252 23.9405 143.217 22.0416 143.217 19.1273Z" fill="#151515"/>
<path d="M149.87 27.2636V10.991H153.259L153.556 12.5339H153.734C154.386 11.8218 155.989 10.6943 158.428 10.6943C162.173 10.6943 164.844 13.3647 164.844 17.5251V27.3229H160.92V18.0592C160.92 15.9822 159.437 14.4328 157.413 14.4328C155.389 14.4328 153.786 16.035 153.786 18.0592V27.3229H149.87V27.2636Z" fill="#151515"/>
<path d="M30.1792 25.3649L39.799 19.7803C40.3331 19.4836 40.6298 18.9495 40.6298 18.3561V7.18688C40.6298 6.59348 40.3331 6.05941 39.799 5.76271L30.1792 0.178094C29.6452 -0.118609 29.0518 -0.118609 28.5177 0.178094L18.8913 5.76271C18.3573 6.05941 18.0606 6.59348 18.0606 7.18688V27.0858L11.2891 31.0089L4.5177 27.0858V19.3056L11.2891 15.3825L15.7463 17.9341V12.7056L12.1199 10.6286C11.8825 10.51 11.5858 10.3913 11.2891 10.3913C10.9924 10.3913 10.6957 10.4506 10.4584 10.6286L0.83199 16.2199C0.297924 16.5166 0.0012207 17.0506 0.0012207 17.644V28.8133C0.0012207 29.4067 0.297924 29.9407 0.83199 30.2374L10.4518 35.822C10.9858 36.1187 11.5792 36.1187 12.1133 35.822L21.7331 30.2374C22.2672 29.9407 22.5639 29.4067 22.5639 28.8133V8.91436L22.6825 8.85502L29.3419 4.99128L36.1133 8.91436V16.6946L29.3419 20.6111L24.8847 18.0594V23.288L28.5111 25.3649C29.0452 25.6616 29.6386 25.6616 30.1792 25.3649Z" fill="#151515"/>
</svg>
