<svg width="179" height="36" viewBox="0 0 179 36" fill="none" xmlns="http://www.w3.org/2000/svg">
<g clip-path="url(#clip0_2450_4542)">
<path d="M48.8871 11.7183H50.8179L56.2262 24.2654H53.6723L52.5038 21.3943H47.0621L45.927 24.2654H43.4287L48.8871 11.7183ZM51.7248 19.4802L49.7941 14.3779L47.8244 19.4802H51.7248Z" fill="#151515"/>
<path d="M58.6189 11.7183H61.1895L64.6115 21.1996L68.1391 11.7183H70.5484L65.4795 24.2654H63.5487L58.6189 11.7183Z" fill="#151515"/>
<path d="M78.5328 11.7183H80.4636L85.8664 24.2654H83.3124L82.144 21.3943H76.7022L75.5671 24.2654H73.0688L78.5328 11.7183ZM81.365 19.4802L79.4342 14.3779L77.4645 19.4802H81.365Z" fill="#151515"/>
<path d="M90.8074 11.7183H93.0386V22.2456H98.3746V24.2654H90.8074V11.7183Z" fill="#151515"/>
<path d="M107.606 11.7183H109.536L114.945 24.2654H112.391L111.222 21.3943H105.775L104.64 24.2654H102.142L107.606 11.7183ZM110.438 19.4802L108.507 14.3779L106.537 19.4802H110.438Z" fill="#151515"/>
<path d="M119.88 11.7183H122.84L128.922 21.0438H128.955V11.7183H131.186V24.2654H128.349L122.145 14.6394H122.111V24.2654H119.88V11.7183Z" fill="#151515"/>
<path d="M146.148 14.6617C145.687 14.1664 145.241 13.8326 144.802 13.6712C144.379 13.5043 143.945 13.4209 143.511 13.4209C142.86 13.4209 142.27 13.5377 141.736 13.777C141.219 13.9995 140.768 14.3222 140.389 14.734C140.011 15.1346 139.716 15.6076 139.505 16.1528C139.304 16.6981 139.204 17.2824 139.204 17.9056C139.204 18.5788 139.304 19.202 139.505 19.764C139.716 20.3315 140.011 20.8212 140.389 21.2329C140.768 21.6447 141.219 21.9729 141.736 22.2066C142.27 22.4403 142.86 22.5627 143.511 22.5627C144.017 22.5627 144.507 22.4459 144.98 22.2066C145.464 21.9562 145.915 21.5668 146.326 21.0382L148.168 22.3513C147.601 23.1303 146.911 23.6978 146.093 24.0539C145.28 24.41 144.407 24.5881 143.489 24.5881C142.521 24.5881 141.63 24.4323 140.812 24.1263C140.011 23.8091 139.31 23.364 138.72 22.7964C138.142 22.2178 137.685 21.5278 137.357 20.721C137.029 19.9198 136.862 19.0239 136.862 18.0447C136.862 17.0375 137.029 16.1306 137.357 15.3127C137.685 14.4836 138.142 13.7825 138.72 13.2039C139.31 12.6252 140.006 12.1801 140.812 11.874C141.625 11.5569 142.521 11.3955 143.489 11.3955C144.34 11.3955 145.125 11.5513 145.848 11.8573C146.582 12.1522 147.261 12.6586 147.884 13.3819L146.148 14.6617Z" fill="#151515"/>
<path d="M153.209 11.7183H155.44V16.7149H161.305V11.7183H163.536V24.2654H161.305V18.7346H155.44V24.2654H153.209V11.7183Z" fill="#151515"/>
<path d="M169.896 11.7183H178.209V13.738H172.127V16.8206H177.886V18.8404H172.127V22.2456H178.526V24.2654H169.896V11.7183Z" fill="#151515"/>
<path fill-rule="evenodd" clip-rule="evenodd" d="M36.8186 17.9946C36.8186 27.9377 28.7617 35.9946 18.8186 35.9946C8.87548 35.9946 0.818604 27.9377 0.818604 17.9946C0.818604 8.05151 8.87548 -0.00537109 18.8186 -0.00537109C28.7617 -0.00537109 36.8186 8.05151 36.8186 17.9946ZM13.7163 25.1557H10.222C9.48754 25.1557 9.12587 25.1557 8.9033 25.0166C8.66404 24.8608 8.51938 24.6048 8.50268 24.3211C8.49155 24.0595 8.66961 23.7424 9.03128 23.1025L17.6557 7.90127C18.0229 7.25583 18.2065 6.93311 18.4402 6.8107C18.6906 6.68273 18.9911 6.68273 19.247 6.8107C19.4807 6.92755 19.6644 7.25027 20.0316 7.90127L21.8065 10.9949L21.8177 11.0116C22.2127 11.7016 22.413 12.0577 22.5021 12.4249C22.5967 12.8255 22.5967 13.254 22.5021 13.6546C22.413 14.0274 22.2127 14.3779 21.8121 15.0846L17.2829 23.0914L17.2718 23.1136C16.8712 23.8147 16.6708 24.1653 16.3926 24.4323C16.0866 24.7217 15.7194 24.9387 15.3188 25.0555C14.9515 25.1557 14.5398 25.1557 13.7163 25.1557ZM22.5354 25.1557H27.5432C28.2832 25.1557 28.6504 25.1557 28.873 25.011C29.1123 24.8552 29.2625 24.5937 29.2736 24.3099C29.2848 24.0595 29.1067 23.7535 28.7617 23.1526C28.7506 23.1303 28.7395 23.1136 28.7228 23.0914L26.2133 18.8014L26.1855 18.7514C25.835 18.156 25.6569 17.8555 25.4288 17.7387C25.1784 17.6107 24.878 17.6107 24.6276 17.7387C24.3994 17.8555 24.2103 18.1727 23.843 18.807L21.3447 23.0969L21.3336 23.1136C20.9664 23.7424 20.7827 24.0595 20.7994 24.3211C20.8161 24.6048 20.9608 24.8663 21.2001 25.0221C21.4282 25.1557 21.801 25.1557 22.5354 25.1557Z" fill="#151515"/>
</g>
<defs>
<clipPath id="clip0_2450_4542">
<rect width="177.719" height="36" fill="white" transform="translate(0.835205)"/>
</clipPath>
</defs>
</svg>
