<svg width="134" height="36" viewBox="0 0 134 36" fill="none" xmlns="http://www.w3.org/2000/svg">
<g clip-path="url(#clip0_2450_4641)">
<path d="M37.3446 4.28642H43.473C45.0302 4.28642 46.1688 4.70502 46.9055 5.42502C47.6255 6.04456 47.9437 6.88177 47.9437 7.70223C47.9437 8.02037 47.9437 8.42224 47.8432 8.74037C47.6423 9.25944 47.3241 9.77851 46.9055 10.1971C46.7046 10.398 46.4869 10.5153 46.286 10.6157C47.006 10.8167 47.6423 11.2353 48.1613 11.7543C48.58 12.2734 48.7809 12.8929 48.7809 13.8306C48.7809 14.3497 48.6804 14.9692 48.4627 15.3878C48.2618 15.8064 47.8432 16.225 47.4246 16.5264C46.9055 16.8446 46.3865 17.0455 45.8674 17.2464C45.2479 17.4473 44.5111 17.4474 43.7911 17.4474H37.4451V4.25293H37.3446V4.28642ZM42.9539 9.67804C43.473 9.67804 43.992 9.57758 44.5111 9.35991C44.9297 9.15898 45.1307 8.74037 45.1307 8.32177C45.1307 7.90317 44.9297 7.48456 44.6116 7.28363C44.193 6.96549 43.6739 6.86502 43.1548 6.96549H40.2414V9.76177H42.9372V9.67804H42.9539ZM43.6739 14.986C44.193 14.986 44.712 14.8855 45.2311 14.6678C45.6497 14.4669 45.8507 14.0483 45.7502 13.5292C45.7502 13.1106 45.5493 12.692 45.2311 12.4911C44.913 12.2901 44.2934 12.0725 43.5734 12.0725H40.1409V14.986H43.6739Z" fill="#151515"/>
<path d="M52.3976 4.28662H55.3111V17.5815H52.3976V4.28662Z" fill="#151515"/>
<path d="M59.7819 4.28662H62.4777L68.7065 12.4913V4.28662H71.6033V17.5815H69.1251L62.5781 9.15918V17.5815H59.7819V4.28662Z" fill="#151515"/>
<path d="M80.4441 4.18604H83.14L88.8497 17.5814H85.8358L84.5967 14.5674H78.9874L77.7483 17.5814H74.7344L80.4441 4.18604ZM83.5586 12.0725L81.8004 7.71906L80.0423 12.0725H83.5586Z" fill="#151515"/>
<path d="M91.9641 4.28662H94.6599L100.889 12.4913V4.28662H103.802V17.5815H101.307L94.8609 9.15918V17.5815H91.9641V4.28662Z" fill="#151515"/>
<path d="M114.385 17.7822C113.447 17.7822 112.509 17.5813 111.689 17.2631C110.031 16.5431 108.775 15.2873 108.055 13.6296C107.737 12.7924 107.536 11.8715 107.536 10.9338C107.536 9.17568 108.256 7.4008 109.512 6.06127C110.131 5.44173 110.868 4.92266 111.689 4.60452C112.626 4.18592 113.564 4.08545 114.485 4.08545C115.004 4.08545 115.624 4.08545 116.143 4.18592C116.662 4.28638 117.08 4.38685 117.499 4.60452C117.918 4.80545 118.336 5.02313 118.638 5.22406C118.956 5.42499 119.358 5.74313 119.676 6.06127L117.918 8.23801C117.398 7.81941 116.879 7.4008 116.36 7.0994C115.841 6.79801 115.222 6.6808 114.602 6.6808C114.083 6.6808 113.564 6.78126 113.045 6.99894C112.526 7.19987 112.107 7.51801 111.806 7.93661C111.505 8.35522 111.186 8.77382 110.969 9.29289C110.768 9.81196 110.651 10.331 110.651 10.8501C110.651 11.3692 110.751 11.9887 110.969 12.5078C111.186 13.0268 111.387 13.4454 111.806 13.8641C112.526 14.7013 113.564 15.1031 114.602 15.1031C115.222 15.1031 115.958 15.0027 116.578 14.6845C117.097 14.3664 117.717 13.9645 118.135 13.5459L119.994 15.4045C119.676 15.7227 119.274 16.1245 118.956 16.4427C118.537 16.7608 118.118 16.9617 117.717 17.1627C117.298 17.3636 116.779 17.5813 116.26 17.6817C115.523 17.7822 114.904 17.7822 114.385 17.7822Z" fill="#151515"/>
<path d="M123.326 4.28662H133.289V6.88197H126.122V9.57779H132.452V12.1731H126.122V14.9862H133.389V17.5815H123.326V4.28662Z" fill="#151515"/>
<path d="M41.0785 30.6586C40.3585 30.6586 39.6217 30.5581 39.0022 30.24C38.3826 30.0391 37.7631 29.6204 37.1268 29.1014L38.165 27.9628C38.5836 28.3814 39.0022 28.5823 39.5212 28.9004C40.0403 29.1014 40.5594 29.2186 41.0785 29.2186C41.4971 29.2186 41.9157 29.1181 42.3175 28.9004C42.6357 28.6995 42.7361 28.3814 42.7361 28.0632C42.7361 27.9628 42.7361 27.7451 42.6357 27.6446C42.5352 27.5442 42.4347 27.3265 42.3175 27.226C42.1166 27.1256 41.8989 27.0251 41.698 26.9079C41.3799 26.8074 40.978 26.707 40.6599 26.5897C40.2413 26.4893 39.7222 26.3888 39.3036 26.1711C38.9854 26.0707 38.5836 25.853 38.3659 25.6521C38.165 25.4511 37.9473 25.2335 37.7464 24.9321C37.5454 24.5135 37.5454 24.0949 37.5454 23.7935C37.5454 23.3749 37.6459 23.0735 37.7464 22.6549C37.8468 22.3367 38.165 22.0353 38.3659 21.8177C38.684 21.6167 38.9854 21.3991 39.404 21.2986C39.8226 21.1981 40.2412 21.0977 40.6431 21.0977C41.2626 21.0977 41.8822 21.1981 42.5185 21.4158C43.0375 21.6167 43.5566 21.9349 44.0757 22.253L43.2385 23.4921C42.8199 23.1739 42.4013 22.973 41.9994 22.7721C41.5808 22.5711 41.1622 22.5711 40.7603 22.5711C40.3417 22.5711 39.9231 22.6716 39.6217 22.8893C39.4208 23.0902 39.2031 23.4084 39.2031 23.7265C39.2031 23.9274 39.2031 24.0446 39.3036 24.2456C39.404 24.346 39.5045 24.5637 39.6217 24.6642C39.8226 24.7646 40.0403 24.8651 40.3417 24.9823C40.6599 25.0828 40.9612 25.1832 41.4803 25.3004C41.8989 25.4009 42.3175 25.5014 42.8366 25.7191C43.1547 25.8195 43.4561 26.0372 43.7743 26.2381C43.9752 26.4391 44.1929 26.7572 44.2933 26.9581C44.3938 27.2763 44.4943 27.5777 44.4943 27.9963C44.4943 28.4149 44.3938 28.8335 44.2933 29.1349C44.0924 29.453 43.8747 29.7544 43.5733 30.0725C43.2552 30.2735 42.9538 30.4911 42.5352 30.5916C42.0161 30.5581 41.4971 30.6586 41.0785 30.6586Z" fill="#151515"/>
<path d="M46.2693 21.2148H48.0442L50.8404 25.5683L53.7539 21.2148H55.5121V30.5581H53.8544V23.8102L50.9409 28.1637H50.8404L47.9437 23.8102V30.5581H46.2693V21.2148Z" fill="#151515"/>
<path d="M61.1213 21.1143H62.6785L66.7306 30.4575H64.9725L64.0348 28.1803H59.6813L58.7436 30.4575H57.0859L61.1213 21.1143ZM63.5157 26.824L61.858 23.0901L60.3008 26.824H63.5157Z" fill="#151515"/>
<path d="M68.3883 21.2148H72.5409C73.0599 21.2148 73.579 21.3153 74.0981 21.4158C74.5167 21.5162 74.9353 21.8344 75.2367 22.1358C75.4376 22.3367 75.6553 22.6548 75.8562 23.0734C75.9567 23.3916 76.0571 23.7934 76.0571 24.2121C76.0571 24.5302 75.9567 24.932 75.8562 25.2502C75.7558 25.5683 75.5381 25.7693 75.4376 26.0874C75.2367 26.2883 75.019 26.506 74.7176 26.7069C74.3995 26.9079 74.0981 27.0251 73.7799 27.1255L76.2748 30.6586H74.299L72.0218 27.4437H69.9455V30.6586H68.2878L68.3883 21.2148ZM72.4404 25.786C72.9595 25.786 73.4785 25.6855 73.7967 25.3674C74.1148 25.0493 74.3157 24.6474 74.3157 24.2288C74.3157 23.8102 74.1148 23.3916 73.7967 23.0902C73.3781 22.7721 72.859 22.6716 72.3399 22.6716H69.9455V25.786H72.4404Z" fill="#151515"/>
<path d="M80.3268 22.6716H77.3129V21.2148H84.898V22.6716H81.884V30.5581H80.2264L80.3268 22.6716Z" fill="#151515"/>
<path d="M94.9781 30.6586C94.3586 30.6586 93.739 30.5581 93.1027 30.24C91.9641 29.7209 91.0265 28.8837 90.6079 27.7451C90.4069 27.1256 90.1892 26.5061 90.2897 25.8698C90.2897 25.2502 90.3902 24.6307 90.6079 23.9944C91.0265 22.8558 91.9641 21.9181 93.1027 21.3991C93.7223 21.1981 94.3418 20.9805 95.0786 20.9805C95.4972 20.9805 95.9158 20.9805 96.2172 21.0809C96.5353 21.1814 96.8367 21.2819 97.1548 21.3991C97.473 21.4995 97.6739 21.7172 97.992 21.8177C98.193 22.0186 98.5111 22.2363 98.712 22.4372L97.6739 23.6763C97.3558 23.3581 96.9539 23.0567 96.5353 22.8391C96.1167 22.6381 95.5976 22.5209 95.0786 22.5209C94.66 22.5209 94.2413 22.6214 93.8395 22.7219C93.4209 22.9228 93.1195 23.1405 92.8013 23.4419C92.4832 23.76 92.2823 24.0614 92.1818 24.48C92.0814 24.8986 91.9809 25.3172 91.9809 25.7191C91.9809 26.1377 92.0814 26.5563 92.1818 26.9581C92.2823 27.36 92.4999 27.6781 92.8013 27.9963C93.1195 28.3144 93.4209 28.5154 93.8395 28.7163C94.2581 28.9172 94.6767 29.0344 95.0786 28.9172C95.5976 28.9172 96.1167 28.8167 96.5353 28.5991C96.9539 28.3981 97.3725 28.08 97.7744 27.6614L98.8125 28.6995C98.6116 28.9005 98.2934 29.2186 98.0925 29.4195C97.7744 29.6205 97.5734 29.8381 97.2553 29.9386C96.9372 30.0391 96.6358 30.2568 96.2172 30.2568C95.7986 30.6586 95.3799 30.6586 94.9781 30.6586Z" fill="#151515"/>
<path d="M100.47 21.2148H102.027V25.0493H106.498V21.2148H108.156V30.5581H106.498V26.6065H102.027V30.5581H100.47V21.2148Z" fill="#151515"/>
<path d="M113.866 21.1143H115.423L119.475 30.4575H117.717L116.779 28.1803H112.426L111.488 30.4575H109.83L113.866 21.1143ZM116.16 26.824L114.602 23.0901L113.045 26.824H116.16Z" fill="#151515"/>
<path d="M121.132 21.2148H122.807V30.5581H121.132V21.2148Z" fill="#151515"/>
<path d="M125.285 21.2148H126.742L131.732 27.6446V21.2148H133.389V30.5581H132.033L126.959 23.9107V30.5581H125.285V21.2148Z" fill="#151515"/>
<path d="M19.0767 29.9387V33.9908L15.5436 36.0671L12.1111 33.9908V29.9387L15.5436 32.015L19.0767 29.9387ZM0.172485 15.9238L3.60504 18.0001V24.9489L9.51574 28.4819V32.534L0.172485 27.0252V15.9238ZM30.9148 15.9238V27.0419L21.4711 32.5508V28.4987L27.3818 24.9657V18.0168L30.9148 15.9238ZM21.4543 10.415L24.9874 12.4912V16.5433L19.0767 20.0764V27.1257L15.6441 29.2019L12.2283 27.1257V20.0596L6.09993 16.5266V12.4745L9.63295 10.3982L15.5436 13.9312L21.4543 10.415ZM6.09993 19.4401L9.53249 21.5164V25.5685L6.09993 23.4922V19.4401ZM24.9874 19.4401V23.4922L21.5548 25.5685V21.5164L24.9874 19.4401ZM3.60504 6.88194L7.13807 8.95822L3.60504 11.0345V15.0866L0.172485 13.0103V8.95822L3.60504 6.88194ZM27.4823 6.88194L31.0153 8.95822V13.0103L27.4823 15.0866V11.0345L24.0497 8.95822L27.4823 6.88194ZM15.5436 6.88194L19.0767 8.95822L15.5436 11.0345L12.1111 8.95822L15.5436 6.88194ZM15.5436 -0.0668945L24.9874 5.44194L21.5548 7.51822L15.6441 3.9852L9.61621 7.51822L6.18365 5.44194L15.5436 -0.0668945Z" fill="#151515"/>
</g>
<defs>
<clipPath id="clip0_2450_4641">
<rect width="133.284" height="36" fill="white" transform="translate(0.105469)"/>
</clipPath>
</defs>
</svg>
