<svg width="129" height="36" viewBox="0 0 129 36" fill="none" xmlns="http://www.w3.org/2000/svg">
<g clip-path="url(#clip0_2450_4553)">
<path d="M39.3988 20.1852C39.3988 20.4011 39.2179 20.5768 39.0018 20.5768H31.3528C31.5438 22.4646 32.966 24.1866 34.9662 24.1866C36.3332 24.1866 37.3484 23.6645 38.1123 22.575C38.2228 22.4244 38.3887 22.329 38.5998 22.4194C38.7154 22.4696 38.7958 22.575 38.8159 22.6955C38.836 22.821 38.8008 22.8913 38.7656 22.9616C37.9967 24.3021 36.4639 24.9598 34.9612 24.9598C32.3881 24.9598 30.5537 22.6604 30.5537 20.2002C30.5537 17.7401 32.3881 15.4406 34.9612 15.4406C37.5343 15.4356 39.3938 17.7301 39.3988 20.1852ZM38.5797 19.8136C38.4138 17.9259 36.9664 16.2038 34.9662 16.2038C32.966 16.2038 31.5438 17.9259 31.3528 19.8136H38.5797ZM48.6812 15.6264C48.9023 15.6264 49.0631 15.8172 49.0631 16.008C49.0631 16.2289 48.8973 16.3895 48.6812 16.3895H46.6307V24.4276C46.6307 24.6184 46.4649 24.8092 46.2488 24.8092C46.0277 24.8092 45.8668 24.6184 45.8668 24.4276V16.3895H43.8968C43.6757 16.3895 43.5148 16.2239 43.5148 16.008C43.5148 15.8172 43.6807 15.6264 43.8968 15.6264H45.8668V12.6843C45.8668 12.4985 45.9925 12.3278 46.1734 12.2977C46.4297 12.2575 46.6307 12.4333 46.6307 12.6742V15.6264H48.6812ZM61.19 19.5124V24.3825C61.19 24.6034 60.999 24.764 60.8081 24.764C60.5869 24.764 60.4261 24.5983 60.4261 24.3825V19.5124C60.4261 17.8706 59.4964 16.2289 57.662 16.2289C55.31 16.2289 54.2948 18.2823 54.4305 20.386C54.4305 20.4412 54.4557 20.6872 54.4557 20.7123V24.3674C54.4557 24.5532 54.33 24.7239 54.1491 24.754C53.8928 24.7942 53.6918 24.6184 53.6918 24.3774V8.38157C53.6918 8.19078 53.8576 8 54.0737 8C54.2948 8 54.4557 8.19078 54.4557 8.38157V17.4338C55.114 16.259 56.29 15.4657 57.657 15.4657C59.9035 15.4657 61.19 17.4338 61.19 19.5124ZM74.905 20.1852C74.905 20.4011 74.7241 20.5768 74.508 20.5768H66.8539C67.0449 22.4646 68.4671 24.1866 70.4674 24.1866C71.8343 24.1866 72.8495 23.6645 73.6134 22.575C73.724 22.4244 73.8898 22.329 74.1009 22.4194C74.2165 22.4696 74.2969 22.575 74.317 22.6955C74.3371 22.821 74.3019 22.8913 74.2667 22.9616C73.4978 24.3021 71.965 24.9598 70.4623 24.9598C67.8892 24.9598 66.0548 22.6604 66.0548 20.2002C66.0548 17.7401 67.8892 15.4406 70.4623 15.4406C73.0405 15.4356 74.9 17.7301 74.905 20.1852ZM74.0808 19.8136C73.9149 17.9259 72.4676 16.2038 70.4674 16.2038C68.4671 16.2038 67.0449 17.9259 66.8539 19.8136H74.0808ZM84.2929 15.9829C84.2929 16.2289 84.1572 16.3644 83.9361 16.3946C81.6896 16.7209 80.6795 18.5535 80.6795 20.6872V24.3423C80.6795 24.5281 80.5538 24.6988 80.3729 24.7289C80.1166 24.769 79.9156 24.5933 79.9156 24.3523V16.023C79.9156 15.8373 80.0412 15.6666 80.2221 15.6364C80.4784 15.5963 80.6795 15.772 80.6795 16.013V17.71C81.3077 16.6456 82.5691 15.6314 83.8808 15.6314C84.0718 15.6264 84.2929 15.767 84.2929 15.9829ZM96.857 20.1852C96.857 20.4011 96.6761 20.5768 96.46 20.5768H88.8109C89.0019 22.4646 90.4242 24.1866 92.4244 24.1866C93.7913 24.1866 94.8065 23.6645 95.5704 22.575C95.681 22.4244 95.8468 22.329 96.0579 22.4194C96.1735 22.4696 96.2539 22.575 96.274 22.6955C96.2941 22.821 96.2589 22.8913 96.2238 22.9616C95.4548 24.3021 93.922 24.9598 92.4193 24.9598C89.8462 24.9598 88.0119 22.6604 88.0119 20.2002C88.0119 17.7401 89.8462 15.4406 92.4193 15.4406C94.9925 15.4356 96.852 17.7301 96.857 20.1852ZM96.0378 19.8136C95.872 17.9259 94.4246 16.2038 92.4244 16.2038C90.4242 16.2038 89.0019 17.9259 88.8109 19.8136H96.0378ZM109.205 16.0783V24.4276C109.205 24.6486 109.014 24.8092 108.823 24.8092C108.602 24.8092 108.441 24.6435 108.441 24.4276V22.8411C107.813 24.1013 106.687 25 105.265 25C102.993 25 101.732 23.0319 101.732 20.9533V16.0582C101.732 15.8674 101.898 15.6766 102.114 15.6766C102.335 15.6766 102.496 15.8674 102.496 16.0582V20.9533C102.496 22.5951 103.426 24.2369 105.26 24.2369C107.833 24.2369 108.436 21.832 108.436 19.176V16.0582C108.436 15.8373 108.657 15.6113 108.929 15.6917C109.094 15.7469 109.205 15.9076 109.205 16.0783ZM128.554 19.4823V24.3774C128.554 24.5983 128.363 24.759 128.172 24.759C127.951 24.759 127.79 24.5933 127.79 24.3774V19.4823C127.79 17.8405 126.86 16.2289 125.026 16.2289C122.724 16.2289 121.85 18.689 121.85 20.6019V24.3774C121.85 24.5983 121.659 24.759 121.468 24.759C121.246 24.759 121.086 24.5933 121.086 24.3774V19.4823C121.086 17.8405 120.156 16.2289 118.322 16.2289C115.995 16.2289 115.035 18.0614 115.12 20.4965C115.12 20.5517 115.145 20.6621 115.12 20.6872V24.3674C115.12 24.5532 114.995 24.7239 114.809 24.754C114.552 24.7942 114.351 24.6184 114.351 24.3774V16.023C114.351 15.8373 114.477 15.6666 114.658 15.6364C114.914 15.5963 115.115 15.772 115.115 16.013V17.4087C115.773 16.2339 116.95 15.4657 118.316 15.4657C119.874 15.4657 121.081 16.4498 121.573 17.9008C122.201 16.4799 123.433 15.4657 125.021 15.4657C127.267 15.4657 128.554 17.4037 128.554 19.4823Z" fill="#151515" stroke="#151515" stroke-width="0.5"/>
<g opacity="0.6">
<mask id="mask0_2450_4553" style="mask-type:luminance" maskUnits="userSpaceOnUse" x="0" y="13" width="23" height="12">
<path d="M0.659912 13.313H22.7627V24.8706H0.659912V13.313Z" fill="white"/>
</mask>
<g mask="url(#mask0_2450_4553)">
<path d="M11.714 13.313L0.6604 18.3401L11.714 24.8706L22.7632 18.3401L11.714 13.313Z" fill="#151515"/>
</g>
</g>
<g opacity="0.45">
<mask id="mask1_2450_4553" style="mask-type:luminance" maskUnits="userSpaceOnUse" x="0" y="0" width="12" height="25">
<path d="M0.659912 0H11.7135V24.8706H0.659912V0Z" fill="white"/>
</mask>
<g mask="url(#mask1_2450_4553)">
<path d="M0.6604 18.3401L11.714 24.8706V0L0.6604 18.3401Z" fill="#151515"/>
</g>
</g>
<g opacity="0.8">
<mask id="mask2_2450_4553" style="mask-type:luminance" maskUnits="userSpaceOnUse" x="11" y="0" width="12" height="25">
<path d="M11.7161 0H22.7696V24.8706H11.7161V0Z" fill="white"/>
</mask>
<g mask="url(#mask2_2450_4553)">
<path d="M11.7156 0V24.8706L22.7648 18.3401L11.7156 0Z" fill="#151515"/>
</g>
</g>
<g opacity="0.45">
<mask id="mask3_2450_4553" style="mask-type:luminance" maskUnits="userSpaceOnUse" x="0" y="20" width="12" height="17">
<path d="M0.659912 20.4346H11.7135V36.0069H0.659912V20.4346Z" fill="white"/>
</mask>
<g mask="url(#mask3_2450_4553)">
<path d="M0.6604 20.4346L11.714 36.0069V26.965L0.6604 20.4346Z" fill="#151515"/>
</g>
</g>
<g opacity="0.8">
<mask id="mask4_2450_4553" style="mask-type:luminance" maskUnits="userSpaceOnUse" x="11" y="20" width="12" height="17">
<path d="M11.7161 20.4346H22.774V36.0069H11.7161V20.4346Z" fill="white"/>
</mask>
<g mask="url(#mask4_2450_4553)">
<path d="M11.7156 26.965V36.0069L22.7735 20.4346L11.7156 26.965Z" fill="#151515"/>
</g>
</g>
</g>
<defs>
<clipPath id="clip0_2450_4553">
<rect width="128" height="36" fill="white" transform="translate(0.553711)"/>
</clipPath>
</defs>
</svg>
