<svg width="158" height="36" viewBox="0 0 158 36" fill="none" xmlns="http://www.w3.org/2000/svg">
<g clip-path="url(#clip0_2450_4602)">
<path opacity="0.5" d="M19.8697 20.7352L18.1403 25.4881C18.0668 25.6294 18.0668 25.7763 18.1403 25.9176L21.1639 34.1236L24.6169 32.106L20.4405 20.7352C20.3726 20.447 20.011 20.447 19.8697 20.7352Z" fill="#151515"/>
<path opacity="0.5" d="M23.3223 12.6761C23.2489 12.3879 22.8928 12.3879 22.7459 12.6761L21.0165 17.429C20.9431 17.5703 20.9431 17.7173 21.0165 17.8585L25.9107 31.3204L29.3638 29.3028L23.3223 12.6761Z" fill="#151515"/>
<path d="M17.1337 2.23722C17.2072 2.23722 17.275 2.23722 17.3485 2.31069L30.5899 9.9402C30.7312 10.0137 30.8047 10.155 30.8047 10.3697V25.6287C30.8047 25.77 30.7312 25.9904 30.5899 26.0583L17.3485 33.6878C17.275 33.7612 17.2072 33.7612 17.1337 33.7612C17.0603 33.7612 16.9925 33.7612 16.919 33.6878L3.67755 26.0583C3.53626 25.9848 3.46279 25.8435 3.46279 25.6287V10.3697C3.46279 10.2284 3.53626 10.008 3.67755 9.9402L16.919 2.31069C16.9868 2.23722 17.0603 2.23722 17.1337 2.23722ZM17.1337 0.00488281C16.6308 0.00488281 16.1956 0.14617 15.7661 0.366578L2.52464 7.99609C1.65997 8.49907 1.15698 9.36375 1.15698 10.3697V25.6287C1.15698 26.5669 1.65997 27.4994 2.52464 28.0024L15.7661 35.6319C16.1956 35.8466 16.6308 35.9936 17.1337 35.9936C17.6367 35.9936 18.0719 35.8523 18.5014 35.6319L31.7429 28.0024C32.6075 27.4994 33.1105 26.6347 33.1105 25.6287V10.3697C33.1105 9.43157 32.6075 8.49907 31.7429 7.99609L18.5692 0.366578C18.1397 0.151822 17.7045 0.00488281 17.2016 0.00488281H17.1337Z" fill="#151515"/>
<path d="M16.0535 9.29053H12.6683C12.4535 9.29053 12.1653 9.43182 12.0918 9.65222L4.89746 29.3703L8.35052 31.3879L16.2683 9.72004C16.3417 9.50528 16.1948 9.29053 15.98 9.29053H16.0535Z" fill="#151515"/>
<path d="M21.8801 9.29047H18.4949C18.2801 9.29047 17.9919 9.43176 17.9185 9.65217L9.71814 32.1055L13.1712 34.1231L22.0949 9.65217C22.1684 9.43741 22.0214 9.22266 21.8067 9.22266L21.8801 9.29047Z" fill="#151515"/>
<path d="M49.384 13C49.7972 13 50.1264 13.0839 50.3717 13.2453C50.617 13.4067 50.8624 13.7359 51.1141 14.1491L56.1301 23.1934C56.2141 23.2773 56.2141 23.3548 56.1301 23.4387C56.1301 23.5226 56.0462 23.5226 55.8848 23.5226H53.9933C53.8319 23.5226 53.748 23.4387 53.6641 23.3613L52.586 21.3858H45.5171L44.4455 23.3613C44.3616 23.5226 44.2841 23.5226 44.1162 23.5226H42.1408C41.9794 23.5226 41.8955 23.5226 41.8955 23.4387C41.8955 23.3548 41.8955 23.2773 41.8955 23.1934L46.8276 14.1491C47.0729 13.6585 47.3182 13.4067 47.57 13.2453C47.8218 13.0839 48.0606 13 48.3899 13H49.2936H49.384ZM46.4209 19.6622H51.5983L49.2162 15.2207C49.1322 15.1368 49.1322 15.1368 49.0548 15.1368H48.9709C48.8869 15.1368 48.8095 15.1368 48.8095 15.2207L46.4209 19.6622Z" fill="#151515"/>
<path d="M67.0595 13C68.2086 13 69.0349 13.2453 69.5255 13.8199C70.0161 14.3105 70.2679 15.1368 70.2679 16.1245V16.9444C70.2679 17.8482 70.1065 18.5066 69.7773 18.9973C69.448 19.4879 68.8735 19.8171 68.0536 19.985L70.6036 23.1934C70.6875 23.2773 70.6875 23.3548 70.6875 23.4387C70.6875 23.5226 70.6036 23.6001 70.4422 23.6001H68.4668C68.3054 23.6001 68.2215 23.6001 68.2215 23.5162C68.1375 23.5162 68.1375 23.4323 68.0601 23.3548L65.678 20.2303H60.8298V23.2709C60.8298 23.5162 60.7459 23.6001 60.5006 23.6001H58.8544C58.6091 23.6001 58.5251 23.5162 58.5251 23.2709V13.4906C58.5251 13.1614 58.6865 13 59.0158 13H67.1563H67.0595ZM60.8104 18.4227H66.5624C67.053 18.4227 67.4662 18.3388 67.634 18.0935C67.8793 17.8482 67.9632 17.5189 67.9632 17.1058V16.4473C67.9632 15.9567 67.8793 15.6274 67.634 15.4596C67.3887 15.2143 67.0595 15.1304 66.5624 15.1304H60.9718C60.8104 15.1304 60.8104 15.2143 60.8104 15.2917V18.4227Z" fill="#151515"/>
<path d="M82.9275 13C83.9991 13 84.735 13.2453 85.1482 13.6585C85.5613 14.0716 85.8067 14.7301 85.8067 15.55V16.2924C85.8067 17.1122 85.4774 17.7707 84.8189 18.1839C85.4774 18.597 85.8906 19.2555 85.8906 20.1593V21.0631C85.8906 21.4762 85.8067 21.8055 85.7292 22.1347C85.6517 22.4639 85.4839 22.7092 85.316 22.9546C85.0707 23.1999 84.8254 23.3677 84.4962 23.4452C84.1669 23.5291 83.7538 23.6066 83.2631 23.6066H74.3028C73.9735 23.6066 73.8121 23.4452 73.8121 23.1159V13.4971C73.8121 13.1678 73.9735 13.0065 74.3028 13.0065H83.0178H82.9275V13ZM76.1039 17.3575H82.269C82.7596 17.3575 83.0888 17.2736 83.2567 17.1122C83.4245 16.9508 83.502 16.783 83.502 16.4538V15.9631C83.502 15.6339 83.4181 15.3886 83.2567 15.3047C83.0953 15.1433 82.7661 15.0593 82.4368 15.0593H76.2717C76.1103 15.0593 76.1103 15.1433 76.1103 15.2207V17.3575H76.1039ZM76.1039 19.0037V21.2244C76.1039 21.3858 76.1878 21.3858 76.2653 21.3858H82.4304C82.8435 21.3858 83.0888 21.3019 83.2502 21.1405C83.4116 20.9791 83.4956 20.7274 83.4956 20.4821V19.9075C83.4956 19.5783 83.4116 19.333 83.2502 19.1651C83.0888 18.9973 82.7596 18.9198 82.1786 18.9198H76.0199L76.1039 19.0037Z" fill="#151515"/>
<path d="M91.4747 13C91.72 13 91.8039 13.0839 91.8039 13.3292V23.1934C91.8039 23.4387 91.72 23.5226 91.4747 23.5226H89.8285C89.5832 23.5226 89.4993 23.4387 89.4993 23.1934V13.3292C89.4993 13.0839 89.5832 13 89.8285 13H91.4747Z" fill="#151515"/>
<path d="M107.343 13C107.588 13 107.672 13.0839 107.672 13.3292V14.8076C107.672 15.0529 107.588 15.1368 107.343 15.1368H102.572V23.1934C102.572 23.4387 102.488 23.5226 102.243 23.5226H100.596C100.351 23.5226 100.267 23.4387 100.267 23.1934V15.1368H95.4965C95.2512 15.1368 95.1672 15.0529 95.1672 14.8076V13.3292C95.1672 13.0839 95.2512 13 95.4965 13H107.252H107.343Z" fill="#151515"/>
<path d="M119.266 13C120.415 13 121.241 13.2453 121.732 13.8199C122.223 14.3105 122.474 15.1368 122.474 16.1245V16.9444C122.474 17.8482 122.313 18.5066 121.984 18.9973C121.655 19.4879 121.08 19.8171 120.26 19.985L122.81 23.1934C122.894 23.2773 122.894 23.3548 122.894 23.4387C122.894 23.5226 122.81 23.6001 122.649 23.6001H120.673C120.512 23.6001 120.428 23.6001 120.428 23.5162C120.344 23.5162 120.344 23.4323 120.267 23.3548L117.885 20.2303H113.036V23.2709C113.036 23.5162 112.952 23.6001 112.707 23.6001H111.061C110.816 23.6001 110.732 23.5162 110.732 23.2709V13.4906C110.732 13.1614 110.893 13 111.222 13H119.363H119.266ZM113.017 18.4227H118.769C119.26 18.4227 119.673 18.3388 119.841 18.0935C120.086 17.8482 120.17 17.5189 120.17 17.1058V16.4473C120.17 15.9567 120.086 15.6274 119.841 15.4596C119.595 15.2143 119.266 15.1304 118.769 15.1304H113.178C113.017 15.1304 113.017 15.2143 113.017 15.2917V18.4227Z" fill="#151515"/>
<path d="M127.736 13C127.981 13 128.065 13.0839 128.065 13.3292V19.333C128.065 19.7461 128.065 20.0753 128.149 20.3207C128.233 20.566 128.31 20.8113 128.478 20.9791C128.646 21.147 128.807 21.2244 129.053 21.3084C129.298 21.3923 129.627 21.3923 130.04 21.3923H134.237C134.65 21.3923 134.979 21.3923 135.224 21.3084C135.47 21.2244 135.715 21.147 135.799 20.9791C135.96 20.8177 136.044 20.566 136.128 20.3207C136.212 20.0753 136.212 19.7461 136.212 19.333V13.3292C136.212 13.0839 136.296 13 136.541 13H138.187C138.433 13 138.517 13.0839 138.517 13.3292V19.5783C138.517 20.3207 138.433 20.8952 138.271 21.3858C138.11 21.8765 137.858 22.2896 137.529 22.6189C137.2 22.9481 136.787 23.1934 136.212 23.2773C135.637 23.4387 135.063 23.5226 134.237 23.5226H129.879C129.137 23.5226 128.478 23.4387 127.904 23.2773C127.413 23.1159 126.916 22.8642 126.587 22.6189C126.257 22.2896 126.012 21.8765 125.844 21.3858C125.683 20.8952 125.599 20.2367 125.599 19.5783V13.3292C125.599 13.0839 125.683 13 125.928 13H127.574H127.736Z" fill="#151515"/>
<path d="M144.998 13C145.243 13 145.411 13 145.573 13.0839C145.734 13.0839 145.902 13.1678 145.986 13.2453C146.07 13.3292 146.231 13.4067 146.315 13.5745C146.399 13.7359 146.476 13.9038 146.644 14.1491L149.769 21.3858C149.853 21.4698 149.853 21.5472 150.014 21.5472H150.176C150.259 21.5472 150.337 21.4633 150.421 21.3858L153.545 14.1491C153.629 13.9038 153.707 13.7359 153.875 13.5745C153.958 13.4132 154.036 13.3292 154.204 13.2453C154.288 13.1614 154.449 13.0839 154.617 13.0839C154.785 13.0839 154.946 13 155.192 13H156.838C157.328 13 157.741 13.0839 157.909 13.3292C158.071 13.5745 158.155 13.9877 158.155 14.5623V23.1934C158.155 23.4387 158.071 23.5226 157.825 23.5226H156.263C156.018 23.5226 155.934 23.4387 155.934 23.1934V15.3047C155.934 15.2207 155.85 15.1433 155.85 15.1433H155.689C155.605 15.1433 155.527 15.2272 155.527 15.2272L152.487 21.9668C152.403 22.2122 152.241 22.4575 152.073 22.6253C151.906 22.7932 151.828 22.9546 151.66 23.1159C151.499 23.1999 151.331 23.3613 151.17 23.3613C151.008 23.4452 150.757 23.4452 150.511 23.4452H149.769C149.523 23.4452 149.278 23.4452 149.11 23.3613C148.942 23.2773 148.781 23.1999 148.62 23.1159C148.458 23.032 148.374 22.8706 148.207 22.6253C148.045 22.4639 147.961 22.2122 147.793 21.9668L144.753 15.2272C144.753 15.1433 144.669 15.1433 144.591 15.1433H144.43C144.346 15.1433 144.346 15.2272 144.346 15.3047V23.1999C144.346 23.4452 144.262 23.5291 144.017 23.5291H142.448C142.203 23.5291 142.119 23.4452 142.119 23.1999V14.5623C142.119 13.9877 142.203 13.5745 142.364 13.3292C142.526 13.0839 142.939 13 143.436 13H145.082H144.998Z" fill="#151515"/>
</g>
<defs>
<clipPath id="clip0_2450_4602">
<rect width="157" height="36" fill="white" transform="translate(0.895508)"/>
</clipPath>
</defs>
</svg>
