<svg width="196" height="36" viewBox="0 0 196 36" fill="none" xmlns="http://www.w3.org/2000/svg">
<g clip-path="url(#clip0_2450_4595)">
<path fill-rule="evenodd" clip-rule="evenodd" d="M22.4329 26.1668L19.7812 23.4446C18.8434 24.352 17.8085 25.0974 16.709 25.7131C15.5449 26.2964 14.2513 26.5881 12.9578 26.5557C11.8906 26.5557 10.8235 26.3289 9.82099 25.8752C8.88318 25.4214 8.01005 24.8057 7.33094 24.0603C6.6195 23.2826 6.06975 22.3427 5.71403 21.3381C5.32597 20.2687 5.13193 19.1344 5.13193 18.0002C5.13193 16.8659 5.32597 15.764 5.71403 14.6946C6.10209 13.7224 6.65184 12.815 7.33094 12.0048C8.04238 11.227 8.88318 10.6113 9.82099 10.19C10.7911 9.73626 11.8583 9.50941 12.9578 9.50941C14.219 9.477 15.4802 9.76867 16.5797 10.352C17.6792 10.9353 18.6817 11.6483 19.5872 12.4909L22.2712 9.37978C21.7215 8.82886 21.1071 8.34274 20.4926 7.88904C19.8459 7.43534 19.1668 7.04646 18.423 6.72238C17.6469 6.3659 16.8061 6.10663 15.9653 5.9446C14.9951 5.75015 13.9926 5.65293 12.9901 5.68534C11.2762 5.65293 9.59462 6.00941 8.04238 6.65756C6.58716 7.2733 5.26129 8.18072 4.16179 9.31497C3.09462 10.4492 2.25383 11.7455 1.67174 13.2039C1.08965 14.727 0.766262 16.3798 0.798601 18.0326C0.798601 19.6853 1.08965 21.3381 1.70407 22.8613C2.28616 24.3196 3.1593 25.6483 4.22646 26.7826C5.32597 27.8844 6.6195 28.7918 8.04238 29.4076C9.56228 30.0557 11.2115 30.3798 12.8608 30.3798C13.8956 30.3798 14.8981 30.2826 15.9006 30.0881C16.7737 29.8937 17.6145 29.6344 18.3906 29.2455C19.1344 28.8566 19.8782 28.4353 20.5573 27.9168C21.1717 27.4307 21.8185 26.815 22.4329 26.1668Z" fill="#151515"/>
<path fill-rule="evenodd" clip-rule="evenodd" d="M76.2114 12.4584C76.2114 11.6482 76.5995 10.9028 77.2139 10.4167C77.893 9.86576 78.8308 9.60651 80.0597 9.60651C81.1592 9.60651 82.2263 9.83336 83.2612 10.2547C84.393 10.7408 85.4925 11.3565 86.4627 12.0695L88.694 8.89354C87.5298 7.95372 86.2039 7.17595 84.8134 6.65743C83.3258 6.1065 81.7413 5.84725 80.1567 5.87965C79.0572 5.87965 77.9577 6.04169 76.9229 6.36576C75.985 6.65743 75.1119 7.14354 74.4005 7.79169C73.689 8.40743 73.1393 9.1528 72.7512 9.99539C72.3308 10.8704 72.1044 11.8426 72.1368 12.8472C72.1044 13.8195 72.2985 14.7917 72.6542 15.6667C73.0099 16.4445 73.5273 17.0926 74.1741 17.6435C74.9179 18.2269 75.7587 18.6806 76.6318 19.0047C77.7313 19.3935 78.8631 19.7176 79.995 19.9769C80.9005 20.2037 81.8059 20.463 82.6791 20.7547C83.2612 20.9491 83.7786 21.2084 84.296 21.5648C84.6517 21.7917 84.9427 22.1158 85.1044 22.5047C85.2661 22.8611 85.3308 23.25 85.3308 23.6713C85.3631 24.5463 84.9427 25.3889 84.199 25.875C83.2935 26.4584 82.2263 26.75 81.1592 26.7176C79.801 26.75 78.4104 26.4584 77.1492 25.9074C75.888 25.2917 74.7238 24.5463 73.689 23.6065L71.1666 26.588C73.8184 29.0834 77.3433 30.4445 80.9975 30.4121C82.1617 30.4121 83.3258 30.25 84.4253 29.9259C85.3955 29.6343 86.301 29.1482 87.0771 28.5324C87.8209 27.9167 88.4029 27.1713 88.791 26.2963C89.2114 25.3241 89.4054 24.3195 89.4054 23.25C89.4054 22.3426 89.2437 21.4676 88.9204 20.625C88.597 19.8797 88.1119 19.1991 87.4975 18.6806C86.786 18.0648 85.9776 17.5787 85.1044 17.2547C84.0373 16.8334 82.9378 16.4769 81.8059 16.1852C80.6741 15.9259 79.7363 15.6343 79.0248 15.4074C78.4104 15.213 77.8607 14.9537 77.3109 14.5972C76.9228 14.3704 76.6318 14.0139 76.4378 13.625C76.2761 13.2685 76.2114 12.8796 76.2114 12.4584Z" fill="#151515"/>
<path fill-rule="evenodd" clip-rule="evenodd" d="M122.391 12.7825V29.8288H126.497V6.07422H122.067L114.888 17.3196L107.709 6.07422H103.279V29.8288H107.386V12.8474L114.791 23.9955H114.92L122.391 12.7825Z" fill="#151515"/>
<path fill-rule="evenodd" clip-rule="evenodd" d="M161.1 18.097C161.1 19.2313 160.905 20.3332 160.517 21.4026C160.162 22.4072 159.58 23.3146 158.868 24.0924C157.381 25.6804 155.311 26.5878 153.144 26.5554C152.045 26.5554 150.913 26.3285 149.91 25.8748C148.94 25.4211 148.067 24.8054 147.356 24.0276C146.644 23.2498 146.062 22.31 145.706 21.3054C144.898 19.1665 144.898 16.8332 145.706 14.6943C146.062 13.6896 146.612 12.7822 147.323 12.0045C148.811 10.4165 150.881 9.50908 153.047 9.54149C154.147 9.54149 155.279 9.76834 156.281 10.222C157.251 10.6758 158.124 11.2915 158.836 12.0693C159.547 12.8471 160.129 13.7869 160.517 14.7915C160.905 15.8285 161.1 16.9628 161.1 18.097ZM165.465 17.9998C165.465 16.347 165.174 14.7267 164.56 13.2035C163.978 11.7452 163.137 10.4165 162.037 9.28223C160.938 8.14797 159.612 7.24056 158.157 6.62482C156.572 5.94427 154.858 5.62019 153.144 5.6526C149.781 5.62019 146.547 6.94889 144.187 9.34704C143.055 10.4813 142.182 11.81 141.599 13.3008C140.371 16.3795 140.371 19.7822 141.599 22.8609C142.182 24.3193 143.055 25.648 144.122 26.7822C145.221 27.9165 146.547 28.8239 148.002 29.4396C149.587 30.1202 151.301 30.4443 153.015 30.4119C154.729 30.4443 156.443 30.0878 158.027 29.4072C159.515 28.7915 160.841 27.8517 161.94 26.7174C163.072 25.5832 163.945 24.2545 164.527 22.7637C165.174 21.273 165.465 19.6526 165.465 17.9998Z" fill="#151515"/>
<path fill-rule="evenodd" clip-rule="evenodd" d="M182.766 12.4584C182.766 11.6482 183.154 10.9028 183.769 10.4167C184.448 9.86577 185.386 9.60651 186.614 9.60651C187.714 9.60651 188.781 9.83336 189.816 10.2547C190.948 10.7408 192.047 11.3565 193.017 12.0695L195.249 8.89354C194.085 7.95372 192.759 7.20836 191.368 6.65743C189.881 6.1065 188.296 5.84725 186.711 5.87965C185.612 5.87965 184.512 6.04169 183.478 6.36576C182.54 6.65743 181.667 7.14354 180.955 7.79169C180.244 8.40743 179.694 9.1528 179.306 9.99539C178.886 10.8704 178.659 11.8426 178.691 12.8472C178.659 13.8195 178.853 14.7917 179.209 15.6667C179.565 16.4445 180.082 17.0926 180.729 17.6435C181.473 18.2269 182.313 18.6806 183.187 19.0047C184.286 19.3935 185.418 19.7176 186.55 19.9769C187.455 20.2037 188.361 20.463 189.234 20.7547C189.816 20.9491 190.333 21.2084 190.851 21.5648C191.206 21.7917 191.497 22.1158 191.659 22.5047C191.821 22.8611 191.886 23.25 191.886 23.6713C191.918 24.5463 191.497 25.3889 190.754 25.875C189.848 26.4584 188.781 26.75 187.714 26.7176C186.356 26.75 184.965 26.4584 183.736 25.9074C182.475 25.2917 181.311 24.5463 180.276 23.6065L177.786 26.6204C180.438 29.1158 183.963 30.4769 187.617 30.4445C188.781 30.4445 189.945 30.2824 191.045 29.9584C192.015 29.6667 192.92 29.1806 193.696 28.5648C194.44 27.9491 195.022 27.2037 195.41 26.3287C195.831 25.3565 196.025 24.3195 196.025 23.2824C196.025 22.375 195.863 21.5 195.54 20.6574C195.216 19.9121 194.731 19.2315 194.117 18.713C193.405 18.0972 192.597 17.6111 191.724 17.2871C190.657 16.8658 189.557 16.5093 188.425 16.2176C187.293 15.9584 186.356 15.6667 185.644 15.4398C185.03 15.2454 184.48 14.9537 183.93 14.5972C183.542 14.3704 183.251 14.0139 183.057 13.625C182.831 13.2685 182.766 12.8797 182.766 12.4584Z" fill="#151515"/>
<path fill-rule="evenodd" clip-rule="evenodd" d="M50.6964 10.8381L39.4104 22.1807C39.2487 21.8891 39.1193 21.5974 38.99 21.3057C38.2139 19.1993 38.2139 16.8659 38.99 14.727C39.378 13.7224 39.9278 12.815 40.6392 12.0372C41.3507 11.2594 42.1915 10.6437 43.1293 10.2224C44.1318 9.7687 45.2636 9.54185 46.3631 9.54185C47.4626 9.54185 48.5621 9.7687 49.5969 10.2224C50.0173 10.4168 50.3407 10.6113 50.6964 10.8381ZM49.694 25.8428C48.6915 26.2965 47.5596 26.5233 46.4601 26.5233C44.9402 26.5557 43.4527 26.102 42.1915 25.2594L53.4452 13.9168C53.6069 14.2085 53.7362 14.5002 53.8333 14.7919C54.6094 16.8983 54.6094 19.2317 53.8333 21.3706C53.4775 22.3752 52.9278 23.2826 52.2163 24.0604C51.5049 24.8381 50.6641 25.4215 49.694 25.8428ZM51.4079 29.4076C52.8631 28.7594 54.2213 27.852 55.3532 26.7178C56.4527 25.5835 57.3258 24.2548 57.9402 22.7965C59.1691 19.7502 59.1691 16.315 57.9402 13.2687C57.5845 12.3937 57.1641 11.5835 56.6144 10.8057L63.9552 3.41685L61.0447 0.467773L53.6716 7.88907C52.9925 7.40296 52.2487 7.01408 51.5049 6.72241C49.9203 6.07426 48.2064 5.71778 46.4925 5.75019C43.1616 5.71778 39.9278 7.04648 37.5994 9.41222C36.4999 10.5465 35.5945 11.8752 35.0124 13.3335C33.3954 17.2872 33.8805 21.8243 36.3706 25.3243L28.9974 32.6807L31.9079 35.6298L39.281 28.2085C39.9601 28.6622 40.6716 29.0511 41.4153 29.3752C42.9999 30.0233 44.7139 30.3798 46.4278 30.3474C48.1094 30.4122 49.8233 30.0557 51.4079 29.4076Z" fill="#151515"/>
</g>
<defs>
<clipPath id="clip0_2450_4595">
<rect width="195" height="35" fill="white" transform="translate(0.895508 0.5)"/>
</clipPath>
</defs>
</svg>
