<svg width="230" height="230" viewBox="0 0 230 230" fill="none" xmlns="http://www.w3.org/2000/svg">
<g opacity="0.02">
<mask id="mask0_209_420" style="mask-type:alpha" maskUnits="userSpaceOnUse" x="0" y="0" width="230" height="230">
<rect width="230" height="230" fill="#D9D9D9"/>
</mask>
<g mask="url(#mask0_209_420)">
<path d="M115 172.5C99.507 172.5 86.25 167.229 75.2292 156.688C64.2083 146.146 58.2986 133.208 57.5 117.875L77.625 123.865C79.7014 132.49 84.1736 139.557 91.0417 145.068C97.9097 150.578 105.896 153.333 115 153.333C125.542 153.333 134.566 149.58 142.073 142.073C149.58 134.566 153.333 125.542 153.333 115C153.333 105.896 150.578 97.9098 145.068 91.0418C139.557 84.1737 132.49 79.7015 123.865 77.6251L117.875 57.5001C133.208 58.2987 146.146 64.2084 156.688 75.2293C167.229 86.2501 172.5 99.507 172.5 115C172.5 130.972 166.91 144.549 155.729 155.729C144.549 166.91 130.972 172.5 115 172.5ZM115 210.833C101.743 210.833 89.2847 208.318 77.625 203.287C65.9653 198.255 55.8229 191.427 47.1979 182.802C38.5729 174.177 31.7448 164.035 26.7135 152.375C21.6823 140.715 19.1667 128.257 19.1667 115V110.688C19.1667 109.25 19.3264 107.813 19.6458 106.375L38.3333 112.125V115C38.3333 136.403 45.7604 154.531 60.6146 169.386C75.4688 184.24 93.5972 191.667 115 191.667C136.403 191.667 154.531 184.24 169.385 169.386C184.24 154.531 191.667 136.403 191.667 115C191.667 93.5973 184.24 75.4688 169.385 60.6147C154.531 45.7605 136.403 38.3334 115 38.3334H112.125L106.375 19.6459C107.813 19.3265 109.25 19.1667 110.688 19.1667H115C128.257 19.1667 140.715 21.6824 152.375 26.7136C164.035 31.7449 174.177 38.573 182.802 47.198C191.427 55.823 198.255 65.9654 203.286 77.6251C208.318 89.2848 210.833 101.743 210.833 115C210.833 128.257 208.318 140.715 203.286 152.375C198.255 164.035 191.427 174.177 182.802 182.802C174.177 191.427 164.035 198.255 152.375 203.287C140.715 208.318 128.257 210.833 115 210.833ZM100.865 119.792L59.8958 78.823L47.9167 115L19.1667 19.1667L115 47.9167L78.8229 59.8959L119.792 100.865L100.865 119.792Z" fill="white"/>
</g>
</g>
</svg>
