<svg width="48" height="48" viewBox="0 0 48 48" fill="none" xmlns="http://www.w3.org/2000/svg">
<path d="M13.3668 4.22607C13.7942 3.87635 14.4242 3.93935 14.774 4.36679L18.774 9.25568C19.0186 9.55473 19.0691 9.96798 18.9037 10.3171C18.7382 10.6663 18.3864 10.8889 18 10.8889H16.4128L17.7674 12.3101C18.1484 12.7099 18.1332 13.3429 17.7334 13.7239C17.3336 14.1049 16.7006 14.0897 16.3196 13.69L13.3544 10.5788C13.0784 10.2892 13.0015 9.86295 13.159 9.49517C13.3166 9.1274 13.6782 8.88892 14.0783 8.88892H15.8898L13.2261 5.63327C12.8763 5.20582 12.9393 4.5758 13.3668 4.22607Z" fill="black"/>
<path d="M24 23C26.2091 23 28 21.2092 28 19C28 16.7909 26.2091 15 24 15C21.7909 15 20 16.7909 20 19C20 21.2092 21.7909 23 24 23Z" fill="black"/>
<path fill-rule="evenodd" clip-rule="evenodd" d="M30 28.3486C30.3757 28.4266 30.7795 28.5094 31.1822 28.5891C31.9257 28.7364 32.7028 28.8811 33.3077 28.967C33.5969 29.0081 33.9185 29.0465 34.1981 29.0538C34.3144 29.0568 34.5651 29.0602 34.841 29.0029C34.9649 28.9772 35.2759 28.9048 35.602 28.6848C35.985 28.4264 36.5 27.8656 36.5 26.9999C36.5 26.7733 36.4594 26.5823 36.4516 26.5455L36.4507 26.5413C36.4357 26.4688 36.4186 26.4004 36.4045 26.3466C36.3756 26.2365 36.3385 26.1094 36.2992 25.9794C36.2193 25.7154 36.1091 25.3712 35.9821 24.9838C35.727 24.2055 35.389 23.2064 35.0535 22.2255C34.7175 21.2429 34.3817 20.2717 34.1301 19.5466C34.0043 19.184 33.8994 18.8826 33.8259 18.6718L33.7102 18.3401C33.3457 17.2974 32.205 16.7476 31.1623 17.1121C30.1196 17.4766 29.5699 18.6176 29.9344 19.6603L29.9347 19.6613L30.0487 19.988C30.1217 20.1974 30.226 20.4971 30.3512 20.8579C30.6016 21.5798 30.9353 22.5449 31.2687 23.5198C31.3932 23.8837 31.5172 24.248 31.6367 24.6009C31.0335 24.4793 30.442 24.3548 29.9593 24.2532L29.9291 24.2468C29.646 24.1872 29.3957 24.1346 29.2103 24.0969C29.1187 24.0783 29.0319 24.061 28.96 24.0478C28.9253 24.0414 28.8811 24.0336 28.8357 24.0267C28.8134 24.0233 28.7791 24.0183 28.7389 24.0137L28.7378 24.0136C28.7122 24.0107 28.6179 23.9999 28.5 23.9999C28.0228 23.9999 27.653 24.1792 27.6222 24.1942L27.6203 24.1951C27.5132 24.2436 27.421 24.2949 27.3699 24.3238C27.2927 24.3675 27.1924 24.4278 27.1098 24.4774L27.0432 24.5173C26.8278 24.6459 26.5683 24.7962 26.2581 24.9436C25.6295 25.2424 24.8529 25.4999 24 25.4999C23.1468 25.4999 22.3689 25.2423 21.7396 24.9434C21.4293 24.796 21.1697 24.6458 20.9556 24.5177L20.8856 24.4757C20.8043 24.4268 20.7064 24.3679 20.632 24.3257C20.5819 24.2972 20.4902 24.246 20.3847 24.1977C20.3683 24.1895 19.9897 23.9999 19.5 23.9999C19.3772 23.9999 19.2788 24.0116 19.2531 24.0147L19.2516 24.0149C19.2106 24.0197 19.1758 24.025 19.1533 24.0286C19.1076 24.0358 19.0633 24.044 19.0287 24.0505C18.9571 24.0642 18.8703 24.0819 18.7791 24.1011C18.6045 24.1377 18.371 24.1881 18.1071 24.2452L18.0621 24.255C17.5859 24.3579 16.9995 24.4846 16.3994 24.6082C16.5072 24.3046 16.6185 23.9926 16.7307 23.6794C17.0134 22.8905 17.3091 22.0728 17.5608 21.377L17.5617 21.3744C17.8959 20.4506 18.1523 19.7418 18.1964 19.602C18.5289 18.5487 17.9446 17.4252 16.8913 17.0927C15.838 16.7601 14.7145 17.3444 14.382 18.3978C14.3839 18.3918 14.3838 18.392 14.3806 18.4012C14.3766 18.4128 14.3677 18.4388 14.3514 18.4849C14.3269 18.5544 14.2933 18.6483 14.2513 18.7652C14.1675 18.9986 14.054 19.3123 13.9202 19.6822L13.8654 19.8336C13.6068 20.5482 13.2842 21.4396 12.9651 22.3305C12.6235 23.2839 12.2824 24.2465 12.0257 24.9982C11.8979 25.3721 11.7864 25.7074 11.7052 25.9684C11.6652 26.0968 11.6267 26.2257 11.5964 26.3405C11.5815 26.3968 11.5634 26.4691 11.5476 26.5467L11.5468 26.5509C11.5373 26.5974 11.5 26.7798 11.5 26.9999C11.5 27.7595 11.9038 28.3099 12.2889 28.6093C12.6124 28.861 12.9326 28.9543 13.0736 28.9901C13.3725 29.0659 13.6441 29.0673 13.7665 29.0663C14.0611 29.0639 14.3945 29.0259 14.6859 28.9855C15.2983 28.9008 16.0814 28.7535 16.8261 28.6034C17.226 28.5228 17.6267 28.439 18 28.3596V32.2678C17.9017 32.3246 17.8078 32.39 17.7196 32.4635L14.7196 34.9635C14.1659 35.4249 13.9033 36.1486 14.0322 36.8577L15.0322 42.3577C15.2236 43.4103 16.2095 44.1259 17.2696 43.9817C18.3297 43.8374 19.0886 42.8844 18.9917 41.8189L18.5955 37.4609L18.6707 37.4072C22.8823 36.6009 25.2263 36.5958 29.3256 37.4047L29.4043 37.4609L29.0081 41.8189C28.9112 42.8844 29.6701 43.8374 30.7302 43.9817C31.7903 44.1259 32.7762 43.4103 32.9676 42.3577L33.9676 36.8577C34.0965 36.1486 33.834 35.4249 33.2802 34.9635L30.2802 32.4635C30.1921 32.39 30.0983 32.3247 30 32.2679V28.3486ZM34.3018 25.0551L34.2952 25.0549C34.3121 25.0548 34.3154 25.0555 34.3018 25.0551Z" fill="black"/>
<path d="M33.226 4.36679C33.5758 3.93935 34.2058 3.87635 34.6332 4.22607C35.0607 4.5758 35.1237 5.20582 34.7739 5.63327L32.1102 8.88892H33.9217C34.3218 8.88892 34.6834 9.1274 34.841 9.49517C34.9985 9.86295 34.9216 10.2892 34.6456 10.5788L31.6804 13.69C31.2994 14.0897 30.6664 14.1049 30.2666 13.7239C29.8668 13.3429 29.8516 12.7099 30.2326 12.3101L31.5872 10.8889H30C29.6136 10.8889 29.2618 10.6663 29.0963 10.3171C28.9309 9.96798 28.9814 9.55473 29.226 9.25568L33.226 4.36679Z" fill="black"/>
<path d="M23.4874 4.21031C24.0173 3.99682 24.6046 4.22566 24.7992 4.72144L26.1671 8.20697C26.2982 8.54103 26.2202 8.92734 25.9646 9.20968C25.709 9.49202 25.3181 9.62369 24.95 9.55143L23.9998 9.3649L24.7478 11.1103C24.9576 11.5997 24.7028 12.1811 24.1787 12.4088C23.6546 12.6365 23.0597 12.4243 22.85 11.9349L21.3499 8.43482C21.2066 8.10045 21.277 7.70699 21.532 7.41739C21.787 7.1278 22.1832 6.99139 22.5564 7.06465L23.5749 7.26457L22.8802 5.49456C22.6857 4.99878 22.9575 4.4238 23.4874 4.21031Z" fill="black"/>
</svg>
