<svg width="38" height="38" viewBox="0 0 38 38" fill="none" xmlns="http://www.w3.org/2000/svg">
<g clip-path="url(#clip0_211_19687)">
<path d="M18.8371 -0.00146484L1 6.27586L3.81874 29.6453L18.8559 37.91L33.9708 29.5333L36.7884 6.16469L18.8371 -0.00146484Z" fill="#B3B3B3"/>
<path d="M35.0093 7.51545L18.7954 1.98633V35.9356L32.3834 28.4154L35.0093 7.51545Z" fill="#A6120D"/>
<path d="M3.00171 7.61515L5.41715 28.5154L18.7953 35.9356V1.98584L3.00185 7.61501L3.00171 7.61515Z" fill="#DD1B16"/>
<path d="M23.2588 20.0592L18.7956 22.1463H14.0915L11.8803 27.6773L7.76733 27.7533L18.7956 3.21924L23.2588 20.0593V20.0592ZM22.8273 19.0084L18.8253 11.0856L15.5425 18.8721H18.7955L22.8273 19.0086V19.0084Z" fill="#F2F2F2"/>
<path d="M18.7954 3.21924L18.825 11.0857L22.5498 18.8783H18.8039L18.7954 22.1414L23.9753 22.1463L26.3962 27.7543L30.3317 27.8271L18.7954 3.21924Z" fill="#B3B3B3"/>
</g>
<defs>
<clipPath id="clip0_211_19687">
<rect width="38" height="38" fill="white" transform="translate(0 -0.00146484)"/>
</clipPath>
</defs>
</svg>
