<svg width="95" height="95" viewBox="0 0 95 95" fill="none" xmlns="http://www.w3.org/2000/svg">
<path fill-rule="evenodd" clip-rule="evenodd" d="M45.1111 14.0002C45.1111 14.0002 45.1111 14 47 14H47.3326C47.4784 14 47.6106 14 47.7306 14C48.8888 14 48.8888 14.0002 48.8888 14.0002V41.3889C48.8888 44.029 49.9544 45.0573 50.7851 45.542C50.8778 45.596 50.9712 45.6451 51.0641 45.6899C51.0622 45.4628 51.0597 45.2264 51.0571 44.9814V44.9783C50.9857 38.313 50.8467 25.3328 61.12 25.3328C75.1933 25.3328 85.2458 74.4562 79.2144 79.4687C73.1828 84.4812 61.12 81.4738 55.0886 75.4586C50.219 70.6023 50.6402 59.2546 50.9426 51.1085L50.9428 51.1059C50.9611 50.6103 50.9793 50.1265 50.9955 49.6567C50.3811 49.5039 49.6367 49.2457 48.8817 48.8052C48.2085 48.4125 47.5619 47.8946 47 47.2291C46.4382 47.8946 45.7916 48.4125 45.1184 48.8052C44.3633 49.2457 43.619 49.5039 43.0046 49.6567C43.0208 50.1271 43.0388 50.6116 43.0573 51.1078C43.3597 59.2538 43.7811 70.6028 38.9116 75.4592C32.88 81.4743 20.8172 84.4818 14.7857 79.4693C8.75419 74.4567 18.8067 25.3333 32.88 25.3333C43.1534 25.3333 43.0144 38.3132 42.943 44.9783C42.9426 45.0091 42.9423 45.0397 42.9419 45.0701C42.9396 45.2836 42.9375 45.4904 42.9358 45.6899C43.029 45.6453 43.1223 45.5962 43.215 45.542C44.0457 45.0573 45.1111 44.029 45.1111 41.3889V14.0002ZM61.12 29.1105C59.3178 29.1105 58.3036 29.6782 57.594 30.4086C56.7753 31.2514 56.0916 32.6069 55.6114 34.522C54.771 37.8746 54.8067 41.7325 54.8356 44.8442C54.8405 45.3824 54.8453 45.8984 54.8453 46.3856C54.8453 47.8211 54.7814 49.54 54.7151 51.3284C54.6891 52.0326 54.6624 52.7473 54.6392 53.4598C54.5548 56.0574 54.5066 58.7771 54.632 61.4077C54.758 64.0527 55.0546 66.4799 55.6082 68.5126C56.1682 70.569 56.9183 71.9481 57.756 72.7837C60.1704 75.1913 63.9826 77.1363 67.8706 77.8903C71.7145 78.6357 74.8089 78.0841 76.6211 76.7053C76.6306 76.6841 76.6409 76.6594 76.6525 76.6306C76.7643 76.3513 76.8999 75.8713 77.0102 75.1401C77.231 73.6762 77.2883 71.6342 77.1394 69.1183C76.8434 64.1132 75.7651 57.7635 74.0617 51.5145C72.3518 45.2415 70.0771 39.3107 67.4984 35.039C66.2077 32.9006 64.9351 31.3374 63.755 30.3455C62.5867 29.3637 61.721 29.1105 61.12 29.1105ZM32.88 29.1111C34.6822 29.1111 35.6965 29.6787 36.4059 30.4092C37.2246 31.252 37.9084 32.6074 38.3885 34.5226C39.2289 37.8754 39.1932 41.733 39.1645 44.8448C39.1594 45.3831 39.1547 45.899 39.1547 46.3861C39.1547 47.8217 39.2185 49.5406 39.2848 51.329C39.3111 52.0328 39.3375 52.7483 39.3607 53.4604C39.4454 56.058 39.4933 58.7776 39.3681 61.4083C39.2421 64.0533 38.9456 66.4805 38.3917 68.5131C37.8317 70.5696 37.0818 71.9487 36.2439 72.7843C33.8297 75.1919 30.0175 77.1369 26.1295 77.8909C22.2856 78.6363 19.1912 78.0847 17.3789 76.7058C17.3695 76.6847 17.359 76.6599 17.3475 76.6312C17.2357 76.3518 17.1 75.8719 16.9898 75.1407C16.7691 73.6768 16.7117 71.6347 16.8605 69.1189C17.1566 64.1137 18.235 57.764 19.9383 51.515C21.6483 45.242 23.9229 39.3113 26.5016 35.0396C27.7924 32.9012 29.0648 31.3379 30.2452 30.3461C31.4132 29.3642 32.2789 29.1111 32.88 29.1111Z" fill="#333333"/>
</svg>
