<svg width="20" height="20" viewBox="0 0 20 20" fill="none" xmlns="http://www.w3.org/2000/svg">
<path d="M9.38206 4.14732C9.47378 4.12192 9.64447 4.0762 9.76422 4.0508C9.91708 4.01778 10.0903 4.00254 10.3502 4C10.554 4 10.7604 4.00762 10.8088 4.02032C10.8572 4.03556 10.9667 4.05842 11.0508 4.07366C11.1349 4.09144 11.2954 4.13716 11.4075 4.17526C11.5196 4.21336 11.675 4.27686 11.7514 4.31496C11.8279 4.35306 11.9654 4.43434 12.0572 4.4953C12.1489 4.55372 12.3094 4.67818 12.4138 4.76708C12.5183 4.85852 12.6559 4.99314 12.7196 5.0668C12.7833 5.143 12.8699 5.24968 12.9132 5.30556C12.9565 5.36144 13.0278 5.46812 13.0711 5.54178C13.117 5.6129 13.1985 5.78053 13.252 5.90753C13.3081 6.03707 13.3769 6.23519 13.4049 6.34695C13.4329 6.45871 13.466 6.67715 13.4813 6.82955C13.4992 7.01751 13.4992 7.20547 13.4813 7.40105C13.4686 7.56107 13.4406 7.76681 13.4176 7.85825C13.3973 7.94969 13.3514 8.10463 13.3157 8.20115C13.2801 8.29767 13.2036 8.47039 13.145 8.58215C13.0864 8.69391 12.9845 8.85901 12.9157 8.95045C12.8495 9.04189 12.7068 9.20445 12.5973 9.31621C12.4903 9.42542 12.3145 9.58036 12.21 9.6591C12.1056 9.73784 11.9272 9.8496 11.8151 9.90802C11.703 9.96644 11.5323 10.0426 11.433 10.0782C11.3336 10.1112 11.1756 10.1595 11.0763 10.1823C10.9769 10.2052 10.7782 10.2331 10.6304 10.2433C10.4827 10.256 10.2381 10.256 10.0827 10.2433C9.92727 10.2306 9.69288 10.195 9.5604 10.1595C9.42792 10.1265 9.22156 10.0553 9.10181 10.0045C8.98207 9.9512 8.77571 9.8369 8.64322 9.748C8.51074 9.66164 8.30438 9.49654 8.18464 9.3797C8.06489 9.26287 7.91458 9.09776 7.84834 9.01395C7.78465 8.93013 7.67764 8.76503 7.60886 8.64565C7.54007 8.52627 7.44071 8.30529 7.38975 8.15035C7.3337 7.99033 7.27765 7.74649 7.25218 7.57885C7.22415 7.37565 7.21396 7.19785 7.22415 6.99465C7.23179 6.83463 7.25727 6.61111 7.2802 6.49935C7.30313 6.38759 7.35154 6.20979 7.3872 6.10565C7.42287 6.00151 7.48656 5.84657 7.52733 5.76275C7.57064 5.67894 7.6649 5.51892 7.73879 5.40716C7.81267 5.2954 7.96299 5.10744 8.07254 4.9906C8.18464 4.87376 8.37062 4.70358 8.49036 4.61468C8.6101 4.52578 8.82156 4.39624 8.96169 4.32512C9.10181 4.254 9.29034 4.17526 9.38206 4.14732Z" fill="white"/>
<path d="M7.16555 10.3754C7.27001 10.3449 7.44835 10.3119 7.56045 10.2992C7.67255 10.289 7.78719 10.2763 7.81522 10.2738C7.84324 10.2738 7.92477 10.2865 7.99356 10.3043C8.07509 10.3246 8.284 10.4389 8.56679 10.6167C8.81137 10.7716 9.05341 10.9189 9.10181 10.9443C9.15022 10.9697 9.31073 11.0332 9.45849 11.0866C9.60626 11.1374 9.82281 11.1983 9.94256 11.2212C10.0623 11.2441 10.289 11.2644 10.4521 11.2644C10.6534 11.2644 10.819 11.2491 10.9871 11.211C11.1196 11.1831 11.3387 11.1196 11.4712 11.0688C11.6037 11.018 11.754 10.957 11.8024 10.9316C11.8508 10.9062 12.0521 10.7843 12.2482 10.6599C12.4444 10.5329 12.6635 10.4008 12.7323 10.3678C12.8036 10.3322 12.8979 10.2966 12.9438 10.2865C12.9871 10.2789 13.1425 10.2839 13.2852 10.2992C13.4304 10.3144 13.6444 10.3551 13.7641 10.3906C13.8839 10.4236 14.0673 10.4973 14.1718 10.5532C14.2762 10.6065 14.4418 10.7132 14.5386 10.7869C14.6354 10.858 14.7781 10.9926 14.8571 11.084C14.9335 11.1755 15.0431 11.3228 15.1017 11.4142C15.1628 11.5057 15.2494 11.6581 15.3004 11.7571C15.3488 11.8562 15.4278 12.0391 15.4762 12.1635C15.5271 12.2905 15.601 12.5344 15.6443 12.7096C15.6876 12.8849 15.7462 13.1694 15.7743 13.3446C15.8023 13.5199 15.8303 13.7358 15.8405 13.8272C15.8481 13.9187 15.866 14.1676 15.8787 14.381C15.8991 14.6883 15.8966 14.8254 15.866 15.054C15.8456 15.209 15.8048 15.4173 15.7743 15.5163C15.7437 15.6154 15.6825 15.7678 15.6367 15.8592C15.5908 15.9507 15.4915 16.1005 15.4176 16.197C15.3412 16.291 15.201 16.4333 15.1017 16.512C15.0023 16.5907 14.8189 16.7025 14.694 16.7635C14.5692 16.8219 14.3679 16.8981 14.0316 16.9895L10.5413 16.9971C7.94006 17.0048 7.00505 16.9971 6.87257 16.9743C6.77575 16.959 6.60251 16.9159 6.49041 16.8828C6.37831 16.8473 6.21781 16.7838 6.13373 16.7406C6.04966 16.7 5.92482 16.6212 5.85348 16.5704C5.78469 16.5196 5.64457 16.3926 5.54776 16.2885C5.42037 16.1513 5.3363 16.0319 5.24968 15.8592C5.18344 15.7271 5.1121 15.5493 5.08917 15.4655C5.06879 15.3817 5.04076 15.2344 5.02548 15.1353C5.01274 15.0363 5 14.8331 5 14.6781C5 14.5257 5.01274 14.2387 5.02548 14.0431C5.04076 13.8476 5.07643 13.5377 5.10446 13.3573C5.13503 13.177 5.19617 12.8773 5.24203 12.6969C5.28789 12.5166 5.37451 12.2474 5.43056 12.1C5.48661 11.9527 5.59362 11.7317 5.66495 11.6047C5.73629 11.4803 5.84839 11.3076 5.91463 11.2237C5.97832 11.1399 6.09297 11.0129 6.16685 10.9393C6.23819 10.8656 6.37067 10.7564 6.45729 10.698C6.54646 10.6395 6.69932 10.5557 6.79614 10.51C6.89295 10.4643 7.0611 10.4033 7.16555 10.3754Z" fill="white"/>
</svg>
