<svg width="230" height="230" viewBox="0 0 230 230" fill="none" xmlns="http://www.w3.org/2000/svg">
<g opacity="0.02">
<mask id="mask0_209_474" style="mask-type:alpha" maskUnits="userSpaceOnUse" x="0" y="0" width="230" height="230">
<rect width="230" height="230" fill="#D9D9D9"/>
</mask>
<g mask="url(#mask0_209_474)">
<path d="M9.58334 191.667V164.833C9.58334 159.403 10.9809 154.411 13.7761 149.859C16.5712 145.307 20.2847 141.833 24.9167 139.437C34.8195 134.486 44.882 130.772 55.1042 128.297C65.3264 125.821 75.7083 124.583 86.25 124.583C96.7917 124.583 107.174 125.821 117.396 128.297C127.618 130.772 137.681 134.486 147.583 139.437C152.215 141.833 155.929 145.307 158.724 149.859C161.519 154.411 162.917 159.403 162.917 164.833V191.667H9.58334ZM182.083 191.667V162.917C182.083 155.889 180.127 149.141 176.214 142.672C172.3 136.203 166.75 130.653 159.563 126.021C167.708 126.979 175.375 128.616 182.563 130.932C189.75 133.248 196.458 136.083 202.688 139.437C208.438 142.632 212.83 146.186 215.865 150.099C218.899 154.012 220.417 158.285 220.417 162.917V191.667H182.083ZM86.25 115C75.7083 115 66.684 111.246 59.1771 103.74C51.6702 96.2326 47.9167 87.2083 47.9167 76.6666C47.9167 66.1249 51.6702 57.1006 59.1771 49.5937C66.684 42.0867 75.7083 38.3333 86.25 38.3333C96.7917 38.3333 105.816 42.0867 113.323 49.5937C120.83 57.1006 124.583 66.1249 124.583 76.6666C124.583 87.2083 120.83 96.2326 113.323 103.74C105.816 111.246 96.7917 115 86.25 115ZM182.083 76.6666C182.083 87.2083 178.33 96.2326 170.823 103.74C163.316 111.246 154.292 115 143.75 115C141.993 115 139.757 114.8 137.042 114.401C134.326 114.002 132.09 113.562 130.333 113.083C134.646 107.972 137.96 102.302 140.276 96.0728C142.592 89.8437 143.75 83.3749 143.75 76.6666C143.75 69.9583 142.592 63.4895 140.276 57.2603C137.96 51.0312 134.646 45.361 130.333 40.2499C132.569 39.4513 134.806 38.9322 137.042 38.6926C139.278 38.453 141.514 38.3333 143.75 38.3333C154.292 38.3333 163.316 42.0867 170.823 49.5937C178.33 57.1006 182.083 66.1249 182.083 76.6666ZM28.75 172.5H143.75V164.833C143.75 163.076 143.311 161.479 142.432 160.042C141.554 158.604 140.396 157.486 138.958 156.687C130.333 152.375 121.628 149.141 112.844 146.984C104.059 144.828 95.1945 143.75 86.25 143.75C77.3056 143.75 68.441 144.828 59.6563 146.984C50.8715 149.141 42.1667 152.375 33.5417 156.687C32.1042 157.486 30.9462 158.604 30.0677 160.042C29.1892 161.479 28.75 163.076 28.75 164.833V172.5ZM86.25 95.8333C91.5208 95.8333 96.033 93.9565 99.7865 90.203C103.54 86.4496 105.417 81.9374 105.417 76.6666C105.417 71.3958 103.54 66.8836 99.7865 63.1301C96.033 59.3767 91.5208 57.4999 86.25 57.4999C80.9792 57.4999 76.467 59.3767 72.7136 63.1301C68.9601 66.8836 67.0833 71.3958 67.0833 76.6666C67.0833 81.9374 68.9601 86.4496 72.7136 90.203C76.467 93.9565 80.9792 95.8333 86.25 95.8333Z" fill="white"/>
</g>
</g>
</svg>
