<svg width="36" height="36" viewBox="0 0 36 36" fill="none" xmlns="http://www.w3.org/2000/svg">
<mask id="mask0_211_21803" style="mask-type:alpha" maskUnits="userSpaceOnUse" x="0" y="0" width="36" height="36">
<rect width="36" height="36" fill="#D9D9D9"/>
</mask>
<g mask="url(#mask0_211_21803)">
<path d="M7.5 33V30H16.5V24H13.5C11.425 24 9.65625 23.2688 8.19375 21.8063C6.73125 20.3438 6 18.575 6 16.5C6 15 6.4125 13.6188 7.2375 12.3563C8.0625 11.0938 9.175 10.175 10.575 9.6C10.8 7.725 11.6188 6.15625 13.0312 4.89375C14.4438 3.63125 16.1 3 18 3C19.9 3 21.5562 3.63125 22.9688 4.89375C24.3813 6.15625 25.2 7.725 25.425 9.6C26.825 10.175 27.9375 11.0938 28.7625 12.3563C29.5875 13.6188 30 15 30 16.5C30 18.575 29.2688 20.3438 27.8063 21.8063C26.3438 23.2688 24.575 24 22.5 24H19.5V30H28.5V33H7.5ZM13.5 21H22.5C23.75 21 24.8125 20.5625 25.6875 19.6875C26.5625 18.8125 27 17.75 27 16.5C27 15.6 26.7437 14.775 26.2313 14.025C25.7188 13.275 25.05 12.725 24.225 12.375L22.65 11.7L22.425 9.975C22.275 8.85 21.7813 7.90625 20.9438 7.14375C20.1063 6.38125 19.125 6 18 6C16.875 6 15.8938 6.38125 15.0562 7.14375C14.2188 7.90625 13.725 8.85 13.575 9.975L13.35 11.7L11.775 12.375C10.95 12.725 10.2812 13.275 9.76875 14.025C9.25625 14.775 9 15.6 9 16.5C9 17.75 9.4375 18.8125 10.3125 19.6875C11.1875 20.5625 12.25 21 13.5 21Z" fill="#2E7BEE"/>
</g>
</svg>
