<svg width="36" height="36" viewBox="0 0 36 36" fill="none" xmlns="http://www.w3.org/2000/svg">
<mask id="mask0_211_21810" style="mask-type:alpha" maskUnits="userSpaceOnUse" x="0" y="0" width="36" height="36">
<rect width="36" height="36" fill="#D9D9D9"/>
</mask>
<g mask="url(#mask0_211_21810)">
<path d="M11.25 4.5C12.55 4.5 13.7875 4.775 14.9625 5.325C16.1375 5.875 17.15 6.65 18 7.65C18.85 6.65 19.8625 5.875 21.0375 5.325C22.2125 4.775 23.45 4.5 24.75 4.5C27.1 4.5 29.0625 5.2875 30.6375 6.8625C32.2125 8.4375 33 10.4 33 12.75C33 12.875 32.9938 13 32.9813 13.125C32.9688 13.25 32.9625 13.375 32.9625 13.5H29.9625C29.9875 13.375 30 13.25 30 13.125V12.75C30 11.25 29.5 10 28.5 9C27.5 8 26.25 7.5 24.75 7.5C23.575 7.5 22.4875 7.83125 21.4875 8.49375C20.4875 9.15625 19.8 10 19.425 11.025H16.575C16.2 10 15.5125 9.15625 14.5125 8.49375C13.5125 7.83125 12.425 7.5 11.25 7.5C9.75 7.5 8.5 8 7.5 9C6.5 10 6 11.25 6 12.75V13.125C6 13.25 6.0125 13.375 6.0375 13.5H3.0375C3.0375 13.375 3.03125 13.25 3.01875 13.125C3.00625 13 3 12.875 3 12.75C3 10.4 3.7875 8.4375 5.3625 6.8625C6.9375 5.2875 8.9 4.5 11.25 4.5ZM7.95 22.5H12.15C12.95 23.275 13.825 24.1125 14.775 25.0125C15.725 25.9125 16.8 26.9 18 27.975C19.2 26.9 20.275 25.9125 21.225 25.0125C22.175 24.1125 23.05 23.275 23.85 22.5H28.0875C27.1375 23.55 26.0125 24.6875 24.7125 25.9125C23.4125 27.1375 21.9 28.525 20.175 30.075L18 32.025L15.825 30.075C14.1 28.525 12.5938 27.1375 11.3062 25.9125C10.0188 24.6875 8.9 23.55 7.95 22.5ZM16.575 24C16.9 24 17.1813 23.9062 17.4188 23.7188C17.6562 23.5312 17.825 23.2875 17.925 22.9875L19.95 16.875L21.2625 18.825C21.3875 19.025 21.5625 19.1875 21.7875 19.3125C22.0125 19.4375 22.25 19.5 22.5 19.5H34.5V16.5H23.3625L20.775 12.675C20.625 12.45 20.4313 12.2813 20.1938 12.1688C19.9563 12.0563 19.7 12 19.425 12C19.1 12 18.8188 12.0938 18.5812 12.2812C18.3438 12.4688 18.175 12.7125 18.075 13.0125L16.05 19.0875L14.775 17.175C14.65 16.975 14.475 16.8125 14.25 16.6875C14.025 16.5625 13.7875 16.5 13.5375 16.5H1.5V19.5H12.6375L15.225 23.325C15.375 23.55 15.5688 23.7188 15.8063 23.8312C16.0438 23.9438 16.3 24 16.575 24Z" fill="#2E7BEE"/>
</g>
</svg>
