<svg width="39" height="38" viewBox="0 0 39 38" fill="none" xmlns="http://www.w3.org/2000/svg">
<path d="M17.904 0.506883C18.854 -0.0310542 20.0653 -0.0334292 20.9915 0.506883L35.175 8.50232C36.0621 9.00107 36.6558 9.99026 36.6475 11.0127V27.0439C36.6534 28.1091 36.0015 29.1197 35.0658 29.6089L20.9583 37.5676C20.4757 37.8342 19.9306 37.9668 19.3795 37.9516C18.8284 37.9363 18.2915 37.7738 17.8244 37.4809L13.591 35.0346C13.3024 34.8624 12.9783 34.7259 12.774 34.4468C12.9545 34.2046 13.2751 34.1737 13.5364 34.0668C14.1254 33.8792 14.6645 33.5918 15.206 33.2878C15.3426 33.1928 15.51 33.2284 15.6406 33.3139L19.2506 35.4016C19.5083 35.55 19.7696 35.3541 19.9904 35.2294L33.8426 27.4121C34.0136 27.3289 34.1086 27.1484 34.0944 26.9608V11.0839C34.1134 10.8702 33.9911 10.6754 33.7975 10.5888L19.7256 2.66457C19.6445 2.60848 19.5483 2.57834 19.4497 2.57812C19.3511 2.57791 19.2548 2.60764 19.1734 2.66338L5.12175 10.6042C4.93175 10.6909 4.80112 10.8833 4.82487 11.097V26.9739C4.80825 27.1615 4.908 27.3384 5.08019 27.4192L8.83506 29.5389C9.54044 29.9189 10.4061 30.1326 11.1827 29.8536C11.5226 29.7255 11.8152 29.4966 12.0213 29.1975C12.2274 28.8985 12.3371 28.5436 12.3358 28.1804L12.3394 12.3985C12.3228 12.1646 12.5436 11.971 12.7704 11.9948H14.5754C14.8129 11.9888 14.9994 12.2406 14.9673 12.4757L14.9638 28.3573C14.9649 29.7681 14.3854 31.3023 13.0804 31.9946C11.4725 32.8259 9.48462 32.6513 7.89575 31.8521L3.85825 29.6196C2.90825 29.1446 2.27056 28.1186 2.2765 27.0546V11.0234C2.28045 10.5023 2.42369 9.99184 2.69137 9.5448C2.95906 9.09775 3.34144 8.73044 3.79887 8.48095L17.904 0.506883ZM21.9937 11.6195C24.0446 11.5008 26.2402 11.5411 28.0856 12.5517C29.5142 13.3259 30.3062 14.9504 30.3324 16.5393C30.292 16.7531 30.0688 16.8718 29.8645 16.8564C29.2708 16.8552 28.6746 16.8647 28.0785 16.8528C27.8256 16.8623 27.6795 16.6296 27.6474 16.4063C27.4764 15.6463 27.062 14.8946 26.3471 14.5277C25.2499 13.9779 23.9769 14.0052 22.7799 14.0171C21.9059 14.0646 20.9666 14.1394 20.2267 14.6524C19.6567 15.0419 19.4858 15.8399 19.6888 16.4598C19.8788 16.9146 20.4049 17.0606 20.8336 17.196C23.3059 17.842 25.9244 17.7898 28.3504 18.6293C29.3539 18.9761 30.3359 19.6506 30.6803 20.7015C31.1292 22.1099 30.9332 23.7938 29.9322 24.9243C29.1199 25.8553 27.9372 26.3493 26.7556 26.6366C25.1846 26.9869 23.5553 26.9953 21.9605 26.8385C20.4607 26.6675 18.9003 26.2733 17.7425 25.252C16.7521 24.3923 16.27 23.0528 16.3175 21.7608C16.3294 21.5423 16.5467 21.3903 16.7569 21.4081H18.5381C18.778 21.3914 18.9538 21.5981 18.9656 21.8237C19.0761 22.5362 19.348 23.3081 19.9797 23.7237C21.1981 24.5098 22.7264 24.4552 24.1206 24.4778C25.276 24.4267 26.5727 24.4113 27.5168 23.6465C28.0156 23.2107 28.1616 22.4828 28.0274 21.8558C27.8814 21.3261 27.3149 21.0803 26.8399 20.9058C24.3996 20.1339 21.7515 20.4141 19.3349 19.5401C18.3541 19.1934 17.4052 18.5379 17.0288 17.5297C16.5028 16.1047 16.7438 14.3389 17.8518 13.2464C18.9205 12.1598 20.488 11.7406 21.9724 11.591L21.9937 11.6195Z" fill="#8CC84B"/>
</svg>
