<svg width="36" height="36" viewBox="0 0 36 36" fill="none" xmlns="http://www.w3.org/2000/svg">
<mask id="mask0_211_21796" style="mask-type:alpha" maskUnits="userSpaceOnUse" x="0" y="0" width="36" height="36">
<rect width="36" height="36" fill="#D9D9D9"/>
</mask>
<g mask="url(#mask0_211_21796)">
<path d="M3 30V15C3 14.175 3.29375 13.4688 3.88125 12.8813C4.46875 12.2938 5.175 12 6 12H10.5V9C10.5 8.175 10.7938 7.46875 11.3813 6.88125C11.9688 6.29375 12.675 6 13.5 6H22.5C23.325 6 24.0312 6.29375 24.6188 6.88125C25.2063 7.46875 25.5 8.175 25.5 9V12H30C30.825 12 31.5312 12.2938 32.1188 12.8813C32.7063 13.4688 33 14.175 33 15V30H3ZM12 22.5V24H9V22.5H6V27H30V22.5H27V24H24V22.5H12ZM6 15V19.5H9V18H12V19.5H24V18H27V19.5H30V15H6ZM13.5 12H22.5V9H13.5V12Z" fill="#2E7BEE"/>
</g>
</svg>
