<svg width="38" height="38" viewBox="0 0 38 38" fill="none" xmlns="http://www.w3.org/2000/svg">
<g clip-path="url(#clip0_211_19319)">
<path d="M38 0H0V38H38V0Z" fill="#F7DF1E"/>
<path d="M25.5264 29.6876C26.2918 30.9374 27.2876 31.856 29.0489 31.856C30.5285 31.856 31.4737 31.1166 31.4737 30.0948C31.4737 28.8703 30.5025 28.4366 28.874 27.7243L27.9813 27.3413C25.4045 26.2435 23.6927 24.8683 23.6927 21.961C23.6927 19.2829 25.7332 17.2441 28.9222 17.2441C31.1926 17.2441 32.8248 18.0343 34.001 20.1032L31.2203 21.8886C30.6081 20.7908 29.9476 20.3583 28.9222 20.3583C27.8763 20.3583 27.2134 21.0218 27.2134 21.8886C27.2134 22.9598 27.8769 23.3935 29.409 24.057L30.3017 24.4394C33.3357 25.7405 35.0487 27.0668 35.0487 30.0489C35.0487 33.2639 32.5232 35.0251 29.1315 35.0251C25.8153 35.0251 23.6728 33.4448 22.6245 31.3735L25.5264 29.6876ZM12.9122 29.9971C13.4731 30.9923 13.9834 31.8337 15.2103 31.8337C16.3834 31.8337 17.1235 31.3747 17.1235 29.5899V17.448H20.6943V29.6382C20.6943 33.3356 18.5265 35.0185 15.3623 35.0185C12.5032 35.0185 10.8475 33.5389 10.0055 31.7568L12.9122 29.9971Z" fill="black"/>
</g>
<defs>
<clipPath id="clip0_211_19319">
<rect width="38" height="38" fill="white"/>
</clipPath>
</defs>
</svg>
