<svg width="48" height="48" viewBox="0 0 48 48" fill="none" xmlns="http://www.w3.org/2000/svg">
<path d="M30 26.8182C30 30.2323 27.3137 33 24 33C20.6863 33 18 30.2323 18 26.8182C18 21.4091 24 15 24 15C24 15 30 21.4091 30 26.8182Z" fill="black"/>
<path fill-rule="evenodd" clip-rule="evenodd" d="M24 31C26.1533 31 28 29.1844 28 26.8182C28 24.7373 26.7943 22.2053 25.3295 19.9805C24.8713 19.2844 24.4116 18.6537 24 18.1198C23.5885 18.6537 23.1288 19.2844 22.6705 19.9805C21.2057 22.2053 20 24.7373 20 26.8182C20 29.1844 21.8467 31 24 31ZM22.6966 16.5398C20.9318 18.7675 18 23.0371 18 26.8182C18 30.2323 20.6863 33 24 33C27.3137 33 30 30.2323 30 26.8182C30 23.0371 27.0683 18.7675 25.3035 16.5398C24.5436 15.5806 24 15 24 15C24 15 23.4565 15.5806 22.6966 16.5398Z" fill="black"/>
<path fill-rule="evenodd" clip-rule="evenodd" d="M14.8607 10.8672C11.7227 13.0509 9.47039 16.2861 8.51148 19.987C7.55258 23.6878 7.95052 27.6097 9.63324 31.0425C11.316 34.4753 14.1722 37.1922 17.6849 38.7011C21.1976 40.21 25.1345 40.4113 28.7827 39.2686L29.3806 41.1771C25.2763 42.4628 20.8473 42.2363 16.8955 40.5387C12.9438 38.8412 9.73046 35.7847 7.83739 31.9228C5.94433 28.0609 5.49665 23.6488 6.57542 19.4853C7.65418 15.3219 10.1881 11.6823 13.7183 9.22559L14.8607 10.8672Z" fill="black"/>
<path fill-rule="evenodd" clip-rule="evenodd" d="M33.1392 37.1329C36.2772 34.9492 38.5296 31.714 39.4885 28.0131C40.4474 24.3123 40.0494 20.3904 38.3667 16.9576C36.684 13.5248 33.8277 10.8079 30.315 9.299C26.8023 7.79006 22.8655 7.58877 19.2172 8.73156L18.6194 6.823C22.7237 5.53736 27.1526 5.76382 31.1044 7.46137C35.0562 9.15893 38.2695 12.2154 40.1625 16.0773C42.0556 19.9392 42.5033 24.3513 41.4245 28.5148C40.3458 32.6782 37.8119 36.3178 34.2816 38.7745L33.1392 37.1329Z" fill="black"/>
<path fill-rule="evenodd" clip-rule="evenodd" d="M14 10H7V8H16V17H14V10Z" fill="black"/>
<path fill-rule="evenodd" clip-rule="evenodd" d="M34 38H41V40H32V31H34V38Z" fill="black"/>
</svg>
