<svg width="230" height="230" viewBox="0 0 230 230" fill="none" xmlns="http://www.w3.org/2000/svg">
<g opacity="0.02">
<mask id="mask0_209_285" style="mask-type:alpha" maskUnits="userSpaceOnUse" x="0" y="0" width="230" height="230">
<rect width="230" height="230" fill="#D9D9D9"/>
</mask>
<g mask="url(#mask0_209_285)">
<path fill-rule="evenodd" clip-rule="evenodd" d="M34.3802 205.203C38.1337 208.957 42.6458 210.833 47.9167 210.833H182.083C187.354 210.833 191.866 208.957 195.62 205.203C199.373 201.45 201.25 196.938 201.25 191.667V57.5001C201.25 52.2292 199.373 47.7171 195.62 43.9636C191.866 40.2102 187.354 38.3334 182.083 38.3334H172.5V19.1667H153.333V38.3334H76.6667V19.1667H57.5V38.3334H47.9167C42.6458 38.3334 38.1337 40.2102 34.3802 43.9636C30.6267 47.7171 28.75 52.2292 28.75 57.5001V191.667C28.75 196.938 30.6267 201.45 34.3802 205.203ZM182.083 191.667H47.9167V95.8334H182.083V191.667ZM182.083 76.6667H47.9167V57.5001H182.083V76.6667Z" fill="white"/>
</g>
</g>
</svg>
