<svg width="38" height="38" viewBox="0 0 38 38" fill="none" xmlns="http://www.w3.org/2000/svg">
<g clip-path="url(#clip0_211_19884)">
<path d="M18.8373 0.0107422C9.21473 0.0107422 9.81555 4.18367 9.81555 4.18367L9.82623 8.50695H19.0089V9.80491H6.17902C6.17902 9.80491 0.0215225 9.10658 0.0215225 18.8157C0.0215225 28.5251 5.39594 28.1808 5.39594 28.1808H8.60337V23.6752C8.60337 23.6752 8.43046 18.3008 13.892 18.3008H22.9996C22.9996 18.3008 28.1165 18.3835 28.1165 13.3555V5.042C28.1165 5.042 28.8936 0.0107422 18.8373 0.0107422ZM13.774 2.91806C13.991 2.91787 14.2059 2.96046 14.4064 3.04341C14.6069 3.12636 14.7891 3.24804 14.9425 3.40147C15.096 3.55491 15.2177 3.7371 15.3006 3.93761C15.3836 4.13812 15.4262 4.35302 15.426 4.57002C15.4262 4.78701 15.3836 5.00191 15.3006 5.20242C15.2177 5.40294 15.096 5.58512 14.9425 5.73856C14.7891 5.892 14.6069 6.01367 14.4064 6.09662C14.2059 6.17957 13.991 6.22217 13.774 6.22197C13.557 6.22217 13.3421 6.17957 13.1416 6.09662C12.9411 6.01367 12.7589 5.892 12.6055 5.73856C12.452 5.58512 12.3303 5.40294 12.2474 5.20242C12.1644 5.00191 12.1219 4.78701 12.122 4.57002C12.1219 4.35302 12.1644 4.13812 12.2474 3.93761C12.3303 3.7371 12.452 3.55491 12.6055 3.40147C12.7589 3.24804 12.9411 3.12636 13.1416 3.04341C13.3421 2.96046 13.557 2.91787 13.774 2.91806Z" fill="url(#paint0_linear_211_19884)"/>
<path d="M19.1106 37.7184C28.7332 37.7184 28.1323 33.5455 28.1323 33.5455L28.1217 29.2224H18.9388V27.9244H31.7687C31.7687 27.9244 37.9262 28.6227 37.9262 18.9133C37.9262 9.20404 32.5518 9.54839 32.5518 9.54839H29.3444V14.0538C29.3444 14.0538 29.5173 19.4282 24.0557 19.4282H14.9482C14.9482 19.4282 9.83128 19.3455 9.83128 24.3737V32.6873C9.83128 32.6873 9.05428 37.7184 19.1104 37.7184H19.1106ZM24.1739 34.8114C23.9569 34.8116 23.742 34.769 23.5415 34.6861C23.341 34.6031 23.1588 34.4814 23.0053 34.328C22.8519 34.1746 22.7302 33.9924 22.6473 33.7919C22.5643 33.5913 22.5217 33.3764 22.5219 33.1595C22.5217 32.9424 22.5643 32.7275 22.6472 32.527C22.7302 32.3265 22.8519 32.1443 23.0053 31.9908C23.1587 31.8374 23.3409 31.7157 23.5414 31.6327C23.742 31.5498 23.9569 31.5072 24.1739 31.5074C24.3909 31.5072 24.6058 31.5497 24.8063 31.6327C25.0068 31.7156 25.189 31.8373 25.3424 31.9908C25.4959 32.1442 25.6175 32.3264 25.7005 32.5269C25.7834 32.7274 25.826 32.9423 25.8258 33.1593C25.826 33.3763 25.7834 33.5912 25.7005 33.7917C25.6175 33.9922 25.4959 34.1744 25.3424 34.3278C25.189 34.4813 25.0068 34.603 24.8063 34.6859C24.6058 34.7689 24.3909 34.8116 24.1739 34.8114Z" fill="url(#paint1_linear_211_19884)"/>
</g>
<defs>
<linearGradient id="paint0_linear_211_19884" x1="364.284" y1="339.168" x2="2242.73" y2="2198.87" gradientUnits="userSpaceOnUse">
<stop stop-color="#387EB8"/>
<stop offset="1" stop-color="#366994"/>
</linearGradient>
<linearGradient id="paint1_linear_211_19884" x1="547.484" y1="589.289" x2="2564.71" y2="2496.24" gradientUnits="userSpaceOnUse">
<stop stop-color="#FFE052"/>
<stop offset="1" stop-color="#FFC331"/>
</linearGradient>
<clipPath id="clip0_211_19884">
<rect width="38" height="37.848" fill="white"/>
</clipPath>
</defs>
</svg>
