<svg width="38" height="38" viewBox="0 0 38 38" fill="none" xmlns="http://www.w3.org/2000/svg">
<path d="M2.70066 18.9989C2.70066 25.4503 6.44989 31.0257 11.8866 33.6677L4.11178 12.3657C3.20742 14.3928 2.70066 16.636 2.70066 18.9989Z" fill="white"/>
<path d="M30.0025 18.1765C30.0025 16.1621 29.279 14.7671 28.6584 13.6813C27.8322 12.3388 27.0578 11.2018 27.0578 9.85924C27.0578 8.36097 28.1941 6.96629 29.7947 6.96629C29.867 6.96629 29.9355 6.97528 30.0059 6.97932C27.1062 4.32269 23.2428 2.70068 18.9995 2.70068C13.3054 2.70068 8.29582 5.62216 5.38148 10.0472C5.76387 10.0587 6.12425 10.0667 6.43036 10.0667C8.13517 10.0667 10.7741 9.85986 10.7741 9.85986C11.6527 9.80806 11.7563 11.0985 10.8786 11.2024C10.8786 11.2024 9.99568 11.3063 9.01317 11.3578L14.9485 29.0123L18.5154 18.3148L15.976 11.3572C15.0983 11.3057 14.2669 11.2018 14.2669 11.2018C13.3886 11.1503 13.4915 9.80744 14.3698 9.85924C14.3698 9.85924 17.0615 10.0661 18.663 10.0661C20.3675 10.0661 23.0068 9.85924 23.0068 9.85924C23.886 9.80744 23.9893 11.0979 23.1113 11.2018C23.1113 11.2018 22.2265 11.3057 21.2458 11.3572L27.1359 28.878L28.7617 23.4454C29.4663 21.191 30.0025 19.5718 30.0025 18.1765Z" fill="white"/>
<path d="M19.2855 20.4248L14.3953 34.6349C15.8554 35.0641 17.3995 35.2989 18.9995 35.2989C20.8976 35.2989 22.7178 34.9708 24.412 34.375C24.3683 34.3052 24.3286 34.2311 24.296 34.1505L19.2855 20.4248Z" fill="white"/>
<path d="M33.3011 11.1792C33.3712 11.6984 33.4109 12.2557 33.4109 12.8552C33.4109 14.5091 33.102 16.3684 32.1716 18.6932L27.193 33.0875C32.0386 30.2618 35.2978 25.0122 35.2978 18.9993C35.2981 16.1656 34.5742 13.5009 33.3011 11.1792Z" fill="white"/>
<path d="M18.9995 0C8.52346 0 0 8.52284 0 18.9989C0 29.4762 8.52346 37.9988 18.9995 37.9988C29.4753 37.9988 38 29.4762 38 18.9989C37.9997 8.52284 29.4753 0 18.9995 0ZM18.9995 37.1279C9.00386 37.1279 0.871171 28.9952 0.871171 18.9989C0.871171 9.00324 9.00355 0.871171 18.9995 0.871171C28.9949 0.871171 37.127 9.00324 37.127 18.9989C37.127 28.9952 28.9949 37.1279 18.9995 37.1279Z" fill="white"/>
</svg>
