<svg width="39" height="38" viewBox="0 0 39 38" fill="none" xmlns="http://www.w3.org/2000/svg">
<g clip-path="url(#clip0_211_19592)">
<path d="M33.2001 21.0934C31.8752 21.1002 30.7236 21.4139 29.7594 21.8776C29.4056 21.1888 29.0519 20.5751 28.9894 20.125C28.9201 19.5999 28.8368 19.2794 28.9201 18.6521C29.0033 18.0247 29.3779 17.1314 29.371 17.0632C29.364 16.995 29.2877 16.6745 28.5247 16.6676C27.7616 16.6608 27.1026 16.8109 27.0263 17.0086C26.95 17.2064 26.8043 17.6564 26.7072 18.1202C26.5754 18.8021 25.1811 21.2366 24.3834 22.5118C24.1267 22.014 23.9047 21.5775 23.8562 21.2298C23.7868 20.7047 23.7036 20.3842 23.7868 19.7568C23.87 19.1294 24.2446 18.2361 24.2377 18.1679C24.2308 18.0997 24.1545 17.7792 23.3914 17.7724C22.6284 17.7656 21.9694 17.9156 21.893 18.1133C21.8167 18.3111 21.7335 18.7748 21.574 19.2249C21.4144 19.675 19.5623 23.7393 19.0767 24.7894C18.827 25.3281 18.6119 25.7578 18.4593 26.051C18.4593 26.051 18.4524 26.0714 18.4316 26.1055C18.2998 26.3579 18.2235 26.4942 18.2235 26.4942C18.2235 26.4942 18.2235 26.4942 18.2235 26.5011C18.1194 26.6852 18.0084 26.8557 17.9529 26.8557C17.9113 26.8557 17.835 26.3647 17.9668 25.6964C18.2443 24.2848 18.9033 22.089 18.8963 22.014C18.8963 21.9731 19.0212 21.5912 18.4662 21.3934C17.9252 21.1957 17.7309 21.523 17.6824 21.523C17.6338 21.523 17.5991 21.6389 17.5991 21.6389C17.5991 21.6389 18.2026 19.1703 16.4476 19.1703C15.3516 19.1703 13.8394 20.3501 13.0902 21.4139C12.6185 21.6662 11.6127 22.2049 10.5374 22.7845C10.1282 23.0096 9.70502 23.2346 9.30962 23.446C9.28187 23.4187 9.25413 23.3846 9.22638 23.3574C7.10371 21.1275 3.17745 19.5522 3.34394 16.5585C3.40637 15.4675 3.7879 12.6034 10.8843 9.12551C16.7251 6.29551 21.3728 7.07973 22.1775 8.81865C23.329 11.3009 19.6871 15.9107 13.6521 16.579C11.3491 16.8313 10.142 15.9584 9.83682 15.6311C9.51773 15.2902 9.46917 15.2697 9.35124 15.3379C9.15701 15.4402 9.28187 15.747 9.35124 15.9243C9.5316 16.3881 10.2738 17.2064 11.5294 17.6087C12.6393 17.9633 15.3377 18.1611 18.605 16.92C22.2607 15.5288 25.1187 11.6623 24.2793 8.42313C23.44 5.13623 17.8905 4.05196 12.6393 5.88635C9.51773 6.97744 6.13255 8.6959 3.69772 10.9326C0.805056 13.5921 0.347225 15.9039 0.534519 16.8722C1.20739 20.3091 6.0285 22.5459 7.95694 24.203C7.85982 24.2575 7.76964 24.3053 7.69334 24.3462C6.72912 24.8167 3.05259 26.7056 2.13693 28.7037C1.0964 30.9677 2.30341 32.5907 3.10115 32.8089C5.5776 33.484 8.12342 32.2702 9.48998 30.2653C10.8565 28.2604 10.6901 25.6555 10.0588 24.4621C10.0519 24.4485 10.0449 24.4348 10.0311 24.4212C10.2808 24.278 10.5374 24.1279 10.7872 23.9847C11.2797 23.6983 11.7653 23.4324 12.1815 23.2142C11.9456 23.8484 11.7722 24.6053 11.689 25.6964C11.5849 26.9784 12.119 28.6423 12.8197 29.297C13.1318 29.5834 13.4995 29.5902 13.7353 29.5902C14.5539 29.5902 14.9215 28.9219 15.3308 28.1309C15.8302 27.1625 16.2811 26.0373 16.2811 26.0373C16.2811 26.0373 15.7193 29.0788 17.2454 29.0788C17.8003 29.0788 18.3622 28.3695 18.6119 28.0081C18.6119 28.0149 18.6119 28.0149 18.6119 28.0149C18.6119 28.0149 18.6258 27.9945 18.6535 27.9468C18.709 27.8581 18.7437 27.8035 18.7437 27.8035C18.7437 27.8035 18.7437 27.7967 18.7437 27.7899C18.9657 27.408 19.4652 26.542 20.2074 25.1031C21.1647 23.2483 22.0873 20.9297 22.0873 20.9297C22.0873 20.9297 22.1705 21.4957 22.4549 22.4368C22.6214 22.9891 22.9683 23.596 23.2457 24.1825C23.0238 24.4894 22.885 24.6599 22.885 24.6599C22.885 24.6599 22.885 24.6599 22.892 24.6667C22.7116 24.8985 22.5174 25.1508 22.3023 25.3963C21.5462 26.2828 20.6444 27.2989 20.5196 27.5921C20.3739 27.9399 20.4086 28.1922 20.686 28.3968C20.8872 28.5468 21.2479 28.5673 21.6156 28.5468C22.2954 28.4991 22.774 28.3355 23.0099 28.2332C23.3775 28.1036 23.8076 27.9058 24.2099 27.6126C24.9522 27.0739 25.4031 26.3033 25.3615 25.2872C25.3407 24.728 25.1534 24.1689 24.9244 23.6438C24.9938 23.5483 25.0562 23.4528 25.1256 23.3574C26.2979 21.673 27.2067 19.825 27.2067 19.825C27.2067 19.825 27.2899 20.391 27.5743 21.332C27.7131 21.8094 27.9975 22.3277 28.2472 22.8323C27.1442 23.712 26.4644 24.7349 26.2216 25.4032C25.7846 26.6443 26.1245 27.2034 26.7696 27.333C27.061 27.3944 27.4772 27.258 27.7824 27.1284C28.1709 27.0057 28.6287 26.7943 29.0657 26.4806C29.808 25.9419 30.5225 25.1918 30.4809 24.1757C30.46 23.712 30.3352 23.2551 30.1618 22.8118C31.0982 22.4299 32.3052 22.2185 33.8452 22.3959C37.1472 22.7777 37.7992 24.8031 37.6744 25.6555C37.5495 26.5079 36.8558 26.9716 36.6269 27.1148C36.398 27.258 36.3217 27.3057 36.3425 27.408C36.3702 27.5581 36.4812 27.5512 36.6755 27.524C36.946 27.4762 38.4097 26.8352 38.4721 25.2668C38.5761 23.2619 36.6338 21.0729 33.2001 21.0934ZM7.72802 29.5356C6.632 30.7086 5.1059 31.1518 4.4469 30.7768C3.73934 30.3744 4.01681 28.6423 5.36256 27.4012C6.18111 26.6443 7.23551 25.9419 7.93613 25.5123C8.09567 25.4168 8.33153 25.2804 8.61594 25.1099C8.6645 25.0826 8.69224 25.069 8.69224 25.069C8.74774 25.0349 8.80323 25.0008 8.85873 24.9667C9.35124 26.7397 8.87954 28.3014 7.72802 29.5356ZM15.7054 24.203C15.3239 25.1167 14.5261 27.4558 14.0405 27.3262C13.6243 27.2171 13.3677 25.4441 13.9573 23.6915C14.2556 22.8118 14.8868 21.7617 15.2545 21.3525C15.8511 20.6978 16.5101 20.4796 16.6696 20.7456C16.8708 21.0934 15.9412 23.6301 15.7054 24.203ZM22.2884 27.2989C22.1289 27.3807 21.9763 27.4353 21.9069 27.3944C21.8584 27.3671 21.9763 27.258 21.9763 27.258C21.9763 27.258 22.8018 26.3851 23.1278 25.9896C23.3151 25.7578 23.5371 25.485 23.7729 25.1781C23.7729 25.2054 23.7729 25.2395 23.7729 25.2668C23.7729 26.3101 22.7463 27.0125 22.2884 27.2989ZM27.3662 26.1601C27.2483 26.0783 27.2691 25.8055 27.6645 24.9531C27.8171 24.6189 28.1778 24.0598 28.7952 23.521C28.8646 23.7393 28.9131 23.9506 28.9062 24.1484C28.8993 25.4645 27.942 25.9555 27.3662 26.1601Z" fill="#CD6799"/>
</g>
<defs>
<clipPath id="clip0_211_19592">
<rect width="38" height="38" fill="white" transform="translate(0.499969)"/>
</clipPath>
</defs>
</svg>
