<svg width="36" height="36" viewBox="0 0 36 36" fill="none" xmlns="http://www.w3.org/2000/svg">
<mask id="mask0_211_21832" style="mask-type:alpha" maskUnits="userSpaceOnUse" x="0" y="0" width="36" height="36">
<rect width="36" height="36" fill="#D9D9D9"/>
</mask>
<g mask="url(#mask0_211_21832)">
<path d="M19.2 34.5C17.15 34.5 15.225 34.0312 13.425 33.0938C11.625 32.1562 10.15 30.85 9 29.175L1.8 18.6L2.5125 17.8875C3.0125 17.3625 3.63125 17.0625 4.36875 16.9875C5.10625 16.9125 5.775 17.0875 6.375 17.5125L10.5 20.3625V6C10.5 5.575 10.6438 5.21875 10.9313 4.93125C11.2188 4.64375 11.575 4.5 12 4.5C12.425 4.5 12.7813 4.64375 13.0688 4.93125C13.3563 5.21875 13.5 5.575 13.5 6V26.1375L7.95 22.275L11.5125 27.45C12.3875 28.725 13.5 29.7188 14.85 30.4313C16.2 31.1438 17.65 31.5 19.2 31.5C21.775 31.5 23.9688 30.5938 25.7813 28.7812C27.5938 26.9688 28.5 24.775 28.5 22.2V7.5C28.5 7.075 28.6438 6.71875 28.9313 6.43125C29.2188 6.14375 29.575 6 30 6C30.425 6 30.7813 6.14375 31.0688 6.43125C31.3563 6.71875 31.5 7.075 31.5 7.5V22.2C31.5 25.625 30.3063 28.5313 27.9188 30.9188C25.5313 33.3063 22.625 34.5 19.2 34.5ZM16.5 18V3C16.5 2.575 16.6438 2.21875 16.9313 1.93125C17.2188 1.64375 17.575 1.5 18 1.5C18.425 1.5 18.7813 1.64375 19.0688 1.93125C19.3563 2.21875 19.5 2.575 19.5 3V18H16.5ZM22.5 18V4.5C22.5 4.075 22.6438 3.71875 22.9313 3.43125C23.2188 3.14375 23.575 3 24 3C24.425 3 24.7813 3.14375 25.0688 3.43125C25.3563 3.71875 25.5 4.075 25.5 4.5V18H22.5Z" fill="#2E7BEE"/>
</g>
</svg>
