<svg width="28" height="28" viewBox="0 0 28 28" fill="none" xmlns="http://www.w3.org/2000/svg">
<mask id="mask0_240_53965" style="mask-type:alpha" maskUnits="userSpaceOnUse" x="0" y="0" width="28" height="28">
<rect width="28" height="28" transform="matrix(1 -8.74228e-08 -8.74228e-08 -1 0 28)" fill="#D9D9D9"/>
</mask>
<g mask="url(#mask0_240_53965)">
<path fill-rule="evenodd" clip-rule="evenodd" d="M3.70406 6.50415L4.66656 6.03748L4.66656 14.175L2.56656 9.62498C2.29433 9.02221 2.26517 8.41457 2.47906 7.80207C2.69294 7.18957 3.10128 6.75693 3.70406 6.50415ZM7.68531 4.19998C8.14225 3.73332 8.69156 3.49999 9.33322 3.49999L10.4707 3.49999C10.3735 3.61665 10.3054 3.73818 10.2666 3.86457C10.2277 3.99096 10.1791 4.12221 10.1207 4.25832L6.99989 12.8333L6.99989 5.86249C6.99989 5.22082 7.22836 4.66665 7.68531 4.19998ZM13.5332 3.73332C14.136 3.46109 14.7388 3.43193 15.3416 3.64582L24.1207 6.85415C24.7235 7.06804 25.161 7.47151 25.4332 8.06457C25.7054 8.65762 25.7346 9.25554 25.5207 9.85832L20.3291 24.1208C20.1152 24.7236 19.7117 25.1611 19.1186 25.4333C18.5256 25.7055 17.9277 25.7347 17.3249 25.5208L8.54572 22.3125C7.94295 22.0986 7.50545 21.6951 7.23322 21.1021C6.961 20.509 6.93183 19.9111 7.14572 19.3083L12.3082 5.04582C12.5221 4.44304 12.9304 4.00554 13.5332 3.73332ZM23.3332 9.04165L14.5249 5.83332L9.33322 20.125L18.1124 23.3333L23.3332 9.04165Z" fill="white"/>
</g>
</svg>
