<svg width="38" height="38" viewBox="0 0 38 38" fill="none" xmlns="http://www.w3.org/2000/svg">
<g clip-path="url(#clip0_211_19541)">
<path d="M19 21.8061C20.8706 21.8061 22.387 20.326 22.387 18.5002C22.387 16.6744 20.8706 15.1943 19 15.1943C17.1295 15.1943 15.6131 16.6744 15.6131 18.5002C15.6131 20.326 17.1295 21.8061 19 21.8061Z" fill="#61DAFB"/>
<path d="M19 25.5222C29.0372 25.5222 37.1739 22.4898 37.1739 18.7491C37.1739 15.0085 29.0372 11.9761 19 11.9761C8.96285 11.9761 0.826111 15.0085 0.826111 18.7491C0.826111 22.4898 8.96285 25.5222 19 25.5222Z" stroke="#61DAFB" stroke-width="1.21739"/>
<path d="M12.9905 22.1354C18.0091 30.6198 24.768 35.9816 28.087 34.1112C31.4059 32.2409 30.0281 23.8467 25.0095 15.3624C19.9909 6.87796 13.232 1.5162 9.91305 3.38652C6.59412 5.25684 7.97196 13.651 12.9905 22.1354Z" stroke="#61DAFB" stroke-width="1.21739"/>
<path d="M12.9905 15.3623C7.97193 23.8467 6.59409 32.2408 9.91303 34.1111C13.232 35.9815 19.9909 30.6197 25.0094 22.1353C30.028 13.6509 31.4059 5.25675 28.0869 3.38643C24.768 1.5161 18.0091 6.87787 12.9905 15.3623Z" stroke="#61DAFB" stroke-width="1.21739"/>
</g>
<defs>
<clipPath id="clip0_211_19541">
<rect width="38" height="38" fill="white"/>
</clipPath>
</defs>
</svg>
