<svg width="65" height="38" viewBox="0 0 65 38" fill="none" xmlns="http://www.w3.org/2000/svg">
<g clip-path="url(#clip0_219_946)">
<mask id="mask0_219_946" style="mask-type:luminance" maskUnits="userSpaceOnUse" x="0" y="1" width="66" height="35">
<path d="M0.173401 18.7988C0.173401 28.2194 14.6916 35.8564 32.6001 35.8564C50.5085 35.8564 65.0268 28.2194 65.0268 18.7988C65.0268 9.37831 50.5085 1.74113 32.6001 1.74113C14.6916 1.74113 0.173401 9.37831 0.173401 18.7988Z" fill="white"/>
</mask>
<g mask="url(#mask0_219_946)">
<path d="M0.173401 18.7988C0.173401 28.2194 14.6916 35.8564 32.6001 35.8564C50.5085 35.8564 65.0268 28.2194 65.0268 18.7988C65.0268 9.37831 50.5085 1.74113 32.6001 1.74113C14.6916 1.74113 0.173401 9.37831 0.173401 18.7988Z" fill="url(#paint0_radial_219_946)"/>
</g>
<mask id="mask1_219_946" style="mask-type:luminance" maskUnits="userSpaceOnUse" x="-2" y="-1" width="69" height="39">
<path d="M-1.17773 -0.201172H66.3778V37.7988H-1.17773V-0.201172Z" fill="white"/>
</mask>
<g mask="url(#mask1_219_946)">
<path d="M32.6001 34.5898C49.809 34.5898 63.7601 27.5198 63.7601 18.7986C63.7601 10.0775 49.809 3.00739 32.6001 3.00739C15.3911 3.00739 1.44009 10.0775 1.44009 18.7986C1.44009 27.5198 15.3911 34.5898 32.6001 34.5898Z" fill="#777BB3"/>
</g>
<mask id="mask2_219_946" style="mask-type:luminance" maskUnits="userSpaceOnUse" x="-2" y="-1" width="69" height="39">
<path d="M-1.17773 -0.201172H66.3778V37.7988H-1.17773V-0.201172Z" fill="white"/>
</mask>
<g mask="url(#mask2_219_946)">
<path d="M17.791 20.7566C19.2061 20.7566 20.2624 20.4957 20.9308 19.9813C21.5921 19.4722 22.0488 18.5901 22.2882 17.3596C22.5114 16.2095 22.4263 15.4065 22.0355 14.9731C21.636 14.5305 20.772 14.306 19.4678 14.306H17.2065L15.9528 20.7566H17.791ZM10.3948 28.7026C10.2898 28.7026 10.1901 28.6557 10.1234 28.5746C10.0565 28.4935 10.0294 28.3868 10.0495 28.2837L13.3719 11.1894C13.404 11.0242 13.5489 10.9048 13.7173 10.9048H20.8779C23.1284 10.9048 24.8034 11.5158 25.8563 12.7212C26.9148 13.9328 27.2417 15.6265 26.8278 17.7551C26.6593 18.6223 26.3696 19.4277 25.9668 20.1488C25.5634 20.8706 25.0304 21.5386 24.3822 22.1344C23.6062 22.8606 22.728 23.3872 21.7742 23.6971C20.8356 24.0028 19.6302 24.1579 18.1914 24.1579H15.2919L14.4639 28.4179C14.4318 28.5832 14.2871 28.7026 14.1186 28.7026H10.3948Z" fill="black"/>
<path d="M17.4967 14.6581H19.468C21.0421 14.6581 21.5888 15.0035 21.7746 15.2093C22.0828 15.5511 22.141 16.2717 21.9429 17.2931C21.7203 18.4366 21.3077 19.2474 20.7164 19.7027C20.111 20.1688 19.1267 20.405 17.7912 20.405H16.3798L17.4967 14.6581ZM20.8781 10.5531H13.7173C13.3805 10.5531 13.0909 10.7919 13.0266 11.1226L9.70423 28.2168C9.66412 28.4231 9.7183 28.6365 9.85189 28.7987C9.98559 28.9609 10.1847 29.0547 10.3949 29.0547H14.1187C14.4556 29.0547 14.7452 28.8159 14.8095 28.4853L15.5821 24.5099H18.1916C19.6673 24.5099 20.9095 24.349 21.8836 24.0318C22.8853 23.7063 23.8069 23.1545 24.6226 22.3917C25.2972 21.771 25.8529 21.0743 26.274 20.3208C26.6952 19.567 26.9977 18.7264 27.1733 17.8224C27.609 15.5818 27.2551 13.7876 26.1214 12.49C24.9988 11.2048 23.2346 10.5531 20.8781 10.5531ZM15.5261 21.1087H17.7912C19.2925 21.1087 20.4108 20.8259 21.1456 20.2603C21.8805 19.6945 22.3762 18.7502 22.6337 17.427C22.8801 16.1566 22.7679 15.2601 22.297 14.7378C21.8255 14.2156 20.8827 13.9544 19.468 13.9544H16.9166L15.5261 21.1087ZM20.8781 11.2568C23.0323 11.2568 24.6037 11.8222 25.5915 12.9529C26.5792 14.0836 26.8766 15.6619 26.4825 17.6882C26.3203 18.5229 26.046 19.2861 25.6598 19.9775C25.2731 20.6694 24.7682 21.302 24.1442 21.8756C23.4006 22.5715 22.5746 23.0673 21.6657 23.3627C20.7567 23.6588 19.599 23.8062 18.1916 23.8062H15.0019L14.1187 28.351H10.3949L13.7173 11.2568H20.8781Z" fill="white"/>
<path d="M35.3657 24.1577C35.2606 24.1577 35.1611 24.1108 35.0943 24.0296C35.0274 23.9486 35.0003 23.842 35.0203 23.7388L36.49 16.1753C36.6298 15.4559 36.5953 14.9397 36.393 14.7215C36.2692 14.5882 35.8971 14.3645 34.7971 14.3645H32.1345L30.2867 23.8729C30.2546 24.0383 30.1098 24.1577 29.9413 24.1577H26.2469C26.1418 24.1577 26.0422 24.1108 25.9754 24.0296C25.9085 23.9486 25.8814 23.8419 25.9015 23.7388L29.2239 6.64452C29.256 6.47927 29.4009 6.35987 29.5693 6.35987H33.2638C33.3688 6.35987 33.4684 6.40679 33.5353 6.48783C33.6021 6.56899 33.6292 6.6756 33.6092 6.77881L32.8074 10.9046H35.6717C37.8538 10.9046 39.3334 11.2893 40.1952 12.0808C41.0737 12.8881 41.3478 14.1791 41.01 15.9182L39.4642 23.8729C39.4321 24.0383 39.2873 24.1577 39.1188 24.1577H35.3657Z" fill="black"/>
<path d="M33.2641 6.00822H29.5696C29.2327 6.00822 28.9431 6.24701 28.8788 6.57764L25.5564 23.6719C25.5163 23.8782 25.5705 24.0915 25.7042 24.2537C25.8379 24.4159 26.037 24.5098 26.2472 24.5098H29.9416C30.2785 24.5098 30.5682 24.271 30.6324 23.9404L32.4249 14.7166H34.7974C35.8956 14.7166 36.126 14.9511 36.1353 14.9612C36.2019 15.0329 36.2895 15.3648 36.1449 16.1084L34.6752 23.6719C34.6351 23.8782 34.6893 24.0915 34.823 24.2537C34.9567 24.4159 35.1559 24.5098 35.366 24.5098H39.1191C39.456 24.5098 39.7456 24.271 39.8099 23.9404L41.3556 15.9856C41.7184 14.1183 41.408 12.7176 40.4336 11.822C39.5038 10.968 37.9463 10.553 35.672 10.553H33.2344L33.9549 6.84622C33.9949 6.63992 33.9408 6.42646 33.8071 6.26437C33.6734 6.10217 33.4742 6.00822 33.2641 6.00822ZM33.2641 6.71193L32.3808 11.2567H35.672C37.7429 11.2567 39.1713 11.6181 39.9575 12.3401C40.7436 13.0626 40.9791 14.2332 40.6649 15.8514L39.1191 23.8061H35.366L36.8357 16.2427C37.003 15.3823 36.9415 14.7954 36.6511 14.4825C36.3606 14.1695 35.7426 14.0129 34.7974 14.0129H31.8447L29.9416 23.8061H26.2472L29.5696 6.71193H33.2641Z" fill="white"/>
<path d="M46.8556 20.7566C48.2707 20.7566 49.327 20.4957 49.9954 19.9813C50.6567 19.4723 51.1134 18.5902 51.3529 17.3596C51.5761 16.2095 51.491 15.4065 51.1001 14.9731C50.7005 14.5305 49.8366 14.306 48.5324 14.306H46.2711L45.0174 20.7566H46.8556ZM39.4595 28.7026C39.3545 28.7026 39.2548 28.6557 39.1881 28.5746C39.1212 28.4935 39.094 28.3868 39.1141 28.2837L42.4365 11.1894C42.4687 11.0242 42.6135 10.9048 42.782 10.9048H49.9425C52.1931 10.9048 53.868 11.5158 54.921 12.7212C55.9795 13.9327 56.3062 15.6264 55.8925 17.7551C55.7238 18.6223 55.4342 19.4277 55.0314 20.1488C54.628 20.8706 54.095 21.5386 53.4467 22.1344C52.6708 22.8606 51.7926 23.3872 50.8388 23.6971C49.9002 24.0028 48.6948 24.1579 47.256 24.1579H44.3564L43.5287 28.4179C43.4965 28.5832 43.3518 28.7026 43.1832 28.7026H39.4595Z" fill="black"/>
<path d="M46.5615 14.6581H48.5328C50.1068 14.6581 50.6536 15.0035 50.8394 15.2093C51.1477 15.5511 51.2059 16.2717 51.0077 17.293C50.7851 18.4366 50.3724 19.2474 49.7811 19.7027C49.1757 20.1688 48.1915 20.405 46.856 20.405H45.4447L46.5615 14.6581ZM49.9429 10.5531H42.7822C42.4454 10.5531 42.1558 10.7919 42.0915 11.1226L38.7691 28.2168C38.729 28.4231 38.7832 28.6365 38.9168 28.7987C39.0505 28.9609 39.2496 29.0547 39.4598 29.0547H43.1836C43.5204 29.0547 43.8101 28.8159 43.8744 28.4853L44.6469 24.5099H47.2564C48.732 24.5099 49.9743 24.349 50.9483 24.0318C51.9501 23.7063 52.8719 23.1544 53.6876 22.3914C54.3622 21.7709 54.9177 21.0743 55.3388 20.3208C55.7599 19.567 56.0625 18.7264 56.2381 17.8224C56.6738 15.5817 56.3198 13.7875 55.1862 12.4899C54.0635 11.2048 52.2995 10.5531 49.9429 10.5531ZM44.591 21.1087H46.856C48.3573 21.1087 49.4756 20.8259 50.2104 20.2603C50.9454 19.6945 51.4409 18.7502 51.6985 17.427C51.945 16.1566 51.8328 15.2601 51.3618 14.7378C50.8903 14.2156 49.9474 13.9544 48.5328 13.9544H45.9814L44.591 21.1087ZM49.9429 11.2568C52.097 11.2568 53.6685 11.8222 54.6563 12.9529C55.644 14.0836 55.9414 15.6619 55.5473 17.6882C55.3851 18.5229 55.1108 19.2861 54.7245 19.9775C54.3378 20.6694 53.8329 21.302 53.209 21.8756C52.4654 22.5715 51.6394 23.0673 50.7304 23.3627C49.8215 23.6588 48.6638 23.8062 47.2564 23.8062H44.0667L43.1836 28.351H39.4598L42.7822 11.2568H49.9429Z" fill="white"/>
</g>
</g>
<defs>
<radialGradient id="paint0_radial_219_946" cx="0" cy="0" r="1" gradientUnits="userSpaceOnUse" gradientTransform="translate(19.6425 7.73807) scale(42.5809 42.5809)">
<stop stop-color="#AEB2D5"/>
<stop offset="0.3" stop-color="#AEB2D5"/>
<stop offset="0.75" stop-color="#484C89"/>
<stop offset="1" stop-color="#484C89"/>
</radialGradient>
<clipPath id="clip0_219_946">
<rect width="65" height="38" fill="white"/>
</clipPath>
</defs>
</svg>
