<svg width="38" height="38" viewBox="0 0 38 38" fill="none" xmlns="http://www.w3.org/2000/svg">
<path d="M32.9999 7.46777L30.5402 34.9435L19.4834 37.9999L8.4571 34.9478L5.99994 7.46777H32.9999Z" fill="#264DE4"/>
<path d="M28.4343 33.1941L30.5364 9.71484H19.4999V35.6639L28.4343 33.1941Z" fill="#2965F1"/>
<path d="M11.6329 19.9067L11.9359 23.277H19.4999V19.9067H11.6329Z" fill="#EBEBEB"/>
<path d="M19.4999 13.085H19.4882H11.0242L11.3315 16.4553H19.4999V13.085Z" fill="#EBEBEB"/>
<path d="M19.4999 32.1665V28.66L19.4851 28.6639L15.7207 27.6504L15.48 24.9624H13.6508H12.0869L12.5605 30.2543L19.4844 32.1708L19.4999 32.1665Z" fill="#EBEBEB"/>
<path d="M12.3545 0H16.4484V1.70703H14.0665V3.41406H16.4484V5.12109H12.3545V0Z" fill="#EBEBEB"/>
<path d="M17.2669 0H21.3608V1.48438H18.9789V1.78125H21.3608V5.19531H17.2669V3.63672H19.6488V3.33984H17.2669V0Z" fill="#EBEBEB"/>
<path d="M22.1796 0H26.2735V1.48438H23.8916V1.78125H26.2735V5.19531H22.1796V3.63672H24.5615V3.33984H22.1796V0Z" fill="#EBEBEB"/>
<path d="M23.6505 23.2768L23.2581 27.6479L19.4883 28.6624V32.1688L26.4177 30.2539L26.4685 29.6845L27.2628 20.8116L27.3453 19.9066L27.9555 13.085H19.4883V16.4553H24.2512L23.9436 19.9066H19.4883V23.2768H23.6505Z" fill="white"/>
</svg>
