<svg width="39" height="38" viewBox="0 0 39 38" fill="none" xmlns="http://www.w3.org/2000/svg">
<g clip-path="url(#clip0_211_19882)">
<path fill-rule="evenodd" clip-rule="evenodd" d="M35.5021 29.6C33.4353 29.5424 31.832 29.7543 30.4881 30.3196C30.1012 30.475 29.4802 30.475 29.4293 30.962C29.636 31.1663 29.661 31.5008 29.8423 31.784C30.1522 32.2981 30.6955 32.9906 31.1861 33.3498L32.8399 34.5316C33.8477 35.1476 34.9848 35.5074 35.9666 36.1239C36.5355 36.4837 37.1037 36.9459 37.6725 37.3316C37.9621 37.5371 38.1376 37.8716 38.4997 37.9994V37.9217C38.319 37.6914 38.2668 37.3575 38.0867 37.0996L37.3105 36.3553C36.5615 35.3537 35.6307 34.4798 34.6228 33.7614C33.7956 33.1961 31.9872 32.4259 31.6512 31.476L31.6003 31.4185C32.1679 31.3609 32.8399 31.1612 33.3832 31.0069C34.2625 30.7766 35.063 30.8273 35.9666 30.5964L37.208 30.2367V30.0064C36.7428 29.5441 36.4069 28.9276 35.9162 28.4913C34.5984 27.3613 33.1503 26.2566 31.6512 25.3321C30.8501 24.8186 29.8162 24.4841 28.9635 24.0484C28.6525 23.8941 28.1364 23.8169 27.9557 23.5602C27.4894 22.9961 27.2316 22.2506 26.8956 21.5823L24.7768 17.1134C24.3116 16.1118 24.0266 15.1102 23.459 14.1857C20.7968 9.81931 17.9017 7.17417 13.4565 4.57969C12.5008 4.0403 11.3637 3.80831 10.1548 3.52624L8.21668 3.42262C7.80252 3.24302 7.38952 2.75486 7.02749 2.52345C5.55447 1.59895 1.7552 -0.404334 0.66911 2.23562C-0.0288817 3.90502 1.70306 5.54852 2.291 6.39646C2.73122 6.98708 3.29888 7.65484 3.60994 8.3226C3.78371 8.75895 3.84164 9.22178 4.02295 9.68403C4.43595 10.814 4.82404 12.073 5.3668 13.1264C5.65642 13.6658 5.96052 14.2317 6.32255 14.7193C6.52934 15.0071 6.89137 15.1303 6.96841 15.5926C6.60638 16.1066 6.58147 16.8763 6.37468 17.5193C5.44383 20.4217 5.80586 24.0173 7.12365 26.1541C7.53781 26.796 8.51384 28.2092 9.838 27.6692C11.0011 27.207 10.7416 25.7431 11.0776 24.4588C11.1558 24.1508 11.1036 23.9453 11.2583 23.7392V23.7968L12.3183 25.9285C13.1194 27.1868 14.5154 28.497 15.678 29.3709C16.2978 29.8331 16.7889 30.6298 17.564 30.9119V30.8342H17.513C17.3578 30.6039 17.1249 30.5003 16.9181 30.3207C16.453 29.8585 15.9363 29.2932 15.5743 28.7797C14.4893 27.3417 13.5336 25.7488 12.6804 24.1054C12.2662 23.3092 11.9042 22.4359 11.5694 21.6398C11.413 21.3313 11.413 20.8684 11.1552 20.7153C10.7671 21.2795 10.1994 21.7688 9.91388 22.4619C9.42268 23.566 9.3717 24.9274 9.19098 26.34C9.08671 26.3659 9.13306 26.34 9.08672 26.3976C8.26071 26.1927 7.97572 25.3442 7.66582 24.6257C6.89079 22.8021 6.76104 19.8743 7.43296 17.768C7.61369 17.2286 8.38988 15.5333 8.07998 15.0198C7.92359 14.5316 7.40805 14.2496 7.12306 13.8639C6.7871 13.3757 6.42623 12.7598 6.19338 12.2204C5.57358 10.7812 5.26369 9.18954 4.59118 7.75098C4.28013 7.08322 3.73796 6.38955 3.29831 5.7736C2.80711 5.07994 2.26551 4.59178 1.87742 3.77032C1.74824 3.48249 1.56752 3.02542 1.77431 2.71687C1.82528 2.51136 1.92955 2.42904 2.13518 2.38299C2.47114 2.09516 3.42806 2.46013 3.76402 2.61325C4.71977 2.99894 5.52087 3.35815 6.32197 3.89697C6.684 4.15371 7.0721 4.64186 7.53723 4.77081H8.08056C8.90772 4.95042 9.83742 4.82838 10.6119 5.05864C11.9818 5.49614 13.2219 6.13742 14.3341 6.83166C17.7192 8.96331 20.5112 11.9941 22.3972 15.6162C22.7071 16.2068 22.8363 16.7462 23.1213 17.3627C23.6646 18.6217 24.3365 19.9054 24.8781 21.139C25.4215 22.3461 25.9381 23.5798 26.7132 24.5814C27.1013 25.1208 28.6513 25.4029 29.3487 25.6855C29.866 25.9158 30.6665 26.123 31.1328 26.4051C32.011 26.9445 32.8897 27.561 33.7163 28.1516C34.1293 28.459 35.4221 29.1015 35.4992 29.6138L35.5021 29.6ZM9.14638 7.28067C8.78931 7.27753 8.43335 7.32068 8.08751 7.40904V7.4666H8.13849C8.34528 7.87762 8.70731 8.16027 8.96566 8.52005L9.56054 9.75311L9.61151 9.69554C9.97354 9.4388 10.1548 9.02778 10.1548 8.41183C9.99961 8.23223 9.97412 8.05205 9.84494 7.87244C9.68971 7.6157 9.35375 7.48675 9.14638 7.28182V7.28067Z" fill="white"/>
</g>
<defs>
<clipPath id="clip0_211_19882">
<rect width="38" height="38" fill="white" transform="translate(0.499603)"/>
</clipPath>
</defs>
</svg>
