<svg width="38" height="38" viewBox="0 0 38 38" fill="none" xmlns="http://www.w3.org/2000/svg">
<g clip-path="url(#clip0_211_19673)">
<path d="M17.7569 0.0297477C17.6753 0.0371689 17.4155 0.0631429 17.1818 0.0816958C11.7903 0.567781 6.74022 3.47687 3.54171 7.94811C1.76063 10.4342 0.621484 13.2542 0.191057 16.2412C0.0389234 17.2839 0.0203705 17.5919 0.0203705 19.0056C0.0203705 20.4194 0.0389234 20.7273 0.191057 21.77C1.2226 28.898 6.29495 34.8869 13.1744 37.1058C14.4063 37.5028 15.705 37.7737 17.1818 37.937C17.7569 38.0001 20.243 38.0001 20.8181 37.937C23.3673 37.655 25.5269 37.0242 27.6567 35.937C27.9833 35.77 28.0463 35.7255 28.0018 35.6884C27.9721 35.6661 26.5807 33.7997 24.9109 31.5437L21.8757 27.4435L18.0723 21.8145C15.9796 18.7199 14.2578 16.1893 14.243 16.1893C14.2282 16.1856 14.2133 18.6865 14.2059 21.7403C14.1948 27.0873 14.1911 27.3025 14.1243 27.4286C14.0278 27.6105 13.9536 27.6847 13.7977 27.7663C13.679 27.8257 13.5751 27.8368 13.0148 27.8368H12.3729L12.2022 27.7292C12.0909 27.6587 12.0092 27.5659 11.9536 27.4583L11.8757 27.2913L11.8831 19.8516L11.8942 12.4082L12.0092 12.2635C12.0686 12.1856 12.1948 12.0854 12.2838 12.0372C12.436 11.963 12.4953 11.9555 13.1373 11.9555C13.8942 11.9555 14.0204 11.9852 14.217 12.2004C14.2727 12.2598 16.3321 15.3618 18.7959 19.0984C21.2597 22.8349 24.6289 27.937 26.2838 30.4416L29.2894 34.9945L29.4415 34.8943C30.7885 34.0186 32.2133 32.7719 33.3413 31.4732C35.7421 28.7162 37.2894 25.3544 37.8089 21.77C37.961 20.7273 37.9796 20.4194 37.9796 19.0056C37.9796 17.5919 37.961 17.2839 37.8089 16.2412C36.7773 9.11323 31.705 3.12437 24.8256 0.905443C23.6122 0.512122 22.3209 0.24125 20.8738 0.0779852C20.5176 0.0408794 18.0649 6.31027e-05 17.7569 0.0297477ZM25.5269 11.5103C25.705 11.5993 25.8497 11.77 25.9016 11.9481C25.9313 12.0446 25.9387 14.1077 25.9313 18.757L25.9202 25.4286L24.7439 23.6253L23.564 21.822V16.9722C23.564 13.8368 23.5788 12.0743 23.6011 11.9889C23.6604 11.7811 23.7903 11.6179 23.9684 11.5214C24.1206 11.4435 24.1762 11.4361 24.7588 11.4361C25.3079 11.4361 25.4044 11.4435 25.5269 11.5103Z" fill="white"/>
<path d="M29.1039 35.076C28.974 35.1576 28.9332 35.2133 29.0482 35.1502C29.1298 35.1019 29.2634 35.0018 29.2412 34.998C29.23 34.998 29.167 35.0352 29.1039 35.076ZM28.8478 35.2429C28.7811 35.2949 28.7811 35.2986 28.8627 35.2578C28.9072 35.2355 28.9443 35.2095 28.9443 35.2021C28.9443 35.1724 28.9258 35.1799 28.8478 35.2429ZM28.6623 35.3543C28.5955 35.4062 28.5955 35.4099 28.6772 35.3691C28.7217 35.3468 28.7588 35.3209 28.7588 35.3134C28.7588 35.2838 28.7402 35.2912 28.6623 35.3543ZM28.4768 35.4656C28.41 35.5175 28.41 35.5212 28.4916 35.4804C28.5362 35.4582 28.5733 35.4322 28.5733 35.4248C28.5733 35.3951 28.5547 35.4025 28.4768 35.4656ZM28.1948 35.614C28.0538 35.6882 28.0612 35.7179 28.2022 35.6474C28.2653 35.614 28.3135 35.5806 28.3135 35.5732C28.3135 35.5472 28.3098 35.5509 28.1948 35.614Z" fill="white"/>
</g>
<defs>
<clipPath id="clip0_211_19673">
<rect width="38" height="38" fill="white"/>
</clipPath>
</defs>
</svg>
