<svg width="38" height="38" viewBox="0 0 38 38" fill="none" xmlns="http://www.w3.org/2000/svg">
<g clip-path="url(#clip0_219_1027)">
<path d="M8.04532 0H9.75235V1.69219H11.3258V0H13.0328V5.12109H11.3258V3.41406H9.76719V5.12109H8.04532M15.2891 1.70703H13.7824V0H18.5102V1.70703H16.9961V5.12109H15.2891M19.2598 0H21.0484L22.1469 1.80352L23.2453 0H25.034V5.12109H23.327V2.58281L22.132 4.42344L20.9371 2.58281V5.12109H19.2598M25.8801 0H27.5871V3.42891H30.0066V5.12109H25.8801" fill="#EBEBEB"/>
<path d="M7.98593 34.9569L5.53671 7.46631H32.4633L30.0141 34.9421L18.9777 37.9999" fill="#E44D26"/>
<path d="M19 35.6621V9.72266H30.0066L27.9062 33.1758" fill="#F16529"/>
<path d="M10.5391 13.085H19V16.4545H14.2352L14.5469 19.9057H19V23.2678H11.4594M11.6078 24.96H14.9922L15.2297 27.6541L19 28.6635V32.1814L12.0828 30.2518" fill="#EBEBEB"/>
<path d="M27.4313 13.085H18.9852V16.4545H27.1195M26.8152 19.9057H18.9852V23.2752H23.1414L22.7481 27.6541L18.9852 28.6635V32.1666L25.8875 30.2518" fill="white"/>
</g>
<defs>
<clipPath id="clip0_219_1027">
<rect width="38" height="38" fill="white"/>
</clipPath>
</defs>
</svg>
