<svg width="20" height="20" viewBox="0 0 20 20" fill="none" xmlns="http://www.w3.org/2000/svg">
<path fill-rule="evenodd" clip-rule="evenodd" d="M9.95815 3.00034C10.3464 2.9976 10.5706 3.01128 10.8467 3.0523C11.049 3.08238 11.2842 3.11793 11.3662 3.13434C11.4482 3.15075 11.6587 3.19998 11.831 3.24647C12.0032 3.29296 12.3176 3.39689 12.5282 3.48167C12.7387 3.56371 13.0039 3.67858 13.116 3.73601C13.2281 3.79344 13.455 3.92198 13.6218 4.02317C13.7886 4.12436 14.0346 4.29118 14.1686 4.39237C14.3026 4.49356 14.5322 4.67953 14.6744 4.80807C14.8166 4.93387 15.0435 5.16086 15.1774 5.30854C15.3114 5.45896 15.5028 5.69142 15.604 5.82816C15.7051 5.96491 15.8719 6.21104 15.9731 6.37513C16.0742 6.54196 16.2027 6.76895 16.2601 6.88108C16.3175 6.99321 16.4324 7.25849 16.5144 7.46907C16.5992 7.67965 16.703 7.99416 16.7495 8.16646C16.796 8.33875 16.8452 8.54933 16.8616 8.63138C16.878 8.71342 16.9163 8.95409 16.9436 9.16467C16.9792 9.41628 16.9983 9.69797 16.9983 9.98513C16.9983 10.2258 16.9847 10.5212 16.9682 10.6415C16.9518 10.7618 16.9163 10.9943 16.8862 11.1611C16.8589 11.3279 16.7933 11.6151 16.7413 11.8038C16.6894 11.9925 16.591 12.2933 16.5199 12.4738C16.4488 12.6543 16.3121 12.9552 16.0387 13.4857L16.5089 15.2087C16.7659 16.1549 16.9847 16.9508 16.9956 16.9727C17.0065 17 16.9983 17.0055 16.9573 16.9945C16.9272 16.9836 16.1644 16.7457 13.6218 15.9553L13.4987 16.0291C13.4304 16.0674 13.2035 16.185 12.9929 16.2889C12.7824 16.3929 12.4871 16.5214 12.3368 16.5761C12.1864 16.6335 11.9103 16.7183 11.7216 16.7675C11.533 16.814 11.2514 16.8769 11.0928 16.9015C10.9342 16.9262 10.7319 16.959 10.6417 16.9727C10.5514 16.9863 10.2616 17 9.99916 17C9.66561 17 9.40861 16.9836 9.15161 16.9453C8.94929 16.9152 8.71416 16.8797 8.63214 16.8633C8.55012 16.8468 8.3396 16.7976 8.16735 16.7511C7.99511 16.7046 7.68069 16.6007 7.47017 16.5159C7.25965 16.4339 6.99444 16.319 6.88235 16.2616C6.77025 16.2042 6.54333 16.0756 6.37655 15.9744C6.21251 15.8732 5.96644 15.7064 5.82974 15.6052C5.69304 15.504 5.46064 15.3126 5.31027 15.1786C5.16263 15.0446 4.93571 14.8176 4.80994 14.6754C4.68144 14.5332 4.49552 14.3034 4.39436 14.1694C4.2932 14.0354 4.12643 13.7893 4.02527 13.6225C3.92411 13.4556 3.79561 13.2287 3.73819 13.1165C3.68078 13.0044 3.56595 12.7391 3.48393 12.5285C3.39917 12.3179 3.29528 12.0034 3.2488 11.8311C3.20232 11.6589 3.15311 11.4483 3.1367 11.3662C3.1203 11.2842 3.08202 11.0435 3.05468 10.8329C3.01914 10.5813 3 10.2996 3 10.0125C3 9.77181 3.01914 9.42722 3.04101 9.24672C3.06562 9.06622 3.10116 8.82008 3.12577 8.69975C3.14764 8.57942 3.20232 8.33875 3.2488 8.16646C3.29528 7.99416 3.39917 7.67965 3.48393 7.46907C3.56595 7.25849 3.68078 6.99321 3.73819 6.88108C3.79561 6.76895 3.92411 6.54196 4.02527 6.37513C4.12643 6.21104 4.2932 5.96491 4.39436 5.82816C4.49552 5.69142 4.68691 5.45896 4.82088 5.30854C4.95484 5.16086 5.18177 4.93387 5.32394 4.80807C5.46611 4.67953 5.69577 4.49356 5.82974 4.39237C5.96644 4.29118 6.21251 4.12436 6.37655 4.02317C6.54333 3.92198 6.77025 3.79344 6.88235 3.73601C6.99444 3.67858 7.25965 3.56371 7.47017 3.48167C7.68069 3.39689 8.01971 3.28749 8.22203 3.2328C8.42435 3.18084 8.71416 3.11793 8.86453 3.09606C9.0149 3.07144 9.20629 3.04136 9.28831 3.02768C9.37033 3.01401 9.67381 3.00307 9.95815 3.00034ZM9.28831 5.54374C9.17621 5.56015 8.98483 5.5957 8.86453 5.62579C8.74423 5.65587 8.53098 5.72424 8.39428 5.7762C8.25484 5.82816 8.04979 5.91294 7.94316 5.96764C7.8338 6.02234 7.62601 6.14541 7.48384 6.23839C7.34167 6.33411 7.12021 6.50094 6.99171 6.61306C6.86321 6.72519 6.69096 6.89475 6.60621 6.99321C6.52419 7.08893 6.39842 7.24208 6.3328 7.33233C6.26445 7.42258 6.16056 7.57573 6.10314 7.67418C6.043 7.77264 5.9473 7.9504 5.88989 8.07074C5.83247 8.19107 5.74225 8.41259 5.69304 8.56301C5.64109 8.71342 5.57274 8.96503 5.5372 9.12365C5.48525 9.37252 5.47705 9.49012 5.47705 9.9988C5.47705 10.5075 5.48525 10.6251 5.5372 10.874C5.57274 11.0326 5.64109 11.2842 5.69304 11.4346C5.74225 11.585 5.83247 11.8065 5.88989 11.9269C5.9473 12.0472 6.043 12.225 6.10314 12.3234C6.16056 12.4219 6.26445 12.575 6.3328 12.6653C6.39842 12.7555 6.52419 12.9087 6.60621 13.0044C6.69096 13.1028 6.86321 13.2724 6.99171 13.3845C7.12021 13.4967 7.34167 13.6635 7.48384 13.7592C7.62601 13.8522 7.8338 13.9753 7.94316 14.03C8.04979 14.0847 8.25484 14.1694 8.39428 14.2214C8.53098 14.2734 8.74423 14.3417 8.86453 14.3718C8.98483 14.3992 9.17621 14.4402 9.28831 14.4593C9.40314 14.4785 9.69842 14.4949 9.95815 14.4949C10.3136 14.4921 10.4995 14.4785 10.7456 14.4347C10.9205 14.4019 11.2158 14.3253 11.4017 14.2624C11.5849 14.2023 11.8638 14.0847 12.0224 14.0026C12.1809 13.9206 12.4215 13.7729 12.5555 13.6772C12.6895 13.5814 12.9055 13.4037 13.034 13.2861C13.1625 13.1685 13.3511 12.9688 13.4523 12.8403C13.5562 12.7145 13.7093 12.4984 13.7913 12.3644C13.876 12.2304 13.9881 12.0253 14.0401 11.9132C14.0893 11.8011 14.1631 11.6288 14.1987 11.5303C14.2369 11.4319 14.2971 11.235 14.3299 11.0927C14.3654 10.9505 14.4092 10.729 14.4283 10.6005C14.4447 10.4719 14.4611 10.2012 14.4611 9.9988C14.4611 9.79642 14.4447 9.52567 14.4283 9.39713C14.4092 9.2686 14.3654 9.04707 14.3299 8.90486C14.2971 8.76265 14.2369 8.56574 14.1987 8.46729C14.1631 8.36883 14.0893 8.19654 14.0401 8.08441C13.9881 7.97228 13.876 7.76717 13.7913 7.63316C13.7093 7.49915 13.5562 7.2831 13.4523 7.1573C13.3511 7.02876 13.1625 6.82912 13.034 6.71152C12.9055 6.59392 12.6895 6.41616 12.5555 6.32044C12.4215 6.22472 12.1809 6.07703 12.0224 5.99499C11.8638 5.91294 11.5849 5.79535 11.4017 5.73518C11.2158 5.67228 10.926 5.59844 10.7592 5.56835C10.5897 5.53827 10.2835 5.50819 10.0812 5.50272C9.87886 5.49725 9.66287 5.49725 9.60273 5.50272C9.54258 5.50819 9.40041 5.52733 9.28831 5.54374ZM10.0265 6.3177C10.0784 6.32591 10.1714 6.36693 10.2288 6.41069C10.2862 6.45171 10.3874 6.55837 10.4503 6.64862C10.5159 6.73887 10.6116 6.90296 10.6663 7.01235C10.721 7.11901 10.8084 7.34053 10.8604 7.50462C10.9123 7.66598 10.9862 7.92305 11.0928 8.35789H8.91921L8.96296 8.14458C8.98756 8.02971 9.03404 7.83554 9.06959 7.71521C9.10239 7.59487 9.15981 7.41984 9.19535 7.32686C9.2309 7.23114 9.29925 7.07799 9.34573 6.985C9.3922 6.88928 9.48516 6.73613 9.55078 6.64315C9.61913 6.54196 9.72576 6.4353 9.80231 6.38607C9.90347 6.32044 9.94995 6.30676 10.0265 6.3177ZM8.5966 6.60759C8.60206 6.62127 8.56379 6.73066 8.51184 6.84826C8.46263 6.96312 8.38334 7.17644 8.33686 7.31865C8.29312 7.46087 8.23023 7.68239 8.20016 7.81093C8.16735 7.93946 8.12907 8.11449 8.08533 8.35789H7.38815C7.00538 8.35789 6.69096 8.34969 6.69096 8.33875C6.69096 8.32508 6.72924 8.2485 6.77845 8.16646C6.82493 8.08441 6.93156 7.92305 7.01358 7.81093C7.0956 7.6988 7.27605 7.49368 7.41275 7.35968C7.55219 7.22567 7.76818 7.04517 7.89395 6.95765C8.02245 6.87287 8.23023 6.75254 8.35873 6.69237C8.48723 6.62947 8.59386 6.59119 8.5966 6.60759ZM11.4127 6.60759C11.4263 6.60759 11.5439 6.66776 11.6779 6.73887C11.8091 6.80997 12.0196 6.94398 12.1427 7.03423C12.263 7.12721 12.4625 7.30498 12.5828 7.43078C12.7031 7.55659 12.859 7.73982 12.9301 7.83827C12.9984 7.93673 13.0996 8.09261 13.2527 8.35789H11.913L11.8829 8.19927C11.8693 8.11449 11.831 7.93946 11.7982 7.81093C11.7681 7.68239 11.7052 7.46087 11.6615 7.31865C11.615 7.17644 11.5384 6.96312 11.4865 6.84553C11.4345 6.73066 11.3935 6.62947 11.3935 6.62127C11.3935 6.61306 11.4017 6.60759 11.4154 6.60759H11.4127ZM6.36561 9.17835H7.95956V10.8193H6.36014L6.32734 10.6196C6.3082 10.513 6.29179 10.2313 6.29179 9.9988C6.29179 9.7636 6.3082 9.48738 6.32734 9.37526L6.36561 9.17835ZM8.80438 9.17835H11.1885L11.2076 9.43269C11.2185 9.57216 11.2295 9.82651 11.2295 9.9988C11.2295 10.1738 11.2185 10.4282 11.1885 10.822H8.80985L8.78798 10.5676C8.77704 10.4282 8.76884 10.1738 8.76884 9.9988C8.76884 9.82651 8.77704 9.57216 8.78524 9.43269L8.80438 9.17835ZM12.036 9.17835H12.7961C13.2117 9.17835 13.5534 9.18382 13.5534 9.19202C13.5534 9.20023 13.5726 9.30141 13.5972 9.41628C13.6218 9.54482 13.6382 9.78001 13.6382 9.9988C13.6382 10.2176 13.6218 10.4528 13.5972 10.5786C13.5726 10.6962 13.5534 10.7974 13.5534 10.8056C13.5534 10.8138 13.2117 10.8193 12.036 10.8193V9.17835ZM8.08533 11.6397L8.1154 11.7956C8.13181 11.8831 8.17008 12.0581 8.20016 12.1867C8.23023 12.3152 8.29312 12.5367 8.3396 12.6789C8.38334 12.8212 8.46263 13.0345 8.51457 13.1493C8.56379 13.2669 8.60206 13.3763 8.59933 13.39C8.59386 13.4064 8.48723 13.3681 8.35873 13.3052C8.23297 13.2451 8.02245 13.1247 7.89668 13.0399C7.76818 12.9524 7.55219 12.7719 7.41549 12.6379C7.27605 12.5039 7.0956 12.2988 7.01358 12.1867C6.93156 12.0745 6.82493 11.9132 6.77845 11.8311C6.73198 11.7491 6.6937 11.6725 6.69096 11.6588C6.69096 11.6479 7.00538 11.6397 8.08533 11.6397ZM8.91648 11.6397H11.0928L11.0244 11.9187C10.9889 12.0745 10.9151 12.3316 10.8604 12.493C10.8084 12.6571 10.7182 12.8841 10.6581 12.9989C10.6007 13.1165 10.5022 13.2806 10.4393 13.3627C10.3792 13.4447 10.2808 13.5459 10.2261 13.5897C10.1687 13.6307 10.0867 13.6717 10.0402 13.6826C9.98002 13.6936 9.92534 13.6799 9.82965 13.6252C9.7449 13.5814 9.65467 13.4912 9.57265 13.3818C9.5043 13.2888 9.40587 13.1302 9.35393 13.0263C9.30471 12.9251 9.23363 12.7665 9.19809 12.6707C9.16254 12.5778 9.10513 12.4027 9.06959 12.2824C9.03678 12.1621 8.98756 11.9679 8.96296 11.8503L8.91648 11.6397ZM11.9157 11.6397H13.2527L13.1543 11.812C13.0996 11.905 12.9984 12.0636 12.9301 12.1593C12.859 12.2578 12.7031 12.441 12.5828 12.5668C12.4625 12.6926 12.263 12.8704 12.1399 12.9634C12.0196 13.0564 11.8064 13.1904 11.6697 13.2615C11.533 13.3326 11.4154 13.3873 11.4072 13.3845C11.399 13.3818 11.4345 13.2779 11.4865 13.1575C11.5357 13.0399 11.615 12.8239 11.6615 12.6789C11.7052 12.5367 11.7681 12.3152 11.7982 12.1867C11.8282 12.0609 11.8693 11.8858 11.8857 11.7983L11.9157 11.6397Z" fill="#182233"/>
</svg>
