<svg width="147" height="37" viewBox="0 0 147 37" fill="none" xmlns="http://www.w3.org/2000/svg">
<g clip-path="url(#clip0_6004_54)">
<rect width="16.7408" height="32.8245" rx="8.3704" transform="matrix(0.871312 -0.490729 0.509329 0.860572 0 8.21518)" fill="#3FC3BC"/>
<rect width="16.7408" height="33.441" rx="8.3704" transform="matrix(0.871312 0.490729 -0.509329 0.860572 25.7031 0.00637817)" fill="#FF7272"/>
<path d="M143.534 21.3053L143.534 21.3048C143.928 20.3172 144.124 19.2351 144.124 18.0597C144.124 16.8843 143.928 15.8088 143.534 14.8344C143.14 13.861 142.578 13.017 141.846 12.3032C141.115 11.576 140.25 11.0205 139.253 10.6368C138.268 10.239 137.173 10.0409 135.969 10.0409H132.201C131.872 10.0409 131.59 10.1513 131.363 10.3727C131.132 10.5832 131.019 10.8612 131.019 11.1968V24.9429C131.019 25.2669 131.134 25.5434 131.362 25.7657C131.589 25.988 131.872 26.0987 132.201 26.0987H135.969C137.173 26.0987 138.268 25.9075 139.252 25.5234L139.253 25.5231C140.25 25.1259 141.114 24.5707 141.846 23.8571L141.847 23.8564C142.578 23.1293 143.14 22.2786 143.534 21.3053ZM138.999 12.8671L139 12.8674C139.886 13.3728 140.581 14.0704 141.085 14.9618C141.589 15.8516 141.843 16.8832 141.843 18.0597C141.843 19.2222 141.589 20.254 141.085 21.1578C140.581 22.0492 139.886 22.7538 138.999 23.2727C138.128 23.7771 137.119 24.0307 135.969 24.0307H133.384V12.109H135.969C137.119 12.109 138.128 12.3626 138.999 12.8671Z" fill="#182233" stroke="black" stroke-width="0.2"/>
<path d="M125.101 18.7835L125.101 18.7836L125.103 18.781C125.318 18.5717 125.425 18.3086 125.425 17.9988C125.425 17.6896 125.318 17.432 125.102 17.2355C124.886 17.0255 124.603 16.9242 124.263 16.9242H118.39V12.1902H126.615C126.954 12.1902 127.236 12.0964 127.453 11.9003C127.67 11.7037 127.777 11.4457 127.777 11.1359C127.777 10.8147 127.671 10.5498 127.454 10.3523C127.238 10.1423 126.955 10.0409 126.615 10.0409H117.207C116.878 10.0409 116.596 10.1513 116.369 10.3727C116.138 10.5832 116.025 10.8612 116.025 11.1968V24.9429C116.025 25.2669 116.139 25.5434 116.367 25.7657C116.595 25.988 116.877 26.0987 117.207 26.0987H126.615C126.954 26.0987 127.236 26.005 127.453 25.8089L127.453 25.8089L127.455 25.8063C127.671 25.5961 127.777 25.3257 127.777 25.0038C127.777 24.694 127.67 24.436 127.453 24.2393C127.236 24.0433 126.954 23.9495 126.615 23.9495H118.39V19.0734H124.263C124.602 19.0734 124.884 18.9796 125.101 18.7835Z" fill="#182233" stroke="black" stroke-width="0.2"/>
<path d="M97.5245 24.9429V15.4509L102.309 24.8046C102.31 24.8048 102.31 24.805 102.31 24.8051C102.42 25.028 102.567 25.2005 102.752 25.3168C102.937 25.4333 103.153 25.4896 103.398 25.4896C103.823 25.4896 104.165 25.294 104.418 24.9173L104.419 24.9178L104.424 24.9066L109.272 15.2682V24.9429C109.272 25.2669 109.386 25.5434 109.614 25.7657C109.842 25.988 110.124 26.0987 110.454 26.0987C110.771 26.0987 111.046 25.9874 111.272 25.7668C111.514 25.5453 111.637 25.2685 111.637 24.9429V11.1968C111.637 10.8612 111.523 10.5832 111.293 10.3727C111.065 10.1513 110.784 10.0409 110.454 10.0409C110 10.0409 109.649 10.2513 109.41 10.6589L109.41 10.6588L109.407 10.6648L103.476 22.5594L97.3886 10.6639L97.3887 10.6638L97.3859 10.6589C97.1471 10.2513 96.7962 10.0409 96.3421 10.0409C96.0128 10.0409 95.731 10.1513 95.5034 10.3727C95.2729 10.5832 95.1598 10.8612 95.1598 11.1968V24.9429C95.1598 25.2669 95.2742 25.5434 95.5022 25.7657C95.73 25.988 96.0122 26.0987 96.3421 26.0987C96.672 26.0987 96.9542 25.988 97.1821 25.7657C97.41 25.5434 97.5245 25.2669 97.5245 24.9429Z" fill="#182233" stroke="black" stroke-width="0.2"/>
<path d="M81 25.141V11C81 10.4477 81.4477 10 82 10L82.1797 10C82.732 10 83.1797 10.4477 83.1797 11V16.9805L89.429 10.4422C89.6884 10.1708 90.0781 10.0675 90.4378 10.1749L90.4788 10.1871C91.184 10.3975 91.428 11.2719 90.9337 11.8171L85.2 18.141L91.0372 24.6267C91.3095 24.9293 91.342 25.3779 91.1162 25.7166C90.8 26.1909 90.1259 26.2502 89.7317 25.8385L83.1797 18.9948V25.141C83.1797 25.6932 82.732 26.141 82.1797 26.141H82C81.4477 26.141 81 25.6932 81 25.141Z" fill="#182233" stroke="black" stroke-width="0.2"/>
<path d="M74.9757 18.7836L74.9757 18.7836L74.9784 18.781C75.1929 18.5717 75.2999 18.3086 75.2999 17.9988C75.2999 17.6896 75.1932 17.4321 74.977 17.2356C74.761 17.0255 74.478 16.9242 74.1384 16.9242H68.2647V12.1902H76.4904C76.8287 12.1902 77.1112 12.0964 77.3277 11.9003C77.5448 11.7037 77.652 11.4457 77.652 11.1359C77.652 10.8148 77.5463 10.5498 77.3291 10.3523C77.113 10.1423 76.83 10.041 76.4904 10.041H67.0823C66.753 10.041 66.4712 10.1513 66.2436 10.3727C66.0132 10.5832 65.9 10.8613 65.9 11.1968V24.9429C65.9 25.2669 66.0144 25.5434 66.2424 25.7657C66.4702 25.988 66.7524 26.0987 67.0823 26.0987H76.4904C76.8287 26.0987 77.1112 26.005 77.3277 25.8089L77.3277 25.8089L77.3304 25.8064C77.5459 25.5961 77.652 25.3257 77.652 25.0038C77.652 24.694 77.5448 24.436 77.3277 24.2393C77.1112 24.0433 76.8287 23.9495 76.4904 23.9495H68.2647V19.0734H74.1384C74.4767 19.0734 74.7592 18.9796 74.9757 18.7836Z" fill="#182233" stroke="black" stroke-width="0.2"/>
<path d="M53.1705 25.3696L53.1705 25.3696L53.1711 25.3709C53.2809 25.6065 53.4249 25.7897 53.606 25.9137C53.7877 26.0382 54.0005 26.0987 54.2401 26.0987C54.4913 26.0987 54.7072 26.0409 54.8807 25.9179L54.8807 25.9179L54.8819 25.917C55.0644 25.7835 55.2064 25.5996 55.3096 25.3696L55.3096 25.3695L61.4702 11.5837C61.647 11.2095 61.6519 10.8569 61.4671 10.5395C61.2925 10.2013 60.9678 10.041 60.526 10.041C60.2651 10.041 60.0441 10.0902 59.8707 10.1974C59.7064 10.2941 59.5709 10.4784 59.4567 10.7289L59.456 10.7305L54.2108 22.7801L49.066 10.7311L49.0659 10.7309C48.969 10.5056 48.8285 10.3311 48.6423 10.2137C48.4564 10.0966 48.2322 10.041 47.9749 10.041C47.5199 10.041 47.1866 10.2009 47.0118 10.542C46.8401 10.877 46.8711 11.2898 47.0711 11.7636L47.071 11.7636L47.0719 11.7656L53.1705 25.3696Z" fill="#182233" stroke="black" stroke-width="0.2"/>
</g>
<defs>
<clipPath id="clip0_6004_54">
<rect width="146.767" height="37" fill="white"/>
</clipPath>
</defs>
</svg>
