<svg width="147" height="37" viewBox="0 0 147 37" fill="none" xmlns="http://www.w3.org/2000/svg">
<mask id="mask0_6048_54" style="mask-type:luminance" maskUnits="userSpaceOnUse" x="0" y="0" width="147" height="37">
<path d="M146.767 0H0V37H146.767V0Z" fill="white"/>
</mask>
<g mask="url(#mask0_6048_54)">
<path d="M18.8497 7.20331C16.4952 3.22502 11.3212 1.83902 7.29323 4.10758C3.26529 6.37614 1.90874 11.4402 4.26329 15.4185L12.4552 29.2597C14.8097 33.238 19.9838 34.624 24.0117 32.3554C28.0396 30.0869 29.3962 25.0228 27.0416 21.0445L18.8497 7.20331Z" fill="#3FC3BC"/>
<path d="M36.0263 15.4249C38.3808 11.4466 37.0243 6.38254 32.9964 4.11398C28.9684 1.84541 23.7944 3.23142 21.4398 7.20971L12.9339 21.5814C10.5794 25.5597 11.9359 30.6238 15.9639 32.8924C19.9918 35.1609 25.1659 33.7749 27.5204 29.7966L36.0263 15.4249Z" fill="#FF7272"/>
<path d="M143.535 21.3053C143.929 20.3177 144.125 19.2351 144.125 18.0597C144.125 16.8843 143.929 15.8088 143.535 14.8344C143.141 13.861 142.579 13.017 141.847 12.3032C141.116 11.576 140.251 11.0205 139.254 10.6368C138.269 10.239 137.174 10.0409 135.97 10.0409H132.202C131.873 10.0409 131.591 10.1513 131.364 10.3727C131.133 10.5832 131.02 10.8612 131.02 11.1968V24.9429C131.02 25.2669 131.135 25.5434 131.363 25.7657C131.59 25.988 131.873 26.0987 132.202 26.0987H135.97C137.174 26.0987 138.269 25.9075 139.253 25.5234L139.254 25.5231C140.251 25.1259 141.115 24.5707 141.847 23.8571L141.848 23.8564C142.579 23.1293 143.141 22.2786 143.535 21.3053ZM139 12.8671L139.001 12.8674C139.887 13.3728 140.582 14.0704 141.086 14.9618C141.59 15.8516 141.844 16.8832 141.844 18.0597C141.844 19.2222 141.59 20.254 141.086 21.1578C140.582 22.0492 139.887 22.7538 139 23.2727C138.129 23.7771 137.12 24.0307 135.97 24.0307H133.385V12.109H135.97C137.12 12.109 138.129 12.3626 139 12.8671Z" fill="white" stroke="white" stroke-width="0.2"/>
<path d="M125.099 18.7835L125.101 18.781C125.316 18.5717 125.423 18.3086 125.423 17.9988C125.423 17.6896 125.316 17.432 125.1 17.2355C124.884 17.0255 124.601 16.9242 124.261 16.9242H118.388V12.1902H126.613C126.952 12.1902 127.234 12.0964 127.451 11.9003C127.668 11.7037 127.775 11.4457 127.775 11.1359C127.775 10.8147 127.669 10.5498 127.452 10.3523C127.236 10.1423 126.953 10.0409 126.613 10.0409H117.205C116.876 10.0409 116.594 10.1513 116.367 10.3727C116.136 10.5832 116.023 10.8612 116.023 11.1968V24.9429C116.023 25.2669 116.137 25.5434 116.365 25.7657C116.593 25.988 116.875 26.0987 117.205 26.0987H126.613C126.952 26.0987 127.234 26.005 127.451 25.8089L127.453 25.8063C127.669 25.5961 127.775 25.3257 127.775 25.0038C127.775 24.694 127.668 24.436 127.451 24.2393C127.234 24.0433 126.952 23.9495 126.613 23.9495H118.388V19.0734H124.261C124.6 19.0734 124.882 18.9796 125.099 18.7835Z" fill="white" stroke="white" stroke-width="0.2"/>
<path d="M97.5249 24.9429V15.4509L102.309 24.8046C102.31 24.8048 102.31 24.805 102.31 24.8051C102.42 25.028 102.567 25.2005 102.752 25.3168C102.937 25.4333 103.153 25.4896 103.398 25.4896C103.823 25.4896 104.165 25.294 104.418 24.9173L104.419 24.9178L104.424 24.9066L109.272 15.2682V24.9429C109.272 25.2669 109.386 25.5434 109.614 25.7657C109.842 25.988 110.124 26.0987 110.454 26.0987C110.771 26.0987 111.046 25.9874 111.272 25.7668C111.514 25.5453 111.637 25.2685 111.637 24.9429V11.1968C111.637 10.8612 111.523 10.5832 111.293 10.3727C111.065 10.1513 110.784 10.0409 110.454 10.0409C110 10.0409 109.649 10.2513 109.41 10.6589L109.407 10.6648L103.476 22.5594L97.389 10.6639L97.3863 10.6589C97.1475 10.2513 96.7966 10.0409 96.3425 10.0409C96.0132 10.0409 95.7314 10.1513 95.5038 10.3727C95.2733 10.5832 95.1602 10.8612 95.1602 11.1968V24.9429C95.1602 25.2669 95.2746 25.5434 95.5026 25.7657C95.7304 25.988 96.0126 26.0987 96.3425 26.0987C96.6724 26.0987 96.9546 25.988 97.1825 25.7657C97.4104 25.5434 97.5249 25.2669 97.5249 24.9429Z" fill="white" stroke="white" stroke-width="0.2"/>
<path d="M81 25.141V11C81 10.4477 81.4477 10 82 10H82.1797C82.732 10 83.1797 10.4477 83.1797 11V16.9805L89.429 10.4422C89.6884 10.1708 90.0781 10.0675 90.4378 10.1749L90.4788 10.1871C91.184 10.3975 91.428 11.2719 90.9337 11.8171L85.2 18.141L91.0372 24.6267C91.3095 24.9293 91.342 25.3779 91.1162 25.7166C90.8 26.1909 90.1259 26.2502 89.7317 25.8385L83.1797 18.9948V25.141C83.1797 25.6932 82.732 26.141 82.1797 26.141H82C81.4477 26.141 81 25.6932 81 25.141Z" fill="white" stroke="white" stroke-width="0.2"/>
<path d="M74.9741 18.7836L74.9768 18.781C75.1913 18.5717 75.2983 18.3086 75.2983 17.9988C75.2983 17.6896 75.1916 17.4321 74.9754 17.2356C74.7594 17.0255 74.4764 16.9242 74.1368 16.9242H68.2631V12.1902H76.4888C76.8271 12.1902 77.1096 12.0964 77.3261 11.9003C77.5432 11.7037 77.6504 11.4457 77.6504 11.1359C77.6504 10.8148 77.5447 10.5498 77.3275 10.3523C77.1114 10.1423 76.8284 10.041 76.4888 10.041H67.0807C66.7514 10.041 66.4696 10.1513 66.242 10.3727C66.0116 10.5832 65.8984 10.8613 65.8984 11.1968V24.9429C65.8984 25.2669 66.0128 25.5434 66.2408 25.7657C66.4686 25.988 66.7508 26.0987 67.0807 26.0987H76.4888C76.8271 26.0987 77.1096 26.005 77.3261 25.8089L77.3288 25.8064C77.5443 25.5961 77.6504 25.3257 77.6504 25.0038C77.6504 24.694 77.5432 24.436 77.3261 24.2393C77.1096 24.0433 76.8271 23.9495 76.4888 23.9495H68.2631V19.0734H74.1368C74.4751 19.0734 74.7576 18.9796 74.9741 18.7836Z" fill="white" stroke="white" stroke-width="0.2"/>
<path d="M53.1689 25.3696L53.1695 25.3709C53.2793 25.6065 53.4233 25.7897 53.6044 25.9137C53.7861 26.0382 53.9989 26.0987 54.2385 26.0987C54.4897 26.0987 54.7056 26.0409 54.8791 25.9179L54.8803 25.917C55.0628 25.7835 55.2048 25.5996 55.308 25.3696L61.4686 11.5837C61.6454 11.2095 61.6503 10.8569 61.4655 10.5395C61.2909 10.2013 60.9662 10.041 60.5244 10.041C60.2635 10.041 60.0425 10.0902 59.8691 10.1974C59.7048 10.2941 59.5693 10.4784 59.4551 10.7289L59.4544 10.7305L54.2092 22.7801L49.0644 10.7311C48.9675 10.5058 48.8269 10.3311 48.6407 10.2137C48.4548 10.0966 48.2306 10.041 47.9733 10.041C47.5183 10.041 47.185 10.2009 47.0102 10.542C46.8385 10.877 46.8695 11.2898 47.0695 11.7636L47.0703 11.7656L53.1689 25.3696Z" fill="white" stroke="white" stroke-width="0.2"/>
</g>
</svg>
