<svg width="242" height="48" viewBox="0 0 242 48" fill="none" xmlns="http://www.w3.org/2000/svg">
<rect width="48" height="48" rx="4.8" fill="white"/>
<g clip-path="url(#clip0_211_21672)">
<path d="M9.33331 11.9997C9.33331 10.5269 10.5272 9.33301 12 9.33301H25.3333C32.6971 9.33301 38.6666 15.3025 38.6666 22.6663V23.9997C38.6666 32.0998 32.1002 38.6663 24 38.6663H12C10.5272 38.6663 9.33331 37.4724 9.33331 35.9997V11.9997Z" fill="black"/>
<path d="M9.33331 38.6663L16.4616 34.2401V13.7593L9.33331 9.33301L9.33331 38.6663Z" fill="#0D99FF"/>
<path d="M33.3333 24.0372L21.017 16.6101V31.4643L33.3333 24.0372Z" fill="#82B55B"/>
</g>
<path d="M72.4886 37H64.8182L73.4602 10.8182H83.1761L91.8182 37H84.1477L78.4205 18.0284H78.2159L72.4886 37ZM71.0568 26.6705H85.4773V31.9886H71.0568V26.6705ZM94.4421 37V17.3636H101.294V21.0966H101.499C101.857 19.7159 102.424 18.706 103.199 18.0668C103.983 17.4276 104.9 17.108 105.948 17.108C106.255 17.108 106.557 17.1335 106.855 17.1847C107.162 17.2273 107.456 17.2912 107.738 17.3764V23.3977C107.388 23.2784 106.958 23.1889 106.446 23.1293C105.935 23.0696 105.496 23.0398 105.13 23.0398C104.439 23.0398 103.817 23.1974 103.263 23.5128C102.718 23.8196 102.287 24.2543 101.972 24.8168C101.657 25.3707 101.499 26.0227 101.499 26.7727V37H94.4421ZM122.57 17.3636V22.4773H109.633V17.3636H122.57ZM112.138 12.6591H119.195V30.6847C119.195 30.9574 119.242 31.1875 119.336 31.375C119.43 31.554 119.575 31.6903 119.771 31.7841C119.967 31.8693 120.218 31.9119 120.525 31.9119C120.738 31.9119 120.985 31.8864 121.266 31.8352C121.556 31.7841 121.769 31.7415 121.906 31.7074L122.928 36.6676C122.613 36.7614 122.161 36.8764 121.573 37.0128C120.994 37.1491 120.303 37.2386 119.502 37.2812C117.883 37.3665 116.523 37.2003 115.424 36.7827C114.325 36.3565 113.498 35.6875 112.944 34.7756C112.39 33.8636 112.121 32.7216 112.138 31.3494V12.6591ZM135.843 37H125.77V10.8182L135.741 10.8182C138.434 10.8182 140.761 11.3423 142.721 12.3906C144.69 13.4304 146.207 14.9304 147.272 16.8906C148.346 18.8423 148.883 21.1818 148.883 23.9091C148.883 26.6364 148.35 28.9801 147.285 30.9403C146.22 32.892 144.711 34.392 142.76 35.4403C140.808 36.4801 138.502 37 135.843 37ZM132.877 30.9659H135.588C136.883 30.9659 137.987 30.7571 138.899 30.3395C139.819 29.9219 140.518 29.2017 140.995 28.179C141.481 27.1562 141.724 25.733 141.724 23.9091C141.724 22.0852 141.477 20.6619 140.983 19.6392C140.497 18.6165 139.781 17.8963 138.835 17.4787C137.897 17.0611 136.747 16.8523 135.383 16.8523H132.877V30.9659ZM152.274 37V17.3636H159.331V37H152.274ZM155.803 15.3182C154.848 15.3182 154.03 15.0028 153.348 14.3722C152.666 13.7415 152.325 12.983 152.325 12.0966C152.325 11.2102 152.666 10.4517 153.348 9.82102C154.03 9.19034 154.848 8.875 155.803 8.875C156.766 8.875 157.584 9.19034 158.257 9.82102C158.939 10.4517 159.28 11.2102 159.28 12.0966C159.28 12.983 158.939 13.7415 158.257 14.3722C157.584 15.0028 156.766 15.3182 155.803 15.3182ZM172.387 44.7727C170.418 44.7727 168.73 44.4915 167.324 43.929C165.926 43.375 164.84 42.608 164.064 41.6278C163.297 40.6563 162.867 39.5398 162.773 38.2784H169.574C169.642 38.696 169.813 39.0327 170.086 39.2884C170.358 39.544 170.708 39.7273 171.134 39.8381C171.569 39.9574 172.054 40.017 172.591 40.017C173.503 40.017 174.257 39.7955 174.854 39.3523C175.459 38.9091 175.762 38.108 175.762 36.9489V33.625H175.557C175.301 34.2898 174.909 34.8565 174.381 35.3253C173.853 35.7855 173.218 36.1392 172.476 36.3864C171.735 36.625 170.921 36.7443 170.034 36.7443C168.637 36.7443 167.35 36.4205 166.174 35.7727C165.006 35.125 164.069 34.098 163.361 32.6918C162.662 31.2855 162.313 29.4489 162.313 27.1818C162.313 24.8125 162.679 22.8864 163.412 21.4034C164.154 19.9205 165.108 18.8338 166.276 18.1435C167.452 17.4531 168.688 17.108 169.983 17.108C170.955 17.108 171.807 17.2784 172.54 17.6193C173.273 17.9517 173.887 18.3991 174.381 18.9616C174.875 19.5156 175.25 20.125 175.506 20.7898H175.659V17.3636H182.716V36.9489C182.716 38.6108 182.286 40.0213 181.425 41.1804C180.573 42.348 179.371 43.2386 177.82 43.8523C176.269 44.4659 174.458 44.7727 172.387 44.7727ZM172.642 31.733C173.29 31.733 173.844 31.554 174.304 31.196C174.773 30.8295 175.131 30.3097 175.378 29.6364C175.634 28.9545 175.762 28.1364 175.762 27.1818C175.762 26.2102 175.634 25.3793 175.378 24.6889C175.131 23.9901 174.773 23.4574 174.304 23.0909C173.844 22.7159 173.29 22.5284 172.642 22.5284C171.995 22.5284 171.441 22.7159 170.98 23.0909C170.529 23.4574 170.179 23.9901 169.932 24.6889C169.694 25.3793 169.574 26.2102 169.574 27.1818C169.574 28.1534 169.694 28.9801 169.932 29.6619C170.179 30.3352 170.529 30.8509 170.98 31.2088C171.441 31.5582 171.995 31.733 172.642 31.733ZM186.305 37V17.3636L193.362 17.3636V37H186.305ZM189.834 15.3182C188.879 15.3182 188.061 15.0028 187.379 14.3722C186.697 13.7415 186.357 12.983 186.357 12.0966C186.357 11.2102 186.697 10.4517 187.379 9.82102C188.061 9.19034 188.879 8.875 189.834 8.875C190.797 8.875 191.615 9.19034 192.288 9.82102C192.97 10.4517 193.311 11.2102 193.311 12.0966C193.311 12.983 192.97 13.7415 192.288 14.3722C191.615 15.0028 190.797 15.3182 189.834 15.3182ZM208.668 17.3636V22.4773H195.73V17.3636H208.668ZM198.236 12.6591H205.293V30.6847C205.293 30.9574 205.34 31.1875 205.434 31.375C205.527 31.554 205.672 31.6903 205.868 31.7841C206.064 31.8693 206.316 31.9119 206.623 31.9119C206.836 31.9119 207.083 31.8864 207.364 31.8352C207.654 31.7841 207.867 31.7415 208.003 31.7074L209.026 36.6676C208.711 36.7614 208.259 36.8764 207.671 37.0128C207.091 37.1491 206.401 37.2386 205.6 37.2812C203.98 37.3665 202.621 37.2003 201.522 36.7827C200.422 36.3565 199.596 35.6875 199.042 34.7756C198.488 33.8636 198.219 32.7216 198.236 31.3494V12.6591ZM217.019 37.3068C215.766 37.3068 214.658 37.1023 213.695 36.6932C212.741 36.2756 211.991 35.6449 211.445 34.8011C210.9 33.9574 210.627 32.8835 210.627 31.5795C210.627 30.5057 210.81 29.5895 211.177 28.831C211.543 28.0639 212.055 27.4375 212.711 26.9517C213.367 26.4659 214.13 26.0952 214.999 25.8395C215.877 25.5838 216.823 25.4176 217.837 25.3409C218.937 25.2557 219.819 25.1534 220.484 25.0341C221.157 24.9062 221.643 24.7315 221.941 24.5099C222.239 24.2798 222.388 23.9773 222.388 23.6023V23.5511C222.388 23.0398 222.192 22.6477 221.8 22.375C221.408 22.1023 220.906 21.9659 220.292 21.9659C219.619 21.9659 219.069 22.1151 218.643 22.4134C218.225 22.7031 217.974 23.1506 217.888 23.7557H211.394C211.479 22.5625 211.859 21.4631 212.532 20.4574C213.214 19.4432 214.207 18.6335 215.511 18.0284C216.815 17.4148 218.442 17.108 220.394 17.108C221.8 17.108 223.062 17.2741 224.178 17.6065C225.295 17.9304 226.245 18.3864 227.029 18.9744C227.813 19.554 228.41 20.2358 228.819 21.0199C229.237 21.7955 229.445 22.6392 229.445 23.5511V37H222.849V34.2386H222.695C222.303 34.9716 221.826 35.5639 221.263 36.0156C220.71 36.4673 220.075 36.7955 219.359 37C218.651 37.2045 217.871 37.3068 217.019 37.3068ZM219.32 32.858C219.857 32.858 220.36 32.7472 220.829 32.5256C221.306 32.304 221.694 31.9844 221.992 31.5668C222.29 31.1491 222.44 30.642 222.44 30.0455V28.4091C222.252 28.4858 222.052 28.5582 221.839 28.6264C221.634 28.6946 221.413 28.7585 221.174 28.8182C220.944 28.8778 220.697 28.9332 220.433 28.9844C220.177 29.0355 219.908 29.0824 219.627 29.125C219.082 29.2102 218.634 29.3509 218.285 29.5469C217.944 29.7344 217.688 29.9687 217.518 30.25C217.356 30.5227 217.275 30.8295 217.275 31.1705C217.275 31.7159 217.467 32.1335 217.85 32.4233C218.234 32.7131 218.724 32.858 219.32 32.858ZM239.874 10.8182V37H232.817V10.8182H239.874Z" fill="#F5F5F5"/>
<defs>
<clipPath id="clip0_211_21672">
<rect x="9.33331" y="9.33301" width="29.3333" height="29.3333" rx="2.66667" fill="white"/>
</clipPath>
</defs>
</svg>
