<svg width="90" height="100" viewBox="0 0 90 100" fill="none" xmlns="http://www.w3.org/2000/svg">
<path d="M4.28571 1.42681C4.77273 1.1141 5.64935 0.645037 6.23377 0.39096C7.16883 0.0196173 7.57792 -0.0390158 9.35065 0.0196173C10.8117 0.058706 11.7468 0.195516 12.6623 0.508226C13.3636 0.742759 14.5519 1.25091 15.2922 1.6418C16.0325 2.01314 31.6364 10.9449 49.9675 21.4989C68.2987 32.0333 83.7078 40.9455 84.2532 41.2778C84.7792 41.6296 85.7922 42.4309 86.474 43.0563C87.1364 43.6817 87.9935 44.6394 88.3442 45.1866C88.7143 45.7143 89.2208 46.7893 89.4935 47.532C89.8052 48.3919 90 49.3105 90 49.975C90 50.6395 89.8052 51.5581 89.4935 52.418C89.2208 53.1803 88.7143 54.2161 88.3442 54.7634C87.9935 55.2911 87.1364 56.2683 86.474 56.8937C85.7922 57.5191 84.7987 58.3204 84.2532 58.6722C83.7273 59.0045 68.2987 67.9167 49.9675 78.4511C31.6364 89.0051 16.0325 97.9369 15.2922 98.3082C14.5519 98.6991 13.3636 99.1877 12.6623 99.4418C11.8636 99.6958 10.7143 99.9108 9.54545 99.9695C7.96753 100.048 7.51948 99.989 6.52597 99.6372C5.88312 99.4027 4.92857 98.9141 4.38312 98.5623C3.83766 98.2105 3.0974 97.546 2.70779 97.0574C2.31818 96.5883 1.81169 95.8456 1.5974 95.4156C1.38312 94.9856 1.03247 94.0671 0.798701 93.3635C0.584416 92.6599 0.311688 91.2527 0.194805 90.2364C0.0779221 89.0833 0 73.9168 0 49.975C0 26.0332 0.0779221 10.8667 0.194805 9.71362C0.311688 8.69731 0.584416 7.29012 0.798701 6.58652C1.03247 5.88293 1.38312 4.96434 1.5974 4.53436C1.81169 4.10439 2.31818 3.3617 2.70779 2.89264C3.0974 2.42357 3.7987 1.75907 4.28571 1.42681Z" fill="white"/>
</svg>
