<svg width="22" height="22" viewBox="0 0 22 22" fill="none" xmlns="http://www.w3.org/2000/svg">
<path d="M10.725 0C4.82625 0 0 4.95 0 11C0 17.05 4.82625 22 10.725 22C16.6238 22 21.45 17.05 21.45 11C21.45 4.95 16.6238 0 10.725 0Z" fill="#29B6F6"/>
<path d="M16.1845 5.9584L14.1636 16.6579C14.1636 16.6579 14.0544 17.1621 13.5082 17.1621C13.1805 17.1621 13.0167 16.9941 13.0167 16.9941L8.53798 13.2408L6.35326 12.1204L3.56773 11.3362C3.56773 11.3362 3.07617 11.1681 3.07617 10.776C3.07617 10.4399 3.56773 10.2718 3.56773 10.2718L15.2014 5.51026C15.2014 5.51026 15.5837 5.39822 15.8022 5.39822C15.966 5.39822 16.1299 5.45424 16.1299 5.67831C16.1845 5.84637 16.1845 5.9584 16.1845 5.9584Z" fill="white"/>
<path d="M10.1731 14.6409L8.31606 16.5456C8.31606 16.5456 8.26144 16.6016 8.1522 16.6016C8.09759 16.6016 8.09759 16.6016 8.04297 16.6016L8.58915 13.2405L10.1731 14.6409Z" fill="#B0BEC5"/>
<path d="M13.9435 7.75089C13.8342 7.63885 13.6704 7.58283 13.5611 7.69487L6.35156 12.1203C6.35156 12.1203 7.49854 15.4254 7.6624 15.9856C7.82625 16.5458 7.9901 16.5458 7.9901 16.5458L8.53628 13.1847L13.8889 8.087C13.9981 8.03098 14.0527 7.86293 13.9435 7.75089Z" fill="#CFD8DC"/>
</svg>
