<svg width="36" height="57" viewBox="0 0 36 57" fill="none" xmlns="http://www.w3.org/2000/svg">
<path d="M26.2584 17.3202C25.2258 26.1895 24.7439 30.1609 24.7439 30.1609C24.7439 30.1609 24.9504 30.0947 25.4323 30.0947C25.9142 30.0947 28.3924 30.6904 28.3924 32.8747C28.3924 35.0589 26.396 35.787 25.4323 35.787C24.4686 35.787 24.3997 35.6546 24.3997 35.6546C24.3997 35.6546 19.7875 29.5652 19.7875 20.3649C19.7875 14.474 20.2006 9.11266 20.2006 6.13413C20.2006 5.60462 20.2006 2.75847 18.0666 0.508026C15.9326 2.75847 15.9326 5.60462 15.9326 6.13413C15.9326 9.17885 16.3456 14.5402 16.3456 20.3649C16.3456 29.5652 11.7334 35.6546 11.7334 35.6546C11.7334 35.6546 11.6645 35.787 10.7008 35.787C9.73707 35.787 7.74074 35.0589 7.74074 32.8747C7.74074 30.6904 10.2189 30.0947 10.7008 30.0947C11.1827 30.0947 11.3892 30.1609 11.3892 30.1609C11.3892 30.1609 10.9073 26.2557 9.87474 17.3202C7.80958 7.78887 0.375 4.47939 0.375 4.47939V45.5831H10.2878C10.2878 45.5831 10.9762 51.3415 16.2767 55.0482C16.2767 55.0482 17.9289 56.4381 17.9977 56.9015C18.0665 56.4381 19.7187 55.0482 19.7187 55.0482C25.0193 51.3415 25.7076 45.5831 25.7076 45.5831H35.6204V4.47939C35.6893 4.47939 28.2547 7.78887 26.2584 17.3202ZM3.4039 10.5688C3.4039 10.5688 6.08861 13.8121 6.84584 17.5849C7.25887 21.093 8.15378 27.8443 8.15378 27.8443C8.15378 27.8443 5.60674 28.9033 4.98719 31.4847C4.50532 31.4847 3.4039 31.4847 3.4039 31.4847V10.5688ZM9.94358 42.8031H3.4039V34.2647H4.98719C5.81326 37.9713 9.94358 38.567 10.5631 38.567C9.94358 40.4865 9.94358 42.8031 9.94358 42.8031ZM16.5521 51.4077C13.8674 48.9587 13.5232 45.5831 13.5232 45.5831H16.5521C16.5521 45.5831 16.5521 49.8854 16.5521 51.4077ZM12.9725 42.8031C12.9725 41.0822 13.179 40.0893 13.4544 39.2951C16.4144 39.7584 16.5521 42.8031 16.5521 42.8031H12.9725ZM18.0666 38.6994C18.0666 38.6994 15.4507 36.9784 14.6935 36.5151C16.7586 33.4704 18.0666 28.8371 18.0666 28.8371C18.0666 28.8371 19.3745 33.4704 21.4396 36.5151C20.6824 36.9784 18.0666 38.6994 18.0666 38.6994ZM19.581 51.4077C19.581 49.8854 19.581 45.5831 19.581 45.5831H22.6099C22.6099 45.5831 22.2657 48.9587 19.581 51.4077ZM19.5122 42.8031C19.5122 42.8031 19.6498 39.7584 22.6099 39.2951C22.8853 40.0893 23.0918 41.016 23.0918 42.8031H19.5122ZM32.7292 42.8031H26.1895C26.1895 42.8031 26.1895 40.4865 25.57 38.567C26.1895 38.567 30.3198 37.9713 31.1459 34.2647H32.7292V42.8031ZM32.7292 31.4847C32.7292 31.4847 31.6278 31.4847 31.1459 31.4847C30.5952 28.9033 27.9793 27.8443 27.9793 27.8443C27.9793 27.8443 28.8054 21.093 29.2873 17.5849C30.0445 13.8121 32.7292 10.5688 32.7292 10.5688V31.4847Z" fill="#FFCB04"/>
</svg>
