<svg width="86" height="86" viewBox="0 0 86 86" fill="none" xmlns="http://www.w3.org/2000/svg">
<g clip-path="url(#clip0_4336_138)">
<rect y="-3.05176e-05" width="86" height="86" rx="43" fill="#3275B2"/>
<path d="M51.2584 32.3202C50.2258 41.1895 49.7439 45.1609 49.7439 45.1609C49.7439 45.1609 49.9504 45.0947 50.4323 45.0947C50.9142 45.0947 53.3924 45.6904 53.3924 47.8747C53.3924 50.0589 51.396 50.787 50.4323 50.787C49.4686 50.787 49.3997 50.6546 49.3997 50.6546C49.3997 50.6546 44.7875 44.5652 44.7875 35.3649C44.7875 29.474 45.2006 24.1127 45.2006 21.1341C45.2006 20.6046 45.2006 17.7585 43.0666 15.508C40.9326 17.7585 40.9326 20.6046 40.9326 21.1341C40.9326 24.1788 41.3456 29.5402 41.3456 35.3649C41.3456 44.5652 36.7334 50.6546 36.7334 50.6546C36.7334 50.6546 36.6645 50.787 35.7008 50.787C34.7371 50.787 32.7407 50.0589 32.7407 47.8747C32.7407 45.6904 35.2189 45.0947 35.7008 45.0947C36.1827 45.0947 36.3892 45.1609 36.3892 45.1609C36.3892 45.1609 35.9073 41.2557 34.8747 32.3202C32.8096 22.7889 25.375 19.4794 25.375 19.4794V60.5831H35.2878C35.2878 60.5831 35.9762 66.3415 41.2767 70.0482C41.2767 70.0482 42.9289 71.4381 42.9977 71.9015C43.0665 71.4381 44.7187 70.0482 44.7187 70.0482C50.0193 66.3415 50.7076 60.5831 50.7076 60.5831H60.6204V19.4794C60.6893 19.4794 53.2547 22.7889 51.2584 32.3202ZM28.4039 25.5688C28.4039 25.5688 31.0886 28.8121 31.8458 32.5849C32.2589 36.093 33.1538 42.8443 33.1538 42.8443C33.1538 42.8443 30.6067 43.9033 29.9872 46.4847C29.5053 46.4847 28.4039 46.4847 28.4039 46.4847V25.5688ZM34.9436 57.8031H28.4039V49.2647H29.9872C30.8133 52.9713 34.9436 53.567 35.5631 53.567C34.9436 55.4865 34.9436 57.8031 34.9436 57.8031ZM41.5521 66.4077C38.8674 63.9587 38.5232 60.5831 38.5232 60.5831H41.5521C41.5521 60.5831 41.5521 64.8854 41.5521 66.4077ZM37.9725 57.8031C37.9725 56.0822 38.179 55.0893 38.4544 54.2951C41.4144 54.7584 41.5521 57.8031 41.5521 57.8031H37.9725ZM43.0666 53.6994C43.0666 53.6994 40.4507 51.9784 39.6935 51.5151C41.7586 48.4704 43.0666 43.8371 43.0666 43.8371C43.0666 43.8371 44.3745 48.4704 46.4396 51.5151C45.6824 51.9784 43.0666 53.6994 43.0666 53.6994ZM44.581 66.4077C44.581 64.8854 44.581 60.5831 44.581 60.5831H47.6099C47.6099 60.5831 47.2657 63.9587 44.581 66.4077ZM44.5122 57.8031C44.5122 57.8031 44.6498 54.7584 47.6099 54.2951C47.8853 55.0893 48.0918 56.016 48.0918 57.8031H44.5122ZM57.7292 57.8031H51.1895C51.1895 57.8031 51.1895 55.4865 50.57 53.567C51.1895 53.567 55.3198 52.9713 56.1459 49.2647H57.7292V57.8031ZM57.7292 46.4847C57.7292 46.4847 56.6278 46.4847 56.1459 46.4847C55.5952 43.9033 52.9793 42.8443 52.9793 42.8443C52.9793 42.8443 53.8054 36.093 54.2873 32.5849C55.0445 28.8121 57.7292 25.5688 57.7292 25.5688V46.4847Z" fill="#FFCB04"/>
</g>
<defs>
<clipPath id="clip0_4336_138">
<rect width="86" height="86" fill="white"/>
</clipPath>
</defs>
</svg>
