<svg width="40" height="37" viewBox="0 0 40 37" fill="none" xmlns="http://www.w3.org/2000/svg">
<g clip-path="url(#clip0_6062_67)">
<mask id="mask0_6062_67" style="mask-type:luminance" maskUnits="userSpaceOnUse" x="0" y="0" width="147" height="37">
<path d="M146.767 0H0V37H146.767V0Z" fill="white"/>
</mask>
<g mask="url(#mask0_6062_67)">
<path d="M18.8497 7.20331C16.4952 3.22502 11.3212 1.83902 7.29323 4.10758C3.26529 6.37614 1.90874 11.4402 4.26329 15.4185L12.4552 29.2597C14.8097 33.238 19.9838 34.624 24.0117 32.3554C28.0396 30.0869 29.3962 25.0228 27.0416 21.0445L18.8497 7.20331Z" fill="#3FC3BC"/>
<path d="M36.0263 15.4249C38.3808 11.4466 37.0243 6.38254 32.9964 4.11398C28.9684 1.84541 23.7944 3.23142 21.4398 7.20971L12.9339 21.5814C10.5794 25.5597 11.9359 30.6238 15.9639 32.8924C19.9918 35.1609 25.1659 33.7749 27.5204 29.7966L36.0263 15.4249Z" fill="#FF7272"/>
</g>
</g>
<defs>
<clipPath id="clip0_6062_67">
<rect width="40" height="37" fill="white"/>
</clipPath>
</defs>
</svg>
